<svg xmlns="http://www.w3.org/2000/svg" viewBox="0 0 766 601" width="766" height="601">
	<defs>
		<linearGradient id="grd1" gradientUnits="userSpaceOnUse"  x1="552.462" y1="-7.872" x2="684" y2="78.844">
			<stop offset="0" stop-color="#2b3582"  />
			<stop offset="1" stop-color="#150e42"  />
		</linearGradient>
		<linearGradient id="grd2" gradientUnits="userSpaceOnUse"  x1="649.485" y1="209.847" x2="168.891" y2="371.495">
			<stop offset="0" stop-color="#fdf53f"  />
			<stop offset="0.665" stop-color="#e57a58"  />
			<stop offset="1" stop-color="#d93c65"  />
		</linearGradient>
		<linearGradient id="grd3" gradientUnits="userSpaceOnUse"  x1="503.536" y1="126.974" x2="490.459" y2="209.202">
			<stop offset="0" stop-color="#a737d5"  />
			<stop offset="1" stop-color="#ef497a"  />
		</linearGradient>
		<linearGradient id="grd4" gradientUnits="userSpaceOnUse"  x1="536.798" y1="133.067" x2="523.721" y2="215.296">
			<stop offset="0" stop-color="#a737d5"  />
			<stop offset="1" stop-color="#ef497a"  />
		</linearGradient>
		<linearGradient id="grd5" gradientUnits="userSpaceOnUse"  x1="570.06" y1="139.161" x2="556.982" y2="221.389">
			<stop offset="0" stop-color="#a737d5"  />
			<stop offset="1" stop-color="#ef497a"  />
		</linearGradient>
		<linearGradient id="grd6" gradientUnits="userSpaceOnUse"  x1="478.012" y1="94.665" x2="559.819" y2="64.643">
			<stop offset="0" stop-color="#a737d5"  />
			<stop offset="1" stop-color="#ef497a"  />
		</linearGradient>
		<linearGradient id="grd7" gradientUnits="userSpaceOnUse"  x1="579.557" y1="80.637" x2="650.248" y2="52">
			<stop offset="0" stop-color="#a737d5"  />
			<stop offset="1" stop-color="#ef497a"  />
		</linearGradient>
		<linearGradient id="grd8" gradientUnits="userSpaceOnUse"  x1="25.054" y1="388.127" x2="163.503" y2="-27.221">
			<stop offset="0" stop-color="#2b3582"  />
			<stop offset="1" stop-color="#150e42"  />
		</linearGradient>
		<linearGradient id="grd9" gradientUnits="userSpaceOnUse"  x1="76.73" y1="482.002" x2="139.332" y2="-37.942">
			<stop offset="0" stop-color="#a737d5"  />
			<stop offset="1" stop-color="#ef497a"  />
		</linearGradient>
		<linearGradient id="grd10" gradientUnits="userSpaceOnUse"  x1="144.902" y1="178.064" x2="688.557" y2="178.064">
			<stop offset="0" stop-color="#b37cff"  />
			<stop offset="1" stop-color="#f895e7"  />
		</linearGradient>
		<linearGradient id="grd11" gradientUnits="userSpaceOnUse"  x1="50.857" y1="616.823" x2="103.055" y2="331.417">
			<stop offset="0" stop-color="#2b3582"  />
			<stop offset="1" stop-color="#150e42"  />
		</linearGradient>
		<linearGradient id="grd12" gradientUnits="userSpaceOnUse"  x1="629.064" y1="575.756" x2="645.695" y2="471.144">
			<stop offset="0" stop-color="#cb236d"  />
			<stop offset="1" stop-color="#4c246d"  />
		</linearGradient>
		<linearGradient id="grd13" gradientUnits="userSpaceOnUse"  x1="612.54" y1="572.94" x2="629.523" y2="466.111">
			<stop offset="0" stop-color="#cb236d"  />
			<stop offset="1" stop-color="#4c246d"  />
		</linearGradient>
		<linearGradient id="grd14" gradientUnits="userSpaceOnUse"  x1="587.038" y1="574.133" x2="604.718" y2="462.921">
			<stop offset="0" stop-color="#fdf53f"  />
			<stop offset="1" stop-color="#d93c65"  />
		</linearGradient>
		<linearGradient id="grd15" gradientUnits="userSpaceOnUse"  x1="571.77" y1="560.553" x2="585.357" y2="587.275">
			<stop offset="0" stop-color="#2b3582"  />
			<stop offset="1" stop-color="#150e42"  />
		</linearGradient>
		<linearGradient id="grd16" gradientUnits="userSpaceOnUse"  x1="611.713" y1="551.092" x2="598.508" y2="551.092">
			<stop offset="0" stop-color="#f9b776"  />
			<stop offset="1" stop-color="#f47960"  />
		</linearGradient>
		<linearGradient id="grd17" gradientUnits="userSpaceOnUse"  x1="673.407" y1="496.215" x2="615.888" y2="415.598">
			<stop offset="0" stop-color="#2b3582"  />
			<stop offset="1" stop-color="#150e42"  />
		</linearGradient>
		<linearGradient id="grd18" gradientUnits="userSpaceOnUse"  x1="578.232" y1="590.342" x2="622.277" y2="647.94">
			<stop offset="0" stop-color="#2b3582"  />
			<stop offset="1" stop-color="#150e42"  />
		</linearGradient>
		<linearGradient id="grd19" gradientUnits="userSpaceOnUse"  x1="617.658" y1="579.837" x2="581.97" y2="579.837">
			<stop offset="0" stop-color="#53d8ff"  />
			<stop offset="1" stop-color="#3840f7"  />
		</linearGradient>
		<linearGradient id="grd20" gradientUnits="userSpaceOnUse"  x1="621.824" y1="564.32" x2="609.424" y2="564.32">
			<stop offset="0" stop-color="#f9b776"  />
			<stop offset="1" stop-color="#f47960"  />
		</linearGradient>
		<linearGradient id="grd21" gradientUnits="userSpaceOnUse"  x1="696.676" y1="564.415" x2="693.506" y2="456.623">
			<stop offset="0" stop-color="#2b3582"  />
			<stop offset="1" stop-color="#150e42"  />
		</linearGradient>
		<linearGradient id="grd22" gradientUnits="userSpaceOnUse"  x1="185.229" y1="-19.811" x2="55.579" y2="-150.394">
			<stop offset="0" stop-color="#53d8ff"  />
			<stop offset="1" stop-color="#3840f7"  />
		</linearGradient>
		<linearGradient id="grd23" gradientUnits="userSpaceOnUse"  x1="582.472" y1="412.916" x2="538.72" y2="412.916">
			<stop offset="0" stop-color="#f9b776"  />
			<stop offset="1" stop-color="#f47960"  />
		</linearGradient>
		<linearGradient id="grd24" gradientUnits="userSpaceOnUse"  x1="576.213" y1="412.127" x2="673.868" y2="483.149">
			<stop offset="0" stop-color="#53d8ff"  />
			<stop offset="1" stop-color="#3840f7"  />
		</linearGradient>
		<linearGradient id="grd25" gradientUnits="userSpaceOnUse"  x1="624.945" y1="345.899" x2="595.896" y2="345.899">
			<stop offset="0" stop-color="#f9b776"  />
			<stop offset="1" stop-color="#f47960"  />
		</linearGradient>
		<linearGradient id="grd26" gradientUnits="userSpaceOnUse"  x1="611.817" y1="382.391" x2="693.242" y2="441.61">
			<stop offset="0" stop-color="#53d8ff"  />
			<stop offset="1" stop-color="#3840f7"  />
		</linearGradient>
		<linearGradient id="grd27" gradientUnits="userSpaceOnUse"  x1="421.471" y1="-78.817" x2="391.207" y2="-129.566">
			<stop offset="0" stop-color="#53d8ff"  />
			<stop offset="1" stop-color="#3840f7"  />
		</linearGradient>
		<linearGradient id="grd28" gradientUnits="userSpaceOnUse"  x1="625.563" y1="442.637" x2="704.936" y2="580.564">
			<stop offset="0" stop-color="#f9b776"  />
			<stop offset="1" stop-color="#f47960"  />
		</linearGradient>
		<linearGradient id="grd29" gradientUnits="userSpaceOnUse"  x1="577.473" y1="338.133" x2="598.675" y2="389.031">
			<stop offset="0" stop-color="#f9b776"  />
			<stop offset="1" stop-color="#f47960"  />
		</linearGradient>
		<linearGradient id="grd30" gradientUnits="userSpaceOnUse"  x1="623.379" y1="316.098" x2="583.404" y2="305.781">
			<stop offset="0" stop-color="#2b3582"  />
			<stop offset="1" stop-color="#150e42"  />
		</linearGradient>
		<linearGradient id="grd31" gradientUnits="userSpaceOnUse"  x1="638.153" y1="367.61" x2="621.514" y2="338.55">
			<stop offset="0" stop-color="#f9b776"  />
			<stop offset="1" stop-color="#f47960"  />
		</linearGradient>
		<linearGradient id="grd32" gradientUnits="userSpaceOnUse"  x1="635.782" y1="442.173" x2="579.275" y2="460.706">
			<stop offset="0" stop-color="#2b3582"  />
			<stop offset="1" stop-color="#150e42"  />
		</linearGradient>
		<linearGradient id="grd33" gradientUnits="userSpaceOnUse"  x1="596.861" y1="430.415" x2="555.965" y2="473.639">
			<stop offset="0" stop-color="#2b3582"  />
			<stop offset="1" stop-color="#150e42"  />
		</linearGradient>
		<linearGradient id="grd34" gradientUnits="userSpaceOnUse"  x1="534.643" y1="405.388" x2="517.589" y2="431.068">
			<stop offset="0" stop-color="#53d8ff"  />
			<stop offset="1" stop-color="#3840f7"  />
		</linearGradient>
		<linearGradient id="grd35" gradientUnits="userSpaceOnUse"  x1="489.488" y1="447.922" x2="557.715" y2="447.922">
			<stop offset="0" stop-color="#9cfffb"  />
			<stop offset="1" stop-color="#9bfffa"  />
		</linearGradient>
		<linearGradient id="grd36" gradientUnits="userSpaceOnUse"  x1="497.461" y1="447.922" x2="565.688" y2="447.922">
			<stop offset="0" stop-color="#9cfffb"  />
			<stop offset="1" stop-color="#9bfffa"  />
		</linearGradient>
		<linearGradient id="grd37" gradientUnits="userSpaceOnUse"  x1="684.583" y1="447.922" x2="752.81" y2="447.922">
			<stop offset="0" stop-color="#9cfffb"  />
			<stop offset="1" stop-color="#9bfffa"  />
		</linearGradient>
		<linearGradient id="grd38" gradientUnits="userSpaceOnUse"  x1="692.555" y1="447.922" x2="760.782" y2="447.922">
			<stop offset="0" stop-color="#9cfffb"  />
			<stop offset="1" stop-color="#9bfffa"  />
		</linearGradient>
		<linearGradient id="grd39" gradientUnits="userSpaceOnUse"  x1="472.969" y1="441.516" x2="765.518" y2="441.516">
			<stop offset="0" stop-color="#9cfffb"  />
			<stop offset="1" stop-color="#9bfffa"  />
		</linearGradient>
		<linearGradient id="grd40" gradientUnits="userSpaceOnUse"  x1="697.321" y1="203.177" x2="654.237" y2="139.361">
			<stop offset="0" stop-color="#53d8ff"  />
			<stop offset="1" stop-color="#3840f7"  />
		</linearGradient>
		<linearGradient id="grd41" gradientUnits="userSpaceOnUse"  x1="643.482" y1="176.929" x2="614.597" y2="75.44">
			<stop offset="0" stop-color="#53d8ff"  />
			<stop offset="1" stop-color="#3840f7"  />
		</linearGradient>
		<linearGradient id="grd42" gradientUnits="userSpaceOnUse"  x1="690.841" y1="201.346" x2="650.594" y2="141.732">
			<stop offset="0" stop-color="#53d8ff"  />
			<stop offset="1" stop-color="#3840f7"  />
		</linearGradient>
		<linearGradient id="grd43" gradientUnits="userSpaceOnUse"  x1="687.633" y1="160.452" x2="662.782" y2="139.321">
			<stop offset="0" stop-color="#53d8ff"  />
			<stop offset="1" stop-color="#3840f7"  />
		</linearGradient>
		<linearGradient id="grd44" gradientUnits="userSpaceOnUse"  x1="29.171" y1="300.424" x2="68.053" y2="257.818">
			<stop offset="0" stop-color="#53d8ff"  />
			<stop offset="1" stop-color="#3840f7"  />
		</linearGradient>
		<linearGradient id="grd45" gradientUnits="userSpaceOnUse"  x1="72.007" y1="286.718" x2="104.471" y2="214.634">
			<stop offset="0" stop-color="#53d8ff"  />
			<stop offset="1" stop-color="#3840f7"  />
		</linearGradient>
		<linearGradient id="grd46" gradientUnits="userSpaceOnUse"  x1="34.176" y1="299.776" x2="70.498" y2="259.975">
			<stop offset="0" stop-color="#53d8ff"  />
			<stop offset="1" stop-color="#3840f7"  />
		</linearGradient>
		<linearGradient id="grd47" gradientUnits="userSpaceOnUse"  x1="40.115" y1="268.907" x2="60.836" y2="255.953">
			<stop offset="0" stop-color="#53d8ff"  />
			<stop offset="1" stop-color="#3840f7"  />
		</linearGradient>
		<linearGradient id="grd48" gradientUnits="userSpaceOnUse"  x1="542.8" y1="71.238" x2="-138.606" y2="367.171">
			<stop offset="0" stop-color="#cb236d"  />
			<stop offset="1" stop-color="#4c246d"  />
		</linearGradient>
		<linearGradient id="grd49" gradientUnits="userSpaceOnUse"  x1="275.209" y1="575.756" x2="258.579" y2="471.144">
			<stop offset="0" stop-color="#cb236d"  />
			<stop offset="1" stop-color="#4c246d"  />
		</linearGradient>
		<linearGradient id="grd50" gradientUnits="userSpaceOnUse"  x1="291.734" y1="572.94" x2="274.751" y2="466.111">
			<stop offset="0" stop-color="#cb236d"  />
			<stop offset="1" stop-color="#4c246d"  />
		</linearGradient>
		<linearGradient id="grd51" gradientUnits="userSpaceOnUse"  x1="317.236" y1="574.133" x2="299.556" y2="462.921">
			<stop offset="0" stop-color="#fdf53f"  />
			<stop offset="1" stop-color="#d93c65"  />
		</linearGradient>
		<linearGradient id="grd52" gradientUnits="userSpaceOnUse"  x1="332.504" y1="560.553" x2="318.917" y2="587.275">
			<stop offset="0" stop-color="#2b3582"  />
			<stop offset="1" stop-color="#150e42"  />
		</linearGradient>
		<linearGradient id="grd53" gradientUnits="userSpaceOnUse"  x1="292.561" y1="551.092" x2="305.765" y2="551.092">
			<stop offset="0" stop-color="#f9b776"  />
			<stop offset="1" stop-color="#f47960"  />
		</linearGradient>
		<linearGradient id="grd54" gradientUnits="userSpaceOnUse"  x1="230.866" y1="496.216" x2="288.385" y2="415.598">
			<stop offset="0" stop-color="#2b3582"  />
			<stop offset="1" stop-color="#150e42"  />
		</linearGradient>
		<linearGradient id="grd55" gradientUnits="userSpaceOnUse"  x1="326.042" y1="590.342" x2="281.996" y2="647.94">
			<stop offset="0" stop-color="#2b3582"  />
			<stop offset="1" stop-color="#150e42"  />
		</linearGradient>
		<linearGradient id="grd56" gradientUnits="userSpaceOnUse"  x1="286.615" y1="579.837" x2="322.304" y2="579.837">
			<stop offset="0" stop-color="#53d8ff"  />
			<stop offset="1" stop-color="#3840f7"  />
		</linearGradient>
		<linearGradient id="grd57" gradientUnits="userSpaceOnUse"  x1="282.45" y1="564.32" x2="294.85" y2="564.32">
			<stop offset="0" stop-color="#f9b776"  />
			<stop offset="1" stop-color="#f47960"  />
		</linearGradient>
		<linearGradient id="grd58" gradientUnits="userSpaceOnUse"  x1="207.598" y1="564.415" x2="210.768" y2="456.623">
			<stop offset="0" stop-color="#2b3582"  />
			<stop offset="1" stop-color="#150e42"  />
		</linearGradient>
		<linearGradient id="grd59" gradientUnits="userSpaceOnUse"  x1="311.03" y1="473.332" x2="280.043" y2="424.83">
			<stop offset="0" stop-color="#fdf53f"  />
			<stop offset="1" stop-color="#d93c65"  />
		</linearGradient>
		<linearGradient id="grd60" gradientUnits="userSpaceOnUse"  x1="321.802" y1="412.916" x2="365.553" y2="412.916">
			<stop offset="0" stop-color="#f9b776"  />
			<stop offset="1" stop-color="#f47960"  />
		</linearGradient>
		<linearGradient id="grd61" gradientUnits="userSpaceOnUse"  x1="328.061" y1="412.127" x2="230.406" y2="483.149">
			<stop offset="0" stop-color="#fdf53f"  />
			<stop offset="1" stop-color="#d93c65"  />
		</linearGradient>
		<linearGradient id="grd62" gradientUnits="userSpaceOnUse"  x1="279.328" y1="345.899" x2="308.377" y2="345.899">
			<stop offset="0" stop-color="#f9b776"  />
			<stop offset="1" stop-color="#f47960"  />
		</linearGradient>
		<linearGradient id="grd63" gradientUnits="userSpaceOnUse"  x1="292.456" y1="382.391" x2="211.031" y2="441.61">
			<stop offset="0" stop-color="#fdf53f"  />
			<stop offset="1" stop-color="#d93c65"  />
		</linearGradient>
		<linearGradient id="grd64" gradientUnits="userSpaceOnUse"  x1="217.25" y1="378.583" x2="296.223" y2="374.058">
			<stop offset="0" stop-color="#fdf53f"  />
			<stop offset="1" stop-color="#d93c65"  />
		</linearGradient>
		<linearGradient id="grd65" gradientUnits="userSpaceOnUse"  x1="278.711" y1="442.637" x2="199.338" y2="580.564">
			<stop offset="0" stop-color="#f9b776"  />
			<stop offset="1" stop-color="#f47960"  />
		</linearGradient>
		<linearGradient id="grd66" gradientUnits="userSpaceOnUse"  x1="324.358" y1="365.789" x2="281.809" y2="376.91">
			<stop offset="0" stop-color="#f9b776"  />
			<stop offset="1" stop-color="#f47960"  />
		</linearGradient>
		<linearGradient id="grd67" gradientUnits="userSpaceOnUse"  x1="331.546" y1="307.686" x2="344.92" y2="357.389">
			<stop offset="0" stop-color="#2b3582"  />
			<stop offset="1" stop-color="#150e42"  />
		</linearGradient>
		<linearGradient id="grd68" gradientUnits="userSpaceOnUse"  x1="311.067" y1="346.852" x2="281.905" y2="354.474">
			<stop offset="0" stop-color="#f9b776"  />
			<stop offset="1" stop-color="#f47960"  />
		</linearGradient>
		<linearGradient id="grd69" gradientUnits="userSpaceOnUse"  x1="414.786" y1="447.922" x2="346.559" y2="447.922">
			<stop offset="0" stop-color="#9cfffb"  />
			<stop offset="1" stop-color="#9bfffa"  />
		</linearGradient>
		<linearGradient id="grd70" gradientUnits="userSpaceOnUse"  x1="406.813" y1="447.922" x2="338.586" y2="447.922">
			<stop offset="0" stop-color="#9cfffb"  />
			<stop offset="1" stop-color="#9bfffa"  />
		</linearGradient>
		<linearGradient id="grd71" gradientUnits="userSpaceOnUse"  x1="219.691" y1="447.922" x2="151.464" y2="447.922">
			<stop offset="0" stop-color="#9cfffb"  />
			<stop offset="1" stop-color="#9bfffa"  />
		</linearGradient>
		<linearGradient id="grd72" gradientUnits="userSpaceOnUse"  x1="211.719" y1="447.922" x2="143.492" y2="447.922">
			<stop offset="0" stop-color="#9cfffb"  />
			<stop offset="1" stop-color="#9bfffa"  />
		</linearGradient>
		<linearGradient id="grd73" gradientUnits="userSpaceOnUse"  x1="431.305" y1="441.516" x2="138.755" y2="441.516">
			<stop offset="0" stop-color="#9cfffb"  />
			<stop offset="1" stop-color="#9bfffa"  />
		</linearGradient>
		<linearGradient id="grd74" gradientUnits="userSpaceOnUse"  x1="268.492" y1="442.173" x2="324.999" y2="460.706">
			<stop offset="0" stop-color="#2b3582"  />
			<stop offset="1" stop-color="#150e42"  />
		</linearGradient>
		<linearGradient id="grd75" gradientUnits="userSpaceOnUse"  x1="307.413" y1="430.414" x2="348.309" y2="473.639">
			<stop offset="0" stop-color="#2b3582"  />
			<stop offset="1" stop-color="#150e42"  />
		</linearGradient>
		<linearGradient id="grd76" gradientUnits="userSpaceOnUse"  x1="369.631" y1="405.388" x2="386.684" y2="431.068">
			<stop offset="0" stop-color="#53d8ff"  />
			<stop offset="1" stop-color="#3840f7"  />
		</linearGradient>
	</defs>
	<style>
		tspan { white-space:pre }
		.shp0 { fill: url(#grd1) } 
		.shp1 { fill: url(#grd2) } 
		.shp2 { fill: url(#grd3) } 
		.shp3 { fill: url(#grd4) } 
		.shp4 { fill: url(#grd5) } 
		.shp5 { fill: url(#grd6) } 
		.shp6 { fill: url(#grd7) } 
		.shp7 { opacity: 0.651;fill: #ffffff } 
		.shp8 { opacity: 0.502;fill: #ffffff } 
		.shp9 { fill: url(#grd8) } 
		.shp10 { fill: url(#grd9) } 
		.shp11 { fill: #ffffff } 
		.shp12 { opacity: 0.502;fill: url(#grd10) } 
		.shp13 { fill: url(#grd11) } 
		.shp14 { fill: url(#grd12) } 
		.shp15 { fill: url(#grd13) } 
		.shp16 { fill: url(#grd14) } 
		.shp17 { fill: url(#grd15) } 
		.shp18 { fill: url(#grd16) } 
		.shp19 { fill: url(#grd17) } 
		.shp20 { fill: url(#grd18) } 
		.shp21 { fill: url(#grd19) } 
		.shp22 { fill: url(#grd20) } 
		.shp23 { fill: url(#grd21) } 
		.shp24 { fill: url(#grd22) } 
		.shp25 { fill: url(#grd23) } 
		.shp26 { fill: url(#grd24) } 
		.shp27 { fill: url(#grd25) } 
		.shp28 { fill: url(#grd26) } 
		.shp29 { fill: url(#grd27) } 
		.shp30 { fill: url(#grd28) } 
		.shp31 { fill: url(#grd29) } 
		.shp32 { fill: url(#grd30) } 
		.shp33 { fill: url(#grd31) } 
		.shp34 { fill: url(#grd32) } 
		.shp35 { fill: url(#grd33) } 
		.shp36 { fill: url(#grd34) } 
		.shp37 { fill: url(#grd35) } 
		.shp38 { fill: url(#grd36) } 
		.shp39 { fill: url(#grd37) } 
		.shp40 { fill: url(#grd38) } 
		.shp41 { fill: url(#grd39) } 
		.shp42 { fill: url(#grd40) } 
		.shp43 { fill: url(#grd41) } 
		.shp44 { fill: url(#grd42) } 
		.shp45 { fill: url(#grd43) } 
		.shp46 { fill: #e992ec } 
		.shp47 { fill: url(#grd44) } 
		.shp48 { fill: url(#grd45) } 
		.shp49 { fill: url(#grd46) } 
		.shp50 { fill: url(#grd47) } 
		.shp51 { fill: url(#grd48) } 
		.shp52 { fill: url(#grd49) } 
		.shp53 { fill: url(#grd50) } 
		.shp54 { fill: url(#grd51) } 
		.shp55 { fill: url(#grd52) } 
		.shp56 { fill: url(#grd53) } 
		.shp57 { fill: url(#grd54) } 
		.shp58 { fill: url(#grd55) } 
		.shp59 { fill: url(#grd56) } 
		.shp60 { fill: url(#grd57) } 
		.shp61 { fill: url(#grd58) } 
		.shp62 { fill: url(#grd59) } 
		.shp63 { fill: url(#grd60) } 
		.shp64 { fill: url(#grd61) } 
		.shp65 { fill: url(#grd62) } 
		.shp66 { fill: url(#grd63) } 
		.shp67 { fill: url(#grd64) } 
		.shp68 { fill: url(#grd65) } 
		.shp69 { fill: url(#grd66) } 
		.shp70 { fill: url(#grd67) } 
		.shp71 { fill: url(#grd68) } 
		.shp72 { fill: url(#grd69) } 
		.shp73 { fill: url(#grd70) } 
		.shp74 { fill: url(#grd71) } 
		.shp75 { fill: url(#grd72) } 
		.shp76 { fill: url(#grd73) } 
		.shp77 { fill: url(#grd74) } 
		.shp78 { fill: url(#grd75) } 
		.shp79 { fill: url(#grd76) } 
	</style>
	<g id="Illustration">
		<g id="&lt;Group&gt;">
			<g id="&lt;Group&gt;">
				<path id="&lt;Path&gt;" class="shp0" d="M546 5.94C524.37 37.05 449.92 144.48 425.65 183.95C423.08 188.13 424.2 193.58 428.2 196.41C448.02 210.43 505.17 250.53 539.21 270.99C546.3 275.25 555.47 273.28 560.17 266.46C582.74 233.72 645.8 141.34 670.38 96.18C673.33 90.77 671.99 84.04 667.22 80.15C646.61 63.4 591.59 19.38 561.75 2.36C556.37 -0.71 549.53 0.85 546 5.94Z" />
				<path id="&lt;Path&gt;" class="shp1" d="M546.5 20.19C528.58 45.01 469.17 127.67 449.56 159.8C446.7 164.49 447.87 170.59 452.27 173.88C470.42 187.43 517.22 221.79 546.37 237.83C551.62 240.72 558.19 239.27 561.75 234.45C580.32 209.33 636.47 132.9 655.89 101.16C658.98 96.09 657.81 89.52 653.17 85.82C633.96 70.52 584.39 31.57 560.02 17.34C555.45 14.67 549.6 15.9 546.5 20.19Z" />
				<path id="&lt;Path&gt;" class="shp2" d="M485.12 161.75L474.91 155.02C472.77 153.61 472.18 150.73 473.59 148.59L478.6 141C480.01 138.86 482.88 138.27 485.02 139.68L495.23 146.41C497.37 147.82 497.96 150.7 496.55 152.84L491.54 160.43C490.13 162.57 487.26 163.16 485.12 161.75Z" />
				<path id="&lt;Path&gt;" class="shp3" d="M516.1 182.18L505.89 175.45C503.75 174.04 503.16 171.16 504.57 169.02L509.58 161.43C510.98 159.29 513.86 158.7 516 160.11L526.21 166.84C528.34 168.25 528.93 171.13 527.52 173.26L522.52 180.86C521.11 183 518.23 183.59 516.1 182.18Z" />
				<path id="&lt;Path&gt;" class="shp4" d="M547.07 202.61L536.87 195.88C534.73 194.47 534.14 191.59 535.55 189.45L540.55 181.86C541.96 179.72 544.84 179.13 546.98 180.54L557.18 187.27C559.32 188.68 559.91 191.56 558.5 193.69L553.5 201.29C552.09 203.43 549.21 204.02 547.07 202.61Z" />
				<path id="&lt;Path&gt;" class="shp5" d="M579.06 79.04C580.29 77.34 579.89 74.97 578.18 73.76C572.52 69.76 558.68 63.01 536.44 70.82C506.48 81.35 500.42 119 533.92 141.88C564.71 162.91 590.85 146.43 599.74 131.88C600.87 130.03 599.86 127.62 597.77 127.05L557.37 116.1C555.3 115.54 554.43 113.08 555.69 111.34L579.06 79.04Z" />
				<path id="&lt;Path&gt;" class="shp6" d="M589.88 80.46L564.09 108.18C562.73 109.64 563.56 112.03 565.53 112.32L602.81 117.97C605.29 118.34 607.67 116.82 608.33 114.41C610.18 107.63 611.33 93.62 595.89 80.12C594.14 78.58 591.47 78.75 589.88 80.46Z" />
				<path id="&lt;Compound Path&gt;" fill-rule="evenodd" class="shp7" d="M488.82 230.42C486.71 230.42 484.65 229.81 482.85 228.62C477.85 225.32 476.46 218.56 479.76 213.55C483.06 208.54 489.82 207.16 494.83 210.46C497.25 212.06 498.91 214.51 499.49 217.35C500.08 220.2 499.52 223.1 497.92 225.53C496.32 227.95 493.87 229.61 491.03 230.2C490.29 230.35 489.55 230.42 488.82 230.42ZM488.85 210.53C485.92 210.53 483.05 211.95 481.32 214.58C478.58 218.73 479.73 224.33 483.88 227.06C485.89 228.39 488.28 228.85 490.65 228.37C493.01 227.88 495.04 226.51 496.36 224.5C497.69 222.49 498.15 220.09 497.66 217.73C497.18 215.37 495.81 213.34 493.8 212.02C492.27 211.01 490.55 210.53 488.85 210.53Z" />
				<path id="&lt;Path&gt;" class="shp8" d="M596.68 33.33C596.04 34.3 596.27 35.6 597.21 36.29C601.83 39.69 614.83 49.29 620.63 53.61C621.77 54.46 623.4 54.01 623.95 52.69L624.04 52.47C624.41 51.57 624.15 50.53 623.39 49.92C619.56 46.87 607.96 37.73 599.63 32.66C598.63 32.05 597.33 32.35 596.68 33.33Z" />
			</g>
			<g id="&lt;Group&gt;">
				<g id="&lt;Group&gt;">
					<path id="&lt;Path&gt;" class="shp9" d="M713.15 513.36C713.15 519.31 708.27 524.19 702.31 524.19L116 524.19C110.03 524.19 105.15 519.31 105.15 513.36L100.28 176.32C100.28 170.36 107.29 158.72 120.16 159.6L693.17 144.77C700.65 144.57 707.88 147.45 713.18 152.73C718.48 158.02 721.38 165.24 721.2 172.72L713.15 513.36Z" />
					<path id="&lt;Path&gt;" class="shp10" d="M702.45 502.96C702.45 508.6 697.83 513.22 692.19 513.22L130.14 513.22C124.49 513.22 119.88 508.6 119.88 502.96L115.27 196.99C115.82 178.58 131.95 171.96 141.74 172.35L690.93 157.61C696.19 157.47 701.27 159.5 704.99 163.21C708.71 166.93 710.75 172.01 710.61 177.27L702.45 502.96Z" />
					<g id="&lt;Group&gt;">
						<path id="&lt;Path&gt;" class="shp11" d="M125.95 357.03C125.44 357.03 125.03 356.62 125.02 356.11L124.66 331.3C124.65 330.78 125.06 330.36 125.57 330.35C125.58 330.35 125.58 330.35 125.59 330.35C126.1 330.35 126.51 330.76 126.52 331.27L126.89 356.09C126.89 356.6 126.48 357.02 125.97 357.03C125.96 357.03 125.96 357.03 125.95 357.03Z" />
						<path id="&lt;Path&gt;" class="shp11" d="M125.06 296.23C124.55 296.23 124.13 295.82 124.13 295.31L122.73 200.27C122.76 193.89 124.73 188.8 128.58 185.11C135.57 178.41 146.51 178.75 146.97 178.76L322.34 174.05C322.34 174.05 322.35 174.05 322.35 174.05C322.87 174.05 323.28 174.45 323.29 174.96C323.31 175.48 322.9 175.91 322.39 175.92L146.96 180.63C146.46 180.6 136.29 180.3 129.87 186.46C126.4 189.78 124.62 194.43 124.6 200.26L125.99 295.28C126 295.8 125.59 296.22 125.07 296.23L125.06 296.23Z" />
					</g>
					<path id="&lt;Path&gt;" class="shp12" d="M144.64 485.99C145.23 460.7 145.01 236.76 143.56 217.42C142.11 198.08 172.22 194.45 218.45 192.28C264.68 190.1 654.75 181.48 664.79 180.67C687.37 178.84 692.04 212.59 689.78 285.87C688.09 340.92 685.27 431.61 683.98 473.31C683.59 485.73 673.45 495.58 661.03 495.62C567.16 495.88 207.4 496.91 183.45 497.62C155.89 498.44 144.41 496.01 144.64 485.99Z" />
				</g>
				<path id="&lt;Path&gt;" class="shp13" d="M745.91 552.17L84.28 552.17C76.14 552.17 69.48 545.51 69.48 537.36C69.48 529.22 76.14 522.56 84.28 522.56L745.91 522.56C754.05 522.56 760.71 529.22 760.71 537.36C760.71 545.51 754.05 552.17 745.91 552.17Z" />
			</g>
			<g id="&lt;Group&gt;">
				<path id="&lt;Compound Path&gt;" fill-rule="evenodd" class="shp11" d="M247.46 369.73C229.75 369.73 210.45 368.37 197.69 365.77C188.06 363.82 183.01 361.38 182.23 358.32C179.57 347.76 170.87 268.63 185.25 256.2C185.43 256.05 185.65 255.98 185.89 255.98C197.8 256.4 302.42 260.35 308.83 268.76C315.76 277.87 296.72 355.17 290.17 363.81C287.12 367.83 268.4 369.73 247.46 369.73ZM186.2 257.85C173.81 269.71 180.91 345.44 184.04 357.86C184.3 358.89 186.19 361.53 198.06 363.94C226.37 369.71 283.97 368.9 288.68 362.68C295.84 353.23 312.82 277.08 307.34 269.89C302.91 264.08 232.62 259.52 186.2 257.85Z" />
				<g id="&lt;Group&gt;">
					<path id="&lt;Path&gt;" class="shp11" d="M232.72 336.15C231.88 336.15 231.11 335.58 230.91 334.73L229.05 327.17C228.62 325.38 227.59 323.69 226.08 322.28C220.19 316.76 205.89 299.58 210.46 286.55C213.27 278.55 222.47 273.9 237.8 272.7C252.32 271.58 261.36 274.55 264.67 281.53C270.62 294.11 255.35 314.28 249.54 320.35C246.96 323.04 245.28 326.23 244.68 329.59L243.76 334.62C243.58 335.63 242.6 336.3 241.59 336.12C240.58 335.94 239.91 334.97 240.09 333.95L241 328.92C241.74 324.84 243.76 320.99 246.84 317.77C255.17 309.08 265.52 292.06 261.29 283.13C258.72 277.68 250.91 275.43 238.09 276.42C224.37 277.49 216.26 281.31 213.99 287.78C210.38 298.05 222.3 313.62 228.63 319.56C230.67 321.46 232.07 323.79 232.68 326.28L234.53 333.84C234.77 334.84 234.16 335.85 233.16 336.1C233.01 336.14 232.86 336.15 232.72 336.15Z" />
					<path id="&lt;Path&gt;" class="shp11" d="M239.69 353.22C239.52 353.22 239.34 353.19 239.16 353.14L233 351.31C232.22 351.08 231.69 350.38 231.67 349.57C231.65 348.76 232.15 348.03 232.92 347.76L237.79 346.06L229.93 344.97C229.06 344.85 228.39 344.14 228.32 343.27C228.25 342.4 228.8 341.59 229.64 341.34L235.64 339.5L227.74 339.5C226.71 339.5 225.88 338.67 225.88 337.64C225.88 336.61 226.71 335.77 227.74 335.77L248.15 335.77C249.08 335.77 249.86 336.45 250 337.36C250.14 338.28 249.58 339.15 248.7 339.42L238.83 342.43L245.97 343.42C246.83 343.54 247.49 344.22 247.57 345.08C247.66 345.94 247.15 346.74 246.33 347.03L239.6 349.38L240.22 349.56C241.21 349.85 241.77 350.89 241.48 351.88C241.24 352.69 240.5 353.22 239.69 353.22Z" />
					<path id="&lt;Compound Path&gt;" fill-rule="evenodd" class="shp11" d="M236.27 327.01C235.49 327.01 234.76 326.51 234.5 325.73C227.4 304.12 227.4 303.26 227.4 302.9C227.4 301.87 228.24 301.03 229.27 301.03C230.24 301.03 231.03 301.77 231.12 302.72C231.42 304.19 235.51 316.85 238.05 324.56C238.37 325.54 237.84 326.6 236.86 326.92C236.66 326.98 236.47 327.01 236.27 327.01ZM231.13 302.9L231.15 302.9L231.13 302.9Z" />
					<path id="&lt;Path&gt;" class="shp11" d="M239.63 323.66C239.45 323.66 239.27 323.63 239.09 323.58C238.1 323.29 237.54 322.25 237.84 321.26L243.93 300.84C244.23 299.86 245.26 299.29 246.25 299.59C247.24 299.88 247.8 300.92 247.5 301.91L241.41 322.33C241.17 323.14 240.43 323.66 239.63 323.66Z" />
					<path id="&lt;Path&gt;" class="shp11" d="M239.62 302.39L233.97 302.39C232.94 302.39 232.11 301.56 232.11 300.52C232.11 299.49 232.94 298.66 233.97 298.66L239.62 298.66C240.65 298.66 241.49 299.49 241.49 300.52C241.49 301.56 240.65 302.39 239.62 302.39Z" />
				</g>
			</g>
			<g id="&lt;Group&gt;">
				<path id="&lt;Compound Path&gt;" fill-rule="evenodd" class="shp11" d="M581.36 371.01C563.65 371.01 544.35 369.64 531.59 367.05C521.97 365.09 516.91 362.65 516.14 359.59C513.47 349.04 504.77 269.91 519.15 257.48C519.33 257.32 519.56 257.26 519.79 257.25C531.7 257.67 636.33 261.63 642.73 270.04C649.66 279.14 630.62 356.44 624.07 365.08C621.03 369.1 602.3 371.01 581.36 371.01ZM520.11 259.13C507.71 270.99 514.81 346.71 517.95 359.14C518.2 360.16 520.09 362.8 531.97 365.22C560.28 370.98 617.87 370.18 622.59 363.95C629.74 354.51 646.72 278.36 641.25 271.17C636.82 265.35 566.52 260.79 520.11 259.13Z" />
				<g id="&lt;Group&gt;">
					<g id="&lt;Group&gt;">
						<path id="&lt;Compound Path&gt;" fill-rule="evenodd" class="shp11" d="M587.1 358.18C586.21 358.18 585.38 357.67 584.97 356.84L582.69 352.13C580.25 351.78 577.88 351.11 575.6 350.15L571.21 353C570.34 353.55 569.24 353.5 568.44 352.87L562.55 348.25C561.76 347.63 561.44 346.56 561.77 345.6L563.48 340.65C562 338.67 560.79 336.52 559.87 334.24L554.75 333.15C553.76 332.93 553.02 332.12 552.89 331.12L551.99 323.67C551.86 322.66 552.4 321.68 553.32 321.24L558.01 318.95C558.37 316.52 559.03 314.14 559.99 311.87L557.15 307.47C556.6 306.62 556.65 305.51 557.27 304.71L561.89 298.81C562.52 298.01 563.59 297.7 564.55 298.04L569.49 299.74C571.47 298.27 573.62 297.05 575.9 296.13L576.99 291.01C577.21 290.02 578.03 289.27 579.04 289.15L586.47 288.25C587.48 288.13 588.45 288.66 588.89 289.57L591.18 294.27C593.62 294.63 595.99 295.29 598.27 296.25L602.66 293.41C603.52 292.86 604.63 292.91 605.43 293.54L611.32 298.16C612.11 298.78 612.43 299.85 612.1 300.8L610.39 305.75C611.86 307.73 613.07 309.88 614 312.16L619.12 313.26C620.11 313.47 620.86 314.29 620.98 315.3L621.88 322.74C622 323.74 621.47 324.72 620.57 325.16L615.85 327.45C615.5 329.89 614.84 332.27 613.88 334.54L616.72 338.94C617.27 339.79 617.22 340.9 616.59 341.69L611.97 347.59C611.35 348.39 610.28 348.71 609.32 348.37L604.38 346.66C602.4 348.14 600.25 349.35 597.97 350.28L596.87 355.4C596.67 356.38 595.85 357.14 594.83 357.26L587.4 358.16C587.3 358.17 587.2 358.18 587.1 358.18ZM575.29 345.91L576.22 346.35C578.73 347.51 581.39 348.26 584.13 348.56L585.15 348.67L587.91 354.34L593.43 353.67L594.75 347.5L595.72 347.15C598.31 346.2 600.71 344.84 602.87 343.11L603.67 342.47L609.63 344.53L613.06 340.15L609.64 334.85L610.07 333.92C611.23 331.41 611.98 328.75 612.28 326.01L612.39 324.99L618.06 322.23L617.39 316.71L611.23 315.38L610.87 314.42C609.93 311.83 608.57 309.42 606.84 307.27L606.19 306.46L608.26 300.5L603.88 297.07L598.58 300.49L597.65 300.06C595.14 298.89 592.48 298.15 589.74 297.85L588.72 297.74L585.96 292.07L580.44 292.74L579.12 298.9L578.15 299.26C575.57 300.2 573.16 301.56 571 303.29L570.2 303.94L564.24 301.88L560.81 306.25L564.23 311.55L563.8 312.49C562.63 315 561.89 317.66 561.59 320.39L561.48 321.42L555.81 324.18L556.48 329.7L562.64 331.02L563 331.99C563.94 334.57 565.3 336.98 567.03 339.14L567.67 339.94L565.61 345.91L569.99 349.34L575.29 345.91ZM586.79 343.06C576.85 343.06 568.23 335.62 567.01 325.52C566.37 320.23 567.82 315.01 571.11 310.81C574.39 306.62 579.11 303.96 584.4 303.32C595.32 301.99 605.27 309.8 606.59 320.71C606.76 322.12 606.79 323.55 606.66 324.96C606.56 325.98 605.64 326.74 604.63 326.65C603.6 326.55 602.85 325.64 602.94 324.62C603.05 323.47 603.03 322.31 602.89 321.16C601.81 312.29 593.72 305.95 584.85 307.02C575.98 308.1 569.64 316.19 570.71 325.07C571.23 329.37 573.4 333.2 576.8 335.87C580.21 338.55 584.45 339.73 588.75 339.21C591.67 338.86 594.43 337.72 596.73 335.93C597.55 335.29 598.72 335.44 599.35 336.25C599.98 337.07 599.84 338.24 599.02 338.87C596.18 341.08 592.79 342.48 589.2 342.91C588.39 343.01 587.58 343.06 586.79 343.06ZM593.23 354.61C593.23 354.61 593.22 354.62 593.22 354.62L593.23 354.61ZM586.95 354.45L586.94 354.46L586.95 354.45ZM570.74 349.93L570.75 349.93C570.74 349.93 570.74 349.93 570.74 349.93ZM610.54 344.84L610.54 344.85C610.54 344.84 610.54 344.84 610.54 344.84ZM554.95 324.59L554.94 324.6C554.94 324.6 554.95 324.6 554.95 324.59ZM560.28 305.44L560.28 305.44C560.28 305.44 560.28 305.44 560.28 305.44M563.32 301.56C563.33 301.56 563.33 301.56 563.33 301.56L563.32 301.56ZM603.12 296.47C603.12 296.47 603.12 296.48 603.13 296.48L603.12 296.47ZM579.49 292.85L579.48 292.85C579.48 292.85 579.48 292.85 579.49 292.85" />
						<path id="&lt;Compound Path&gt;" fill-rule="evenodd" class="shp11" d="M586.94 331.72C583.52 331.72 580.29 329.65 578.99 326.27C578.17 324.14 578.23 321.83 579.15 319.75C580.07 317.67 581.75 316.07 583.87 315.25C585.99 314.44 588.3 314.49 590.39 315.42C592.47 316.34 594.06 318.02 594.88 320.14C595.7 322.26 595.64 324.58 594.72 326.66C593.8 328.74 592.12 330.33 590 331.15C588.99 331.54 587.96 331.72 586.94 331.72ZM586.94 318.41C586.35 318.41 585.77 318.52 585.21 318.74C584.02 319.2 583.08 320.09 582.56 321.26C582.04 322.43 582.01 323.73 582.47 324.92C582.93 326.12 583.83 327.06 584.99 327.58C586.16 328.1 587.46 328.13 588.66 327.67C589.85 327.21 590.79 326.31 591.31 325.14C591.83 323.98 591.86 322.67 591.4 321.48L591.4 321.48C590.94 320.29 590.04 319.35 588.87 318.83C588.25 318.55 587.59 318.41 586.94 318.41Z" />
					</g>
					<g id="&lt;Group&gt;">
						<path id="&lt;Compound Path&gt;" fill-rule="evenodd" class="shp11" d="M533.66 309.75C533.46 309.75 533.26 309.71 533.06 309.63L529.71 308.33C529.05 308.07 528.64 307.43 528.66 306.74L528.75 304.48C527.91 303.84 527.16 303.12 526.48 302.32L524.23 302.5C523.54 302.57 522.87 302.17 522.59 301.53L521.14 298.23C520.85 297.58 521.01 296.83 521.53 296.35L523.18 294.82C523.04 293.78 523.02 292.74 523.11 291.69L521.39 290.23C520.85 289.78 520.66 289.03 520.92 288.37L522.22 285.02C522.47 284.37 523.14 283.98 523.81 283.97L526.07 284.06C526.71 283.22 527.43 282.47 528.23 281.79L528.04 279.54C527.99 278.84 528.38 278.18 529.02 277.9L532.32 276.45C532.96 276.16 533.7 276.32 534.18 276.83L535.72 278.49C536.76 278.35 537.81 278.33 538.85 278.42L540.31 276.69C540.76 276.16 541.5 275.97 542.16 276.22L545.52 277.53C546.17 277.77 546.59 278.41 546.57 279.12L546.48 281.38C547.32 282.02 548.08 282.74 548.75 283.54L551 283.35C551.69 283.29 552.36 283.69 552.64 284.33L554.09 287.63C554.38 288.28 554.22 289.03 553.7 289.5L552.05 291.03C552.19 292.07 552.21 293.12 552.12 294.17L553.84 295.62C554.38 296.08 554.57 296.82 554.32 297.47L553.01 300.84C552.77 301.47 552.16 301.89 551.48 301.89C551.46 301.89 551.44 301.89 551.42 301.89L549.16 301.8C548.52 302.63 547.8 303.39 547 304.07L547.19 306.31C547.24 307.01 546.85 307.67 546.21 307.96L542.92 309.41C542.27 309.69 541.52 309.54 541.05 309.03L539.51 307.37C538.47 307.51 537.42 307.53 536.38 307.44L534.92 309.16C534.6 309.54 534.14 309.75 533.66 309.75ZM531.49 306.02L533.31 306.73L535.22 304.47L535.99 304.58C537.25 304.76 538.52 304.73 539.77 304.5L540.53 304.35L542.54 306.52L544.33 305.73L544.08 302.79L544.7 302.32C545.72 301.56 546.59 300.63 547.31 299.58L547.75 298.94L550.7 299.06L551.41 297.23L549.16 295.32L549.26 294.56C549.44 293.29 549.41 292.02 549.18 290.77L549.04 290.01L551.2 288L550.41 286.21L547.47 286.46L547 285.84C546.24 284.83 545.32 283.95 544.27 283.22L543.63 282.79L543.74 279.84L541.92 279.13L540.01 281.38L539.24 281.28C537.98 281.1 536.71 281.13 535.46 281.36L534.7 281.5L532.69 279.34L530.9 280.13L531.15 283.07L530.53 283.54C529.52 284.3 528.64 285.22 527.92 286.27L527.48 286.91L524.53 286.8L523.82 288.63L526.08 290.53L525.97 291.3C525.79 292.56 525.82 293.84 526.05 295.08L526.19 295.84L524.03 297.85L524.82 299.64L527.76 299.4L528.23 300.02C528.99 301.03 529.91 301.91 530.96 302.63L531.6 303.07L531.49 306.02ZM537.56 303C533.68 303 529.97 300.75 528.31 296.98C527.22 294.51 527.16 291.77 528.13 289.26C529.11 286.74 531 284.76 533.47 283.67C538.56 281.42 544.53 283.74 546.77 288.83C547.07 289.49 547.29 290.18 547.43 290.88C547.58 291.64 547.1 292.38 546.34 292.53C545.58 292.68 544.84 292.2 544.69 291.44C544.58 290.94 544.42 290.44 544.21 289.96C542.59 286.28 538.28 284.61 534.6 286.23C532.82 287.02 531.45 288.45 530.74 290.27C530.04 292.09 530.08 294.07 530.87 295.85C532.49 299.53 536.8 301.2 540.48 299.58C541.69 299.05 542.74 298.2 543.49 297.12C543.94 296.49 544.81 296.34 545.44 296.79C546.07 297.24 546.23 298.11 545.78 298.74C544.73 300.23 543.29 301.4 541.61 302.14C540.29 302.72 538.91 303 537.56 303ZM534.07 307.02L534.08 307.02C534.08 307.02 534.08 307.02 534.07 307.02ZM550.41 299.82C550.41 299.82 550.4 299.82 550.4 299.83L550.41 299.82ZM523.43 298.4L523.43 298.41C523.43 298.41 523.43 298.41 523.43 298.4ZM523.53 289.38L523.52 289.39C523.53 289.39 523.53 289.38 523.53 289.38ZM523.18 288.09L523.2 288.1C523.19 288.1 523.19 288.09 523.18 288.09ZM551.8 287.45C551.8 287.45 551.8 287.45 551.8 287.45L551.8 287.45ZM544.5 280.13C544.51 280.13 544.51 280.14 544.52 280.14L544.5 280.13ZM542.45 278.5L542.45 278.5C542.45 278.5 542.45 278.5 542.45 278.5Z" />
					</g>
				</g>
			</g>
			<g id="&lt;Group&gt;">
				<path id="&lt;Compound Path&gt;" fill-rule="evenodd" class="shp11" d="M418.67 370.91C400.96 370.91 381.66 369.55 368.9 366.96C359.27 365 354.21 362.56 353.44 359.5C350.78 348.95 342.08 269.81 356.45 257.38C356.63 257.23 356.87 257.17 357.1 257.16C369 257.58 473.63 261.54 480.03 269.95C486.96 279.05 467.92 356.35 461.37 364.99C458.33 369.01 439.61 370.91 418.67 370.91ZM357.41 259.04C345.01 270.89 352.11 346.62 355.25 359.04C355.51 360.07 357.39 362.71 369.27 365.13C397.58 370.89 455.17 370.08 459.89 363.86C467.05 354.42 484.02 278.26 478.55 271.07C474.12 265.26 403.83 260.7 357.41 259.04Z" />
				<path id="&lt;Compound Path&gt;" fill-rule="evenodd" class="shp11" d="M381.54 349.66L373.14 349.66C372.11 349.66 371.28 348.82 371.28 347.79L371.28 322.67C371.28 321.64 372.11 320.81 373.14 320.81L381.54 320.81C382.57 320.81 383.4 321.64 383.4 322.67L383.4 347.79C383.4 348.82 382.57 349.66 381.54 349.66ZM375.01 345.93L379.67 345.93L379.67 324.54L375.01 324.54L375.01 345.93Z" />
				<path id="&lt;Compound Path&gt;" fill-rule="evenodd" class="shp11" d="M398.08 349.66L386.61 349.66C385.58 349.66 384.74 348.82 384.74 347.79L384.74 306.33C384.74 305.29 385.58 304.46 386.61 304.46L398.08 304.46C399.11 304.46 399.95 305.29 399.95 306.33L399.95 347.79C399.95 348.82 399.11 349.66 398.08 349.66ZM388.47 345.93L396.22 345.93L396.22 308.19L388.47 308.19L388.47 345.93Z" />
				<path id="&lt;Compound Path&gt;" fill-rule="evenodd" class="shp11" d="M419.71 349.66L403.78 349.66C402.75 349.66 401.91 348.82 401.91 347.79L401.91 297.55C401.91 296.52 402.75 295.69 403.78 295.69L419.71 295.69C420.74 295.69 421.57 296.52 421.57 297.55L421.57 347.79C421.57 348.82 420.74 349.66 419.71 349.66ZM405.65 345.93L417.84 345.93L417.84 299.42L405.65 299.42L405.65 345.93Z" />
				<path id="&lt;Compound Path&gt;" fill-rule="evenodd" class="shp11" d="M448.53 349.66L429.46 349.66C428.43 349.66 427.6 348.82 427.6 347.79L427.6 287.01C427.6 285.98 428.43 285.14 429.46 285.14L448.53 285.14C449.56 285.14 450.4 285.98 450.4 287.01L450.4 347.79C450.4 348.82 449.56 349.66 448.53 349.66ZM431.33 345.93L446.67 345.93L446.67 288.88L431.33 288.88L431.33 345.93Z" />
			</g>
			<g id="&lt;Group&gt;">
				<g id="&lt;Group&gt;">
					<g id="&lt;Group&gt;">
						<path id="&lt;Path&gt;" class="shp14" d="M651.64 581.62L643.95 581.62L643.95 498.38L651.64 498.38L651.64 581.62Z" />
					</g>
					<g id="&lt;Group&gt;">
						<path id="&lt;Path&gt;" class="shp15" d="M681.49 583.22L614.1 583.22L614.1 580.88C614.1 579.41 615.29 578.21 616.76 578.21L678.62 578.21C680.21 578.21 681.49 579.5 681.49 581.09L681.49 583.22Z" />
					</g>
					<path id="&lt;Path&gt;" class="shp16" d="M694.24 495.31C694.24 500.15 690.28 504.11 685.44 504.11L612.98 504.11C608.14 504.11 604.18 500.15 604.18 495.31L604.18 487.36C604.18 482.52 608.14 478.56 612.98 478.56L685.44 478.56C690.28 478.56 694.24 482.52 694.24 487.36L694.24 495.31Z" />
				</g>
				<g id="&lt;Group&gt;">
					<path id="&lt;Path&gt;" class="shp17" d="M604.94 566.87C590.29 577.43 584.24 586.26 586.78 593.36C602.81 586.44 611.79 580.26 613.73 574.81C615.66 569.36 615.5 565.43 613.23 563.03L604.94 566.87Z" />
					<path id="&lt;Path&gt;" class="shp18" d="M608.24 553.6L611.83 563.99C612.37 565.55 611.83 567.34 610.43 568.23C609.73 568.67 608.77 569.08 607.46 569.38C605.61 569.8 603.7 568.94 602.81 567.26L598.51 559.17L608.24 553.6Z" />
					<path id="&lt;Path&gt;" class="shp19" d="M643.2 460.08C613.12 465.3 591.62 473.87 578.71 485.79C565.81 497.72 571.73 522.7 596.48 560.75C600.54 560.72 605.02 558.6 609.94 554.39C595.26 525.78 594.25 507.3 606.9 498.96C621.12 489.58 636.42 483.83 652.81 481.72L643.64 461.46L643.2 460.08Z" />
					<path id="&lt;Path&gt;" class="shp20" d="M590.6 587.47C595.43 585.23 609.11 575.66 611.42 575.23C612.96 574.95 615.06 575.71 617.73 577.52C618.37 578.69 618.35 580.29 617.66 582.32C614.45 586.21 607.32 593.62 597.73 596.38C590.68 598.41 585.75 596.52 582.68 594.3C584.37 591.73 587.38 588.96 590.6 587.47Z" />
					<path id="&lt;Path&gt;" class="shp21" d="M597.73 596.38C607.32 593.62 614.45 586.21 617.66 582.32C616.96 584.39 615.33 587.05 611.87 590.16C603.27 597.89 586.86 600.67 583.36 600.14C580.56 599.71 580.83 597.12 582.68 594.3C585.75 596.52 590.68 598.41 597.73 596.38Z" />
					<path id="&lt;Path&gt;" class="shp22" d="M621.82 570.76C621.77 572.09 619.05 576.66 617.46 579.22C616.7 580.44 615.38 581.18 613.95 581.19C613.04 581.19 611.99 581.11 611.04 580.84C609.62 580.43 608.82 578.91 609.23 577.49L612.34 566.87L621.82 570.76Z" />
					<path id="&lt;Path&gt;" class="shp23" d="M686.64 446.53C693.33 464.4 693.33 476.06 686.64 481.49C676.62 489.64 652.71 498.82 647.37 515.06C642.03 531.3 632.97 562.85 620.84 574.03C615.15 573.48 611.25 572.07 609.12 569.81C613.73 538.4 617.55 518.67 620.59 510.61C624.54 500.14 630.35 485.03 641.49 476.59C644.68 474.17 644.12 470.34 642.64 466.62L639.95 459.85L686.64 446.53Z" />
					<path id="&lt;Path&gt;" class="shp24" d="M582.11 425.52C598.92 426.53 593.68 399.68 593.38 398.61L618.89 416.63C617.99 426.2 610.47 433.5 596.33 438.52C590.96 440.43 586.06 440.51 581.73 439.58C583.57 434.19 583.2 429.35 582.11 425.52Z" />
					<path id="&lt;Path&gt;" class="shp25" d="M549.62 417.44C553.8 414.53 558.25 414.53 562.98 417.44C571.35 422.91 577.55 425.24 582.11 425.52C583.2 429.35 583.57 434.19 581.73 439.58C572.35 437.57 565.64 430.78 562.72 427.29C561.67 426.04 559.81 425.82 558.53 426.83C557.22 427.86 555.96 429.27 556.19 430.76C556.64 433.68 553.24 434.61 552.99 433.55C552.82 432.85 553.2 430.39 554.15 426.2C549.62 430.75 546.47 433.9 544.71 435.65C542.94 437.4 540.94 437.4 538.72 435.65C541.81 426.41 545.45 420.34 549.62 417.44Z" />
					<path id="&lt;Path&gt;" class="shp26" d="M660.47 357.13C644.18 350.61 620.86 359.87 590.53 384.92C587.99 390.16 588.11 395.12 590.87 399.79C595.02 406.79 634.52 440.92 639.95 459.85C655.64 464.95 671.6 461.45 687.83 449.36C686.39 414.24 677.28 383.5 660.47 357.13Z" />
					<path id="&lt;Path&gt;" class="shp27" d="M612.14 348.4L624.18 362.99C625.37 364.44 625.64 366.45 624.81 368.14C623.14 371.55 619.18 376.51 610.38 375.83C607.77 375.62 605.45 374.04 604.31 371.68L595.9 354.28L612.14 348.4Z" />
					<path id="&lt;Path&gt;" class="shp28" d="M679.4 419.64C681.29 411.93 672.66 399.49 653.49 382.3L660.47 357.13C701.86 384.69 717.28 409.55 706.73 431.71C704.46 436.48 701.45 439.82 697.96 442.05C692.96 428.59 685 422.42 679.4 419.64Z" />
					<path id="&lt;Path&gt;" class="shp29" d="M679.42 417.96C679.73 417.96 680.01 417.75 680.08 417.44C682.98 405.62 655.15 380.5 653.97 379.43C653.69 379.18 653.26 379.21 653.01 379.48C652.76 379.76 652.78 380.19 653.06 380.44C653.34 380.7 681.47 406.08 678.76 417.12C678.67 417.48 678.9 417.85 679.26 417.94C679.31 417.95 679.37 417.96 679.42 417.96Z" />
					<path id="&lt;Path&gt;" class="shp30" d="M635.86 418.65C658.58 427.47 672.72 428.56 678.26 421.93C678.83 421.25 679.2 420.48 679.4 419.64C685 422.42 692.96 428.59 697.96 442.05C680.03 453.51 649.39 435.68 641.11 430.42C639.74 429.55 638.11 429.25 636.53 429.58C633.33 430.24 627.81 431.22 624.83 430.76C620.48 430.09 614.22 445.45 607.16 440.71C611.19 422.9 620.76 415.55 635.86 418.65Z" />
					<g id="&lt;Group&gt;">
						<path id="&lt;Path&gt;" class="shp31" d="M585.95 326.96C585.87 327.27 586.81 338.06 588.78 359.33L606.95 357.26L608.65 326.61C594.87 321.61 587.31 321.72 585.95 326.96Z" />
						<path id="&lt;Path&gt;" class="shp32" d="M603.92 332.96L604.29 349.17C604.29 349.38 604.27 349.58 604.22 349.78C603.9 351.01 602.5 355.17 598.33 353.48C594.55 351.95 591.08 350.6 588.52 351.09C587.38 351.31 586.58 352.36 586.69 353.52C586.96 356.42 587.68 362.94 589.18 368.51C589.48 369.64 590.6 370.34 591.76 370.14C595.23 369.52 602.51 368.03 608.09 365.45C608.85 365.1 609.35 364.38 609.41 363.55C609.68 359.5 610.56 347.19 611.33 343.79C612.06 340.61 616.22 339.11 618.02 338.61C618.61 338.44 619.1 338.05 619.39 337.51C620.4 335.6 622.01 331.1 616.4 328.57C615.22 328.04 614.72 326.66 615.29 325.5C616.41 323.19 617.18 319.57 612.9 317.06C608.55 314.51 604.87 316.57 602.8 318.35C601.97 319.07 600.76 319.06 599.9 318.38C599.41 317.98 598.74 317.8 597.86 318.22C596.68 318.79 595.27 318.16 594.83 316.93C593.98 314.56 592.01 311.9 587.45 312.18C579.35 312.67 577.49 321.38 579.02 326.77C580.55 332.16 589.29 331.13 593.86 329C597.33 327.38 601.33 329.92 603.04 331.22C603.58 331.64 603.9 332.28 603.92 332.96Z" />
						<path id="&lt;Path&gt;" class="shp33" d="M611.4 349.7C609.9 343.36 610.34 339.56 612.74 338.31C616.35 336.44 621.19 338.15 619.37 344.66C617.86 350.06 615.2 351.74 611.4 349.7Z" />
					</g>
				</g>
				<g id="&lt;Group&gt;">
					<path id="&lt;Path&gt;" class="shp34" d="M618.4 444.75C618.34 444.75 618.29 444.75 618.23 444.75L546.72 444.67C544.95 444.67 543.52 443.24 543.52 441.47C543.52 439.7 544.96 438.24 546.73 438.27L618.24 438.35C620.01 438.35 621.44 439.79 621.44 441.55C621.44 443.27 620.09 444.67 618.4 444.75Z" />
					<path id="&lt;Path&gt;" class="shp35" d="M482.43 379.8L541.99 379.8C546.38 379.8 550.38 382.34 552.26 386.31L579.79 444.71L505.77 444.71C502.94 444.71 500.4 442.98 499.36 440.35L478.01 386.31C476.77 383.18 479.07 379.8 482.43 379.8Z" />
					<path id="&lt;Path&gt;" class="shp36" d="M524.39 409.74C525.68 413.75 524.73 417.65 522.26 418.44C519.79 419.24 516.75 416.63 515.46 412.62C514.17 408.61 515.12 404.71 517.59 403.92C520.05 403.12 523.1 405.73 524.39 409.74Z" />
				</g>
				<g id="&lt;Group&gt;">
					<g id="&lt;Group&gt;">
						<path id="&lt;Path&gt;" class="shp37" d="M492.09 598.18C491.69 598.18 491.29 598.1 490.9 597.94C489.38 597.31 488.67 595.6 489.33 594.12L552.35 452.23C553.01 450.75 554.78 450.07 556.3 450.71C557.83 451.34 558.53 453.05 557.88 454.53L494.85 596.42C494.36 597.52 493.25 598.18 492.09 598.18Z" />
						<path id="&lt;Path&gt;" class="shp38" d="M563.09 598.18C561.92 598.18 560.82 597.52 560.33 596.42L497.3 454.53C496.64 453.05 497.35 451.34 498.87 450.71C500.4 450.07 502.16 450.75 502.82 452.23L565.85 594.12C566.5 595.6 565.8 597.31 564.28 597.94C563.89 598.1 563.49 598.18 563.09 598.18Z" />
						<path id="&lt;Path&gt;" class="shp39" d="M687.18 598.18C686.79 598.18 686.38 598.1 686 597.94C684.47 597.31 683.77 595.6 684.42 594.12L747.45 452.23C748.1 450.75 749.87 450.07 751.4 450.71C752.92 451.34 753.63 453.05 752.97 454.53L689.94 596.42C689.45 597.52 688.35 598.18 687.18 598.18Z" />
						<path id="&lt;Path&gt;" class="shp40" d="M758.18 598.18C757.02 598.18 755.91 597.52 755.42 596.42L692.39 454.53C691.74 453.05 692.44 451.34 693.97 450.71C695.49 450.07 697.26 450.75 697.92 452.23L760.94 594.12C761.6 595.6 760.89 597.31 759.37 597.94C758.98 598.1 758.58 598.18 758.18 598.18Z" />
					</g>
					<path id="&lt;Path&gt;" class="shp41" d="M765.58 447.85C765.74 446.92 765.52 445.96 764.98 445.22C764.44 444.49 763.64 444.07 762.79 444.07L476.07 444.07C474.95 444.07 473.92 444.7 473.32 445.75C472.72 446.81 472.64 448.13 473.1 449.26L476.21 456.79C476.92 458.51 478.46 459.62 480.16 459.62L760.82 459.62C762.4 459.62 763.76 458.36 764.06 456.63L765.58 447.85Z" />
				</g>
			</g>
			<g id="&lt;Group&gt;">
				<g id="&lt;Group&gt;">
					<path id="&lt;Path&gt;" class="shp42" d="M681.72 148.02L672.55 161.86L667.13 149.7L681.72 148.02Z" />
					<path id="&lt;Path&gt;" class="shp43" d="M624.78 98.85L640.42 156.38C640.72 157.49 641.46 158.42 642.46 158.97C643.46 159.52 644.64 159.63 645.73 159.29L702.89 141.41C703.54 141.2 704.01 140.62 704.06 139.94C704.12 139.25 703.76 138.6 703.14 138.3L624.78 98.85Z" />
					<path id="&lt;Path&gt;" class="shp44" d="M681.72 148.02L624.78 98.85L672.5 150.93L670.12 154.88L681.72 148.02Z" />
					<path id="&lt;Path&gt;" class="shp45" d="M667.02 152.62L672.55 161.86L672.5 150.93L667.02 152.62Z" />
				</g>
				<g id="&lt;Group&gt;">
					<path id="&lt;Path&gt;" class="shp46" d="M486.99 429.02L485.59 430.26C485.39 430.44 485.07 430.42 484.89 430.22C484.71 430.01 484.73 429.7 484.93 429.52C484.94 429.51 484.94 429.51 484.95 429.51L486.38 428.32C486.58 428.15 486.87 428.18 487.04 428.38C487.2 428.57 487.18 428.86 486.99 429.02Z" />
					<path id="&lt;Path&gt;" class="shp46" d="M478.38 436.23L476.91 437.37C476.61 437.6 476.19 437.55 475.97 437.26C475.74 436.97 475.79 436.54 476.08 436.32C476.09 436.31 476.09 436.31 476.1 436.3L477.61 435.2C477.89 434.99 478.29 435.06 478.5 435.34C478.71 435.62 478.65 436.02 478.38 436.23Z" />
					<path id="&lt;Path&gt;" class="shp46" d="M469.37 442.94L467.84 444.01C467.46 444.27 466.93 444.18 466.66 443.8C466.4 443.42 466.49 442.89 466.87 442.62C466.88 442.62 466.89 442.61 466.89 442.61L468.45 441.58C468.83 441.34 469.34 441.44 469.58 441.82C469.83 442.19 469.73 442.68 469.37 442.94Z" />
					<path id="&lt;Path&gt;" class="shp46" d="M460.06 449.21L458.48 450.22C458.01 450.52 457.38 450.38 457.07 449.91C456.77 449.43 456.91 448.8 457.38 448.5C457.39 448.49 457.4 448.49 457.41 448.48L459.01 447.53C459.48 447.25 460.09 447.4 460.37 447.87C460.65 448.33 460.5 448.93 460.06 449.21Z" />
					<path id="&lt;Path&gt;" class="shp46" d="M450.47 455.07L448.86 456.01C448.32 456.32 447.63 456.13 447.32 455.6C447.01 455.06 447.19 454.37 447.73 454.06C447.73 454.06 447.74 454.05 447.74 454.05L449.37 453.14C449.91 452.84 450.58 453.03 450.88 453.57C451.18 454.1 450.99 454.76 450.47 455.07Z" />
					<path id="&lt;Path&gt;" class="shp46" d="M440.69 460.58L439.04 461.46C438.45 461.78 437.71 461.56 437.39 460.97C437.06 460.37 437.29 459.63 437.88 459.31C437.89 459.31 437.9 459.3 437.9 459.3L439.56 458.44C440.15 458.14 440.88 458.37 441.18 458.96C441.49 459.55 441.26 460.27 440.69 460.58Z" />
					<path id="&lt;Path&gt;" class="shp46" d="M430.74 465.8L429.08 466.64C428.43 466.97 427.63 466.7 427.3 466.05C426.97 465.4 427.24 464.6 427.89 464.28C427.89 464.27 427.9 464.27 427.91 464.27L429.59 463.45C430.24 463.14 431.02 463.41 431.33 464.06C431.64 464.7 431.38 465.48 430.74 465.8Z" />
					<path id="&lt;Path&gt;" class="shp46" d="M420.68 470.75L418.98 471.54C418.27 471.87 417.43 471.56 417.1 470.86C416.78 470.15 417.08 469.31 417.79 468.98L417.8 468.98L419.49 468.21L419.5 468.2C420.21 467.88 421.04 468.19 421.36 468.9C421.68 469.6 421.38 470.43 420.68 470.75Z" />
					<path id="&lt;Path&gt;" class="shp46" d="M410.31 475.22L408.58 475.9C407.84 476.19 407.01 475.82 406.72 475.09C406.44 474.35 406.8 473.52 407.54 473.23L407.54 473.23L409.28 472.56C410.01 472.27 410.84 472.63 411.13 473.37C411.41 474.11 411.05 474.94 410.31 475.22Z" />
					<path id="&lt;Path&gt;" class="shp46" d="M399.75 479.11L397.98 479.71C397.23 479.96 396.41 479.56 396.15 478.8C395.9 478.05 396.3 477.23 397.06 476.97L397.06 476.97L398.83 476.38C399.58 476.12 400.4 476.53 400.65 477.28C400.91 478.04 400.51 478.85 399.75 479.11Z" />
					<path id="&lt;Path&gt;" class="shp46" d="M389.05 482.55L387.26 483.09C386.49 483.32 385.68 482.88 385.45 482.11C385.22 481.34 385.66 480.53 386.43 480.3L386.43 480.3L388.22 479.77C388.99 479.54 389.8 479.98 390.02 480.75C390.25 481.52 389.82 482.32 389.05 482.55Z" />
					<path id="&lt;Path&gt;" class="shp46" d="M378.24 485.64L376.44 486.12C375.66 486.33 374.86 485.86 374.65 485.08C374.44 484.3 374.9 483.49 375.69 483.28L375.69 483.28L377.49 482.8C378.27 482.6 379.07 483.06 379.28 483.85C379.49 484.63 379.03 485.43 378.24 485.64Z" />
					<path id="&lt;Path&gt;" class="shp46" d="M367.36 488.41L365.55 488.84C364.75 489.03 363.96 488.54 363.77 487.75C363.58 486.96 364.07 486.16 364.86 485.97L364.86 485.97L366.68 485.54C367.47 485.35 368.27 485.84 368.45 486.63C368.64 487.43 368.15 488.22 367.36 488.41Z" />
					<path id="&lt;Path&gt;" class="shp46" d="M356.42 490.91L354.59 491.31C353.79 491.48 353 490.97 352.83 490.16C352.65 489.36 353.17 488.57 353.97 488.39L353.97 488.39L355.8 488.01C356.6 487.83 357.39 488.35 357.56 489.15C357.73 489.95 357.22 490.74 356.42 490.91Z" />
					<path id="&lt;Path&gt;" class="shp46" d="M345.42 493.17L343.59 493.53C342.78 493.68 341.99 493.15 341.84 492.34C341.68 491.52 342.21 490.74 343.02 490.58L343.03 490.58L344.86 490.23C345.67 490.08 346.46 490.61 346.61 491.42C346.77 492.24 346.24 493.02 345.42 493.17Z" />
					<path id="&lt;Path&gt;" class="shp46" d="M334.39 495.21L332.55 495.53C331.73 495.67 330.95 495.12 330.8 494.3C330.66 493.47 331.21 492.69 332.04 492.55L332.04 492.55L333.88 492.23C334.7 492.09 335.48 492.65 335.62 493.47C335.76 494.29 335.21 495.07 334.39 495.21Z" />
					<path id="&lt;Path&gt;" class="shp46" d="M323.24 497.05L321.4 497.33C320.57 497.46 319.79 496.89 319.66 496.06C319.53 495.23 320.1 494.45 320.93 494.32L320.94 494.32L322.78 494.04C323.61 493.91 324.39 494.49 324.51 495.32C324.64 496.15 324.07 496.92 323.24 497.05Z" />
					<path id="&lt;Path&gt;" class="shp46" d="M311.96 498.7L310.11 498.95C309.27 499.06 308.5 498.48 308.39 497.64C308.27 496.8 308.86 496.02 309.7 495.91L309.7 495.91L311.55 495.66C312.39 495.55 313.16 496.14 313.27 496.98C313.39 497.82 312.8 498.59 311.96 498.7Z" />
					<path id="&lt;Path&gt;" class="shp46" d="M300.83 500.13L298.98 500.35C298.13 500.45 297.36 499.85 297.26 499C297.16 498.15 297.77 497.38 298.62 497.28L298.62 497.28L300.47 497.06C301.32 496.96 302.09 497.57 302.18 498.42C302.28 499.27 301.68 500.03 300.83 500.13Z" />
					<path id="&lt;Path&gt;" class="shp46" d="M289.69 501.38L287.83 501.57C286.97 501.66 286.21 501.03 286.12 500.18C286.03 499.32 286.66 498.56 287.51 498.47L287.52 498.47L289.37 498.28C290.23 498.2 290.99 498.82 291.07 499.68C291.16 500.53 290.54 501.29 289.69 501.38Z" />
					<path id="&lt;Path&gt;" class="shp46" d="M278.52 502.44L276.66 502.6C275.8 502.68 275.04 502.04 274.96 501.17C274.89 500.31 275.53 499.55 276.39 499.48L276.39 499.48L278.25 499.32C279.11 499.25 279.87 499.89 279.94 500.75C280.02 501.61 279.38 502.37 278.52 502.44Z" />
					<path id="&lt;Path&gt;" class="shp46" d="M267.33 503.33L265.47 503.46C264.6 503.52 263.85 502.86 263.79 501.99C263.73 501.12 264.38 500.36 265.25 500.3L265.26 500.3L267.12 500.18C267.99 500.12 268.74 500.78 268.8 501.65C268.86 502.52 268.2 503.27 267.33 503.33Z" />
					<path id="&lt;Path&gt;" class="shp46" d="M256.14 504.03L254.27 504.13C253.4 504.18 252.65 503.5 252.6 502.63C252.55 501.75 253.23 501 254.1 500.95L254.11 500.95L255.97 500.86C256.85 500.81 257.59 501.49 257.64 502.36C257.68 503.24 257.01 503.99 256.14 504.03Z" />
					<path id="&lt;Path&gt;" class="shp46" d="M244.93 504.55L243.07 504.62C242.18 504.65 241.44 503.96 241.41 503.08C241.37 502.19 242.06 501.45 242.95 501.42L242.95 501.42L244.82 501.35C245.7 501.32 246.44 502.01 246.47 502.9C246.5 503.78 245.81 504.52 244.93 504.55Z" />
					<path id="&lt;Path&gt;" class="shp46" d="M233.72 504.87L231.85 504.91C230.97 504.92 230.25 504.22 230.23 503.34C230.21 502.46 230.91 501.74 231.79 501.72L233.65 501.68C234.54 501.67 235.26 502.36 235.28 503.25C235.3 504.13 234.6 504.85 233.72 504.87L233.72 504.87Z" />
					<path id="&lt;Path&gt;" class="shp46" d="M222.5 505L220.63 505C219.76 505 219.05 504.29 219.05 503.42C219.05 502.55 219.75 501.84 220.62 501.84L222.49 501.83C223.36 501.83 224.08 502.53 224.08 503.41C224.08 504.28 223.37 505 222.5 505L222.5 505Z" />
					<path id="&lt;Path&gt;" class="shp46" d="M211.28 504.93L209.41 504.9C208.54 504.88 207.85 504.17 207.87 503.3C207.88 502.43 208.59 501.74 209.46 501.76L211.32 501.78C212.19 501.8 212.89 502.51 212.87 503.38C212.86 504.25 212.15 504.94 211.28 504.93L211.28 504.93Z" />
					<path id="&lt;Path&gt;" class="shp46" d="M200.06 504.66L198.19 504.59C197.33 504.56 196.66 503.84 196.69 502.98C196.72 502.12 197.44 501.44 198.3 501.47L200.16 501.53C201.03 501.56 201.7 502.29 201.67 503.15C201.64 504.01 200.92 504.69 200.06 504.66L200.06 504.66Z" />
					<path id="&lt;Path&gt;" class="shp46" d="M188.84 504.17L186.98 504.07C186.13 504.03 185.47 503.3 185.52 502.44C185.57 501.59 186.29 500.93 187.15 500.98L189.01 501.08C189.87 501.12 190.52 501.85 190.48 502.71C190.43 503.56 189.7 504.22 188.85 504.17L188.84 504.17Z" />
					<path id="&lt;Path&gt;" class="shp46" d="M177.64 503.47L175.78 503.33C174.94 503.27 174.3 502.53 174.36 501.68C174.43 500.83 175.16 500.2 176.01 500.26L177.87 500.4C178.72 500.46 179.35 501.2 179.29 502.05C179.23 502.89 178.49 503.53 177.65 503.47L177.64 503.47Z" />
					<path id="&lt;Path&gt;" class="shp46" d="M166.46 502.53L164.6 502.35C163.76 502.27 163.15 501.52 163.23 500.68C163.31 499.84 164.05 499.23 164.89 499.31L166.75 499.49C167.59 499.57 168.2 500.31 168.12 501.15C168.04 501.99 167.3 502.61 166.46 502.53L166.46 502.53Z" />
					<path id="&lt;Path&gt;" class="shp46" d="M155.29 501.34L153.44 501.12C152.61 501.02 152.02 500.26 152.11 499.43C152.22 498.6 152.97 498.01 153.8 498.11L155.65 498.33C156.48 498.42 157.08 499.18 156.98 500.01C156.88 500.84 156.13 501.44 155.29 501.34L155.29 501.34Z" />
					<path id="&lt;Path&gt;" class="shp46" d="M144.15 499.88L142.31 499.61C141.49 499.49 140.92 498.73 141.04 497.9C141.16 497.08 141.92 496.51 142.74 496.63L144.59 496.9C145.41 497.02 145.98 497.78 145.86 498.6C145.74 499.43 144.98 500 144.16 499.88L144.15 499.88Z" />
					<path id="&lt;Path&gt;" class="shp46" d="M133.06 498.13L131.22 497.81C130.41 497.67 129.86 496.9 130 496.09C130.15 495.27 130.92 494.73 131.73 494.87L133.57 495.19C134.38 495.33 134.93 496.1 134.79 496.91C134.65 497.73 133.87 498.27 133.06 498.13L133.06 498.13Z" />
					<path id="&lt;Path&gt;" class="shp46" d="M122.01 496.07L120.18 495.7C119.38 495.53 118.86 494.75 119.03 493.95C119.19 493.15 119.97 492.63 120.77 492.79L122.6 493.16C123.41 493.33 123.92 494.11 123.76 494.91C123.6 495.72 122.82 496.23 122.01 496.07L122.01 496.07Z" />
					<path id="&lt;Path&gt;" class="shp46" d="M111.03 493.67L109.21 493.23C108.42 493.04 107.94 492.25 108.13 491.46C108.32 490.67 109.11 490.18 109.9 490.37L111.71 490.8C112.5 490.99 112.99 491.78 112.8 492.57C112.62 493.37 111.82 493.85 111.03 493.67L111.03 493.67Z" />
					<path id="&lt;Path&gt;" class="shp46" d="M100.13 490.88L98.34 490.38C97.56 490.16 97.1 489.36 97.32 488.58C97.54 487.81 98.34 487.35 99.12 487.57L100.91 488.06C101.69 488.28 102.15 489.09 101.93 489.86C101.72 490.64 100.91 491.1 100.13 490.88L100.13 490.88Z" />
					<path id="&lt;Path&gt;" class="shp46" d="M89.35 487.68L87.57 487.1C86.81 486.86 86.39 486.04 86.64 485.28C86.88 484.52 87.7 484.1 88.46 484.34L90.24 484.92C91 485.16 91.42 485.98 91.17 486.74C90.93 487.5 90.11 487.92 89.35 487.68L89.35 487.68Z" />
					<path id="&lt;Path&gt;" class="shp46" d="M78.7 484.01L76.96 483.35C76.21 483.07 75.84 482.24 76.12 481.5C76.4 480.75 77.22 480.38 77.97 480.66L79.71 481.31C80.46 481.59 80.83 482.42 80.56 483.16C80.28 483.91 79.45 484.28 78.7 484.01L78.7 484.01Z" />
					<path id="&lt;Path&gt;" class="shp46" d="M68.24 479.81L66.54 479.06C65.82 478.74 65.49 477.9 65.8 477.18C66.12 476.46 66.96 476.13 67.68 476.44L69.39 477.19C70.11 477.51 70.44 478.35 70.13 479.07C69.81 479.79 68.97 480.12 68.25 479.81L68.24 479.81Z" />
					<path id="&lt;Path&gt;" class="shp46" d="M58.04 475L56.39 474.14C55.7 473.79 55.43 472.95 55.79 472.27C56.14 471.58 56.98 471.32 57.66 471.66L59.32 472.51C60.01 472.86 60.28 473.7 59.93 474.39C59.58 475.08 58.74 475.36 58.05 475.01L58.04 475Z" />
					<path id="&lt;Path&gt;" class="shp46" d="M48.17 469.52L46.58 468.55C45.94 468.16 45.74 467.32 46.13 466.68C46.52 466.04 47.35 465.84 47.99 466.22L49.59 467.19C50.23 467.58 50.44 468.42 50.05 469.07C49.66 469.71 48.82 469.92 48.18 469.53L48.17 469.52Z" />
					<path id="&lt;Path&gt;" class="shp46" d="M38.74 463.3L37.23 462.2C36.64 461.76 36.51 460.93 36.95 460.34C37.38 459.75 38.2 459.62 38.79 460.05L40.3 461.15C40.9 461.58 41.03 462.41 40.6 463.01C40.17 463.6 39.34 463.74 38.74 463.3L38.74 463.3Z" />
					<path id="&lt;Path&gt;" class="shp46" d="M29.88 456.25L28.49 455C27.96 454.53 27.92 453.71 28.39 453.18C28.87 452.65 29.68 452.6 30.21 453.07L31.61 454.31C32.15 454.78 32.2 455.61 31.72 456.14C31.25 456.68 30.43 456.73 29.89 456.25L29.88 456.25Z" />
					<path id="&lt;Path&gt;" class="shp46" d="M21.8 448.31L20.56 446.92C20.1 446.4 20.14 445.6 20.66 445.14C21.18 444.68 21.97 444.72 22.44 445.23L23.68 446.62C24.15 447.14 24.11 447.94 23.59 448.41C23.07 448.87 22.27 448.83 21.8 448.31L21.8 448.31Z" />
					<path id="&lt;Path&gt;" class="shp46" d="M14.7 439.46L13.65 437.92C13.27 437.36 13.41 436.59 13.97 436.21C14.53 435.83 15.28 435.97 15.67 436.52L16.73 438.06C17.12 438.62 16.98 439.38 16.42 439.77C15.86 440.16 15.1 440.02 14.71 439.46L14.7 439.46Z" />
					<path id="&lt;Path&gt;" class="shp46" d="M8.83 429.74L8 428.07C7.7 427.48 7.94 426.76 8.53 426.47C9.12 426.18 9.83 426.41 10.13 427L10.97 428.66C11.27 429.25 11.04 429.97 10.45 430.27C9.85 430.57 9.13 430.34 8.83 429.75L8.83 429.74Z" />
					<path id="&lt;Path&gt;" class="shp46" d="M4.38 419.3L3.79 417.53C3.59 416.92 3.92 416.26 4.52 416.06C5.13 415.86 5.78 416.19 5.99 416.79L6.59 418.56C6.79 419.17 6.46 419.83 5.86 420.03C5.25 420.24 4.59 419.91 4.38 419.3L4.38 419.3Z" />
					<path id="&lt;Path&gt;" class="shp46" d="M1.44 408.34L1.11 406.5C1 405.89 1.4 405.3 2.01 405.19C2.62 405.08 3.21 405.48 3.32 406.09L3.67 407.92C3.78 408.54 3.38 409.13 2.77 409.25C2.15 409.36 1.56 408.96 1.44 408.34L1.44 408.34Z" />
					<path id="&lt;Path&gt;" class="shp46" d="M0.02 397.1L-0.08 395.23C-0.11 394.63 0.35 394.12 0.95 394.09C1.55 394.06 2.07 394.51 2.1 395.11L2.21 396.98C2.24 397.58 1.78 398.1 1.18 398.14C0.57 398.17 0.05 397.71 0.02 397.1L0.02 397.1Z" />
					<path id="&lt;Path&gt;" class="shp46" d="M-0.02 385.78L0.1 383.92C0.14 383.34 0.64 382.89 1.22 382.93C1.8 382.97 2.25 383.47 2.21 384.05L2.11 385.91C2.08 386.5 1.57 386.95 0.99 386.91C0.4 386.88 -0.05 386.38 -0.02 385.79L-0.02 385.78Z" />
					<path id="&lt;Path&gt;" class="shp46" d="M1.18 374.55L1.48 372.71C1.57 372.16 2.1 371.78 2.65 371.87C3.2 371.97 3.58 372.48 3.49 373.03L3.2 374.88C3.12 375.44 2.59 375.82 2.03 375.74C1.47 375.65 1.09 375.12 1.17 374.56L1.18 374.55Z" />
					<path id="&lt;Path&gt;" class="shp46" d="M3.43 363.5L3.89 361.69C4.02 361.18 4.54 360.87 5.05 361C5.56 361.13 5.87 361.65 5.75 362.16L5.31 363.97C5.18 364.49 4.66 364.81 4.14 364.68C3.62 364.56 3.3 364.03 3.43 363.51L3.43 363.5Z" />
					<path id="&lt;Path&gt;" class="shp46" d="M6.55 352.68L7.14 350.91C7.3 350.44 7.8 350.19 8.27 350.35C8.74 350.5 9 351 8.85 351.47L8.27 353.25C8.12 353.73 7.61 353.99 7.13 353.83C6.65 353.68 6.39 353.17 6.55 352.69L6.55 352.68Z" />
					<path id="&lt;Path&gt;" class="shp46" d="M10.39 342.11L11.09 340.38C11.26 339.95 11.75 339.75 12.18 339.92C12.61 340.09 12.82 340.58 12.65 341L11.97 342.74C11.8 343.18 11.3 343.39 10.87 343.22C10.43 343.05 10.22 342.56 10.39 342.12L10.39 342.11Z" />
					<path id="&lt;Path&gt;" class="shp46" d="M14.84 331.79L15.63 330.1C15.81 329.71 16.27 329.55 16.66 329.73C17.05 329.91 17.22 330.37 17.04 330.76L16.27 332.45C16.09 332.85 15.62 333.03 15.23 332.85C14.83 332.67 14.65 332.2 14.84 331.8L14.84 331.79Z" />
					<path id="&lt;Path&gt;" class="shp46" d="M19.79 321.72L20.66 320.06C20.84 319.71 21.28 319.58 21.63 319.76C21.98 319.95 22.12 320.38 21.94 320.73L21.09 322.39C20.9 322.75 20.46 322.89 20.11 322.7C19.75 322.52 19.61 322.08 19.79 321.72L19.79 321.72Z" />
					<path id="&lt;Path&gt;" class="shp46" d="M25.18 311.87L26.11 310.25C26.29 309.94 26.69 309.83 27.01 310.01C27.32 310.19 27.43 310.59 27.25 310.91L26.34 312.53C26.16 312.86 25.75 312.97 25.43 312.79C25.11 312.61 24.99 312.2 25.17 311.88L25.18 311.87Z" />
					<path id="&lt;Path&gt;" class="shp46" d="M30.93 302.24L31.92 300.66C32.09 300.38 32.46 300.29 32.74 300.47C33.02 300.64 33.11 301.01 32.94 301.29L31.96 302.88C31.79 303.17 31.41 303.26 31.13 303.08C30.84 302.91 30.75 302.53 30.92 302.25L30.93 302.24Z" />
					<path id="&lt;Path&gt;" class="shp46" d="M36.99 292.81L38.03 291.26C38.2 291.01 38.53 290.95 38.78 291.11C39.03 291.28 39.09 291.61 38.93 291.86L37.91 293.42C37.75 293.67 37.41 293.74 37.15 293.58C36.9 293.41 36.83 293.07 36.99 292.82L36.99 292.81Z" />
					<path id="&lt;Path&gt;" class="shp46" d="M43.34 283.57L44.42 282.05C44.57 281.83 44.87 281.78 45.09 281.93C45.3 282.09 45.35 282.38 45.2 282.6L44.14 284.13C43.98 284.35 43.68 284.41 43.46 284.25C43.23 284.1 43.18 283.79 43.33 283.57L43.34 283.57Z" />
				</g>
				<g id="&lt;Group&gt;">
					<path id="&lt;Path&gt;" class="shp47" d="M46.19 260.88L51.48 272.13L56.82 263.71L46.19 260.88Z" />
					<path id="&lt;Path&gt;" class="shp48" d="M93.75 230.64L75.89 271.58C75.55 272.36 74.9 272.97 74.1 273.27C73.3 273.57 72.41 273.53 71.64 273.16L31.22 253.67C30.76 253.45 30.48 252.97 30.51 252.45C30.54 251.94 30.88 251.5 31.37 251.34L93.75 230.64Z" />
					<path id="&lt;Path&gt;" class="shp49" d="M46.19 260.88L93.75 230.64L52.71 264.05L54.04 267.23L46.19 260.88Z" />
					<path id="&lt;Path&gt;" class="shp50" d="M56.58 265.89L51.48 272.13L52.71 264.05L56.58 265.89Z" />
				</g>
				<g id="&lt;Group&gt;">
					<path id="&lt;Path&gt;" class="shp46" d="M131.02 387.17L129.25 381.86C129.11 381.43 129.34 380.98 129.76 380.84C130.19 380.69 130.64 380.92 130.78 381.34L130.79 381.35L132.54 386.67C132.68 387.08 132.45 387.53 132.03 387.67C131.61 387.81 131.16 387.58 131.02 387.17Z" />
					<path id="&lt;Path&gt;" class="shp46" d="M125.49 371.33L123.62 366.05C123.47 365.62 123.69 365.14 124.13 364.99C124.56 364.83 125.04 365.06 125.19 365.49L125.19 365.5L127.05 370.78C127.2 371.21 126.97 371.68 126.54 371.83C126.11 371.98 125.64 371.76 125.49 371.33Z" />
					<path id="&lt;Path&gt;" class="shp46" d="M120.07 355.39L118.46 350.03C118.32 349.58 118.58 349.1 119.03 348.96C119.49 348.82 119.97 349.08 120.11 349.54L120.11 349.54L121.7 354.9C121.84 355.35 121.58 355.83 121.13 355.96C120.68 356.1 120.21 355.84 120.07 355.39Z" />
					<path id="&lt;Path&gt;" class="shp46" d="M115.6 339.14L114.39 333.68C114.29 333.2 114.59 332.72 115.07 332.62C115.55 332.51 116.02 332.81 116.13 333.29L116.13 333.3L117.31 338.77C117.42 339.24 117.12 339.71 116.64 339.81C116.17 339.91 115.7 339.62 115.6 339.14Z" />
					<path id="&lt;Path&gt;" class="shp46" d="M112.44 322.57L111.71 317.02C111.64 316.52 112 316.06 112.5 316C113 315.93 113.46 316.29 113.52 316.79L113.52 316.79L114.23 322.34C114.3 322.84 113.95 323.29 113.45 323.35C112.95 323.42 112.5 323.07 112.44 322.57Z" />
					<path id="&lt;Path&gt;" class="shp46" d="M110.75 305.79L110.51 300.2C110.49 299.68 110.9 299.24 111.42 299.22C111.93 299.19 112.37 299.6 112.4 300.12L112.4 300.12L112.61 305.71C112.63 306.23 112.23 306.66 111.71 306.68C111.2 306.7 110.76 306.3 110.75 305.79Z" />
					<path id="&lt;Path&gt;" class="shp46" d="M110.54 288.92L110.78 283.33C110.81 282.79 111.26 282.38 111.79 282.4C112.33 282.43 112.74 282.88 112.72 283.41L112.72 283.42L112.45 289.01C112.43 289.54 111.98 289.95 111.45 289.92C110.92 289.9 110.51 289.45 110.54 288.92Z" />
					<path id="&lt;Path&gt;" class="shp46" d="M111.74 272.1L112.43 266.54C112.5 265.99 113 265.61 113.54 265.68C114.09 265.74 114.47 266.24 114.41 266.79L114.41 266.79L113.7 272.34C113.63 272.88 113.13 273.27 112.59 273.2C112.05 273.13 111.67 272.64 111.74 272.1Z" />
					<path id="&lt;Path&gt;" class="shp46" d="M114.23 255.42L115.32 249.93C115.43 249.37 115.97 249.01 116.53 249.12C117.08 249.23 117.44 249.77 117.33 250.33L117.33 250.33L116.22 255.82C116.11 256.37 115.58 256.72 115.03 256.61C114.48 256.5 114.12 255.97 114.23 255.42Z" />
					<path id="&lt;Path&gt;" class="shp46" d="M117.89 238.95L119.37 233.55C119.52 233 120.1 232.67 120.66 232.82C121.22 232.97 121.55 233.55 121.39 234.11L121.39 234.11L119.89 239.51C119.74 240.06 119.17 240.39 118.61 240.23C118.06 240.08 117.73 239.51 117.89 238.95Z" />
					<path id="&lt;Path&gt;" class="shp46" d="M122.81 222.81L124.74 217.55C124.95 216.99 125.57 216.71 126.12 216.91C126.68 217.12 126.97 217.74 126.76 218.3L126.76 218.3L124.81 223.55C124.61 224.1 123.99 224.38 123.44 224.18C122.89 223.97 122.61 223.36 122.81 222.81Z" />
					<path id="&lt;Path&gt;" class="shp46" d="M129.07 207.13L131.43 202.06C131.69 201.5 132.35 201.26 132.9 201.52C133.45 201.78 133.69 202.43 133.43 202.99L133.43 202.99L131.05 208.06C130.8 208.61 130.15 208.84 129.6 208.58C129.05 208.33 128.81 207.68 129.07 207.13Z" />
					<path id="&lt;Path&gt;" class="shp46" d="M136.61 192.03L139.38 187.16C139.69 186.62 140.38 186.43 140.92 186.74C141.46 187.05 141.65 187.74 141.34 188.28L141.34 188.28L138.56 193.14C138.25 193.68 137.56 193.86 137.03 193.56C136.49 193.25 136.3 192.56 136.61 192.03Z" />
					<path id="&lt;Path&gt;" class="shp46" d="M145.36 177.59L148.51 172.96C148.86 172.43 149.58 172.29 150.11 172.65C150.64 173.01 150.78 173.73 150.42 174.26L150.42 174.26L147.25 178.88C146.89 179.41 146.18 179.54 145.66 179.18C145.13 178.82 145 178.11 145.36 177.59Z" />
					<path id="&lt;Path&gt;" class="shp46" d="M155.22 163.89L158.73 159.53C159.13 159.02 159.86 158.94 160.37 159.35C160.87 159.75 160.95 160.49 160.55 160.99L160.55 160.99L157.04 165.35C156.64 165.85 155.9 165.93 155.4 165.53C154.9 165.13 154.82 164.39 155.22 163.89Z" />
					<path id="&lt;Path&gt;" class="shp46" d="M166.12 151L169.94 146.91C170.38 146.44 171.12 146.41 171.6 146.86C172.07 147.3 172.09 148.04 171.65 148.51L171.65 148.51L167.83 152.6C167.39 153.07 166.64 153.1 166.17 152.66C165.7 152.21 165.68 151.47 166.12 151Z" />
					<path id="&lt;Path&gt;" class="shp46" d="M177.93 138.96L182.04 135.15C182.52 134.71 183.26 134.74 183.71 135.22C184.15 135.69 184.12 136.44 183.64 136.88L183.64 136.88L179.53 140.68C179.06 141.13 178.31 141.1 177.87 140.62C177.43 140.14 177.46 139.4 177.93 138.96Z" />
					<path id="&lt;Path&gt;" class="shp46" d="M190.58 127.79L194.94 124.28C195.45 123.87 196.2 123.95 196.61 124.46C197.02 124.97 196.94 125.72 196.43 126.13L196.43 126.13L192.06 129.63C191.55 130.04 190.81 129.96 190.4 129.45C189.99 128.94 190.07 128.2 190.58 127.79Z" />
					<path id="&lt;Path&gt;" class="shp46" d="M203.96 117.52L208.55 114.32C209.09 113.94 209.84 114.07 210.21 114.61C210.59 115.15 210.46 115.89 209.92 116.27L209.92 116.27L205.32 119.47C204.79 119.85 204.04 119.71 203.67 119.17C203.29 118.64 203.42 117.89 203.96 117.52Z" />
					<path id="&lt;Path&gt;" class="shp46" d="M218.01 108.18L222.8 105.28C223.36 104.94 224.1 105.12 224.44 105.69C224.78 106.25 224.6 106.99 224.03 107.33L224.03 107.33L219.24 110.22C218.68 110.56 217.94 110.38 217.6 109.82C217.26 109.25 217.44 108.52 218.01 108.18Z" />
					<path id="&lt;Path&gt;" class="shp46" d="M232.63 99.77L237.6 97.2C238.19 96.89 238.92 97.12 239.22 97.71C239.53 98.3 239.3 99.03 238.71 99.33L238.71 99.34L233.74 101.91C233.15 102.21 232.42 101.98 232.12 101.39C231.81 100.8 232.04 100.08 232.63 99.77Z" />
					<path id="&lt;Path&gt;" class="shp46" d="M247.77 92.34L252.9 90.09C253.51 89.82 254.22 90.1 254.49 90.71C254.76 91.32 254.48 92.03 253.87 92.3L253.87 92.3L248.74 94.55C248.13 94.82 247.42 94.54 247.15 93.93C246.88 93.32 247.16 92.6 247.77 92.34Z" />
					<path id="&lt;Path&gt;" class="shp46" d="M263.36 85.89L268.62 83.98C269.25 83.75 269.95 84.08 270.17 84.71C270.4 85.34 270.08 86.03 269.45 86.26L269.45 86.26L264.19 88.17C263.56 88.4 262.86 88.08 262.63 87.45C262.4 86.82 262.73 86.12 263.36 85.89Z" />
					<path id="&lt;Path&gt;" class="shp46" d="M279.33 80.48L284.71 78.91C285.35 78.72 286.03 79.1 286.22 79.74C286.41 80.39 286.03 81.07 285.39 81.26L285.39 81.26L280.01 82.82C279.37 83 278.69 82.63 278.5 81.99C278.31 81.34 278.69 80.66 279.33 80.48Z" />
					<path id="&lt;Path&gt;" class="shp46" d="M295.63 76.13L301.1 74.93C301.76 74.78 302.41 75.2 302.56 75.87C302.7 76.53 302.29 77.18 301.62 77.33L301.62 77.33L296.15 78.52C295.49 78.66 294.84 78.25 294.7 77.58C294.55 76.92 294.97 76.27 295.63 76.13Z" />
					<path id="&lt;Path&gt;" class="shp46" d="M312.19 72.9L317.73 72.09C318.4 71.99 319.03 72.46 319.13 73.13C319.23 73.81 318.76 74.43 318.09 74.53L318.09 74.53L312.55 75.34C311.88 75.44 311.25 74.97 311.15 74.3C311.06 73.62 311.52 73 312.19 72.9Z" />
					<path id="&lt;Path&gt;" class="shp46" d="M328.95 70.87L334.53 70.47C335.21 70.42 335.81 70.94 335.85 71.62C335.9 72.3 335.39 72.9 334.71 72.95L334.71 72.95L329.12 73.34C328.44 73.38 327.85 72.87 327.8 72.19C327.75 71.51 328.27 70.92 328.95 70.87Z" />
					<path id="&lt;Path&gt;" class="shp46" d="M345.82 70.12L351.41 70.17C352.1 70.17 352.65 70.74 352.65 71.42C352.64 72.11 352.08 72.66 351.39 72.66L351.39 72.66L345.79 72.6C345.11 72.6 344.56 72.03 344.56 71.35C344.57 70.66 345.13 70.11 345.82 70.12Z" />
					<path id="&lt;Path&gt;" class="shp46" d="M362.7 70.75L368.29 71.28C368.97 71.35 369.48 71.96 369.41 72.65C369.35 73.33 368.74 73.84 368.05 73.77L368.05 73.77L368.01 73.77L362.46 73.23C361.78 73.17 361.27 72.56 361.34 71.87C361.4 71.19 362.01 70.68 362.7 70.75Z" />
					<path id="&lt;Path&gt;" class="shp46" d="M379.46 72.79L384.97 73.75C385.66 73.87 386.11 74.52 385.99 75.21C385.88 75.89 385.23 76.35 384.54 76.23L384.54 76.23L379.03 75.27C378.34 75.15 377.89 74.5 378.01 73.82C378.13 73.13 378.77 72.68 379.46 72.79Z" />
					<path id="&lt;Path&gt;" class="shp46" d="M396.01 76.11L401.44 77.49C402.11 77.66 402.52 78.35 402.35 79.03C402.18 79.7 401.49 80.11 400.81 79.94L400.81 79.94L395.39 78.55C394.71 78.38 394.31 77.69 394.48 77.02C394.65 76.34 395.34 75.94 396.01 76.11Z" />
					<path id="&lt;Path&gt;" class="shp46" d="M412.26 80.71L417.56 82.52C418.22 82.75 418.57 83.47 418.35 84.13C418.12 84.79 417.4 85.15 416.74 84.92L416.74 84.92L411.44 83.11C410.78 82.88 410.43 82.16 410.65 81.5C410.88 80.84 411.6 80.48 412.26 80.71Z" />
					<path id="&lt;Path&gt;" class="shp46" d="M428.09 86.59L433.23 88.82C433.87 89.1 434.17 89.85 433.89 90.49C433.61 91.14 432.86 91.43 432.21 91.15L432.21 91.15L427.08 88.93C426.43 88.65 426.14 87.9 426.42 87.25C426.7 86.61 427.45 86.31 428.09 86.59Z" />
					<path id="&lt;Path&gt;" class="shp46" d="M443.4 93.71L448.35 96.32C448.98 96.65 449.22 97.43 448.89 98.05C448.55 98.68 447.78 98.92 447.16 98.59L447.15 98.58L442.21 95.97C441.59 95.63 441.35 94.86 441.68 94.24C442.01 93.61 442.78 93.37 443.4 93.71Z" />
					<path id="&lt;Path&gt;" class="shp46" d="M458.13 101.97L462.87 104.94C463.47 105.32 463.65 106.11 463.27 106.71C462.9 107.32 462.1 107.5 461.5 107.12L461.5 107.12L456.76 104.14C456.16 103.77 455.98 102.97 456.36 102.37C456.73 101.77 457.53 101.59 458.13 101.97Z" />
					<path id="&lt;Path&gt;" class="shp46" d="M472.21 111.27L476.74 114.56C477.31 114.98 477.44 115.78 477.02 116.36C476.6 116.94 475.8 117.07 475.22 116.65L475.22 116.65L470.69 113.35C470.12 112.93 469.99 112.13 470.41 111.55C470.83 110.97 471.63 110.85 472.21 111.27Z" />
					<path id="&lt;Path&gt;" class="shp46" d="M485.64 121.47L489.96 125.03C490.51 125.49 490.59 126.31 490.13 126.86C489.68 127.41 488.86 127.49 488.31 127.04L488.3 127.03L483.99 123.47C483.44 123.01 483.36 122.2 483.82 121.64C484.27 121.09 485.09 121.01 485.64 121.47Z" />
					<path id="&lt;Path&gt;" class="shp46" d="M498.44 132.45L502.56 136.24C503.09 136.72 503.12 137.55 502.63 138.08C502.15 138.61 501.32 138.64 500.79 138.16L500.79 138.15L496.68 134.36C496.15 133.87 496.11 133.05 496.6 132.52C497.09 131.99 497.91 131.96 498.44 132.45Z" />
					<path id="&lt;Path&gt;" class="shp46" d="M510.65 144.06L514.59 148.04C515.1 148.55 515.09 149.38 514.58 149.89C514.06 150.4 513.24 150.39 512.73 149.88L512.73 149.88L508.79 145.9C508.28 145.38 508.29 144.56 508.8 144.05C509.31 143.54 510.14 143.55 510.65 144.06Z" />
					<path id="&lt;Path&gt;" class="shp46" d="M522.33 156.19L526.12 160.31C526.61 160.85 526.57 161.68 526.04 162.17C525.5 162.66 524.67 162.63 524.18 162.09L524.18 162.09L520.4 157.96C519.91 157.43 519.95 156.6 520.48 156.11C521.02 155.62 521.85 155.65 522.33 156.19Z" />
					<path id="&lt;Path&gt;" class="shp46" d="M533.58 168.71L537.24 172.95C537.72 173.5 537.66 174.33 537.1 174.81C536.55 175.29 535.72 175.23 535.24 174.67L535.24 174.67L531.58 170.43C531.11 169.88 531.17 169.05 531.72 168.57C532.27 168.1 533.1 168.16 533.58 168.71Z" />
					<path id="&lt;Path&gt;" class="shp46" d="M544.48 181.52L548.05 185.83C548.52 186.4 548.44 187.23 547.87 187.7C547.31 188.17 546.47 188.09 546.01 187.52L546 187.52L542.44 183.21C541.97 182.65 542.05 181.81 542.61 181.35C543.18 180.88 544.01 180.96 544.48 181.52Z" />
					<path id="&lt;Path&gt;" class="shp46" d="M555.14 194.51L558.66 198.86C559.13 199.44 559.04 200.27 558.47 200.74C557.89 201.2 557.05 201.11 556.59 200.54L556.59 200.54L553.07 196.19C552.61 195.62 552.7 194.78 553.27 194.32C553.84 193.85 554.68 193.94 555.14 194.51Z" />
					<path id="&lt;Path&gt;" class="shp46" d="M565.69 207.58L569.21 211.93C569.68 212.5 569.59 213.35 569.01 213.81C568.44 214.28 567.6 214.19 567.13 213.61L567.13 213.61L563.61 209.26C563.15 208.68 563.24 207.84 563.81 207.38C564.39 206.91 565.23 207 565.69 207.58Z" />
					<path id="&lt;Path&gt;" class="shp46" d="M576.28 220.59L579.85 224.9C580.33 225.47 580.25 226.32 579.68 226.79C579.11 227.27 578.26 227.19 577.79 226.62L577.78 226.61L574.21 222.3C573.74 221.73 573.82 220.89 574.39 220.41C574.96 219.94 575.81 220.02 576.28 220.59Z" />
					<path id="&lt;Path&gt;" class="shp46" d="M587.08 233.4L590.78 237.6C591.27 238.16 591.21 239.02 590.65 239.51C590.09 240 589.24 239.95 588.75 239.39L588.75 239.39L585.06 235.18C584.56 234.62 584.62 233.77 585.18 233.27C585.74 232.78 586.59 232.84 587.08 233.4Z" />
					<path id="&lt;Path&gt;" class="shp46" d="M598.31 245.79L602.21 249.8C602.73 250.34 602.72 251.2 602.18 251.72C601.65 252.25 600.79 252.23 600.27 251.7L600.27 251.7L596.37 247.68C595.84 247.15 595.86 246.29 596.39 245.77C596.93 245.25 597.78 245.26 598.31 245.79Z" />
					<path id="&lt;Path&gt;" class="shp46" d="M610.22 257.46L614.44 261.14C615.01 261.63 615.07 262.49 614.58 263.06C614.08 263.63 613.22 263.69 612.65 263.19L612.65 263.19L608.44 259.51C607.87 259.02 607.81 258.16 608.31 257.59C608.8 257.02 609.66 256.97 610.22 257.46Z" />
					<path id="&lt;Path&gt;" class="shp46" d="M623.15 267.89L627.8 271.01C628.43 271.43 628.59 272.28 628.17 272.91C627.75 273.54 626.91 273.7 626.28 273.28L626.28 273.28L621.63 270.16C621 269.74 620.83 268.89 621.25 268.27C621.67 267.64 622.52 267.47 623.15 267.89Z" />
					<path id="&lt;Path&gt;" class="shp46" d="M637.41 276.31C638.24 276.71 639.08 277.08 639.92 277.44C640.76 277.81 641.61 278.15 642.47 278.48C643.17 278.75 643.53 279.54 643.26 280.25C642.99 280.96 642.19 281.32 641.48 281.04L641.48 281.04C640.59 280.7 639.71 280.34 638.84 279.97C637.97 279.6 637.1 279.21 636.25 278.8L636.24 278.79C635.55 278.47 635.26 277.65 635.58 276.97C635.91 276.28 636.72 275.99 637.41 276.31Z" />
					<path id="&lt;Path&gt;" class="shp46" d="M652.97 281.59C653.19 281.63 653.47 281.69 653.81 281.76C654.32 281.85 654.99 281.97 655.66 282.09C656.57 282.24 657.47 282.36 658.38 282.47C659.13 282.56 659.67 283.24 659.59 284C659.5 284.76 658.81 285.3 658.06 285.21L658.06 285.21L658.05 285.21C657.1 285.1 656.16 284.96 655.22 284.81C654.52 284.68 653.81 284.56 653.29 284.46C652.94 284.39 652.65 284.33 652.41 284.29C651.67 284.14 651.19 283.41 651.34 282.66C651.49 281.92 652.21 281.43 652.96 281.58L652.97 281.59Z" />
					<path id="&lt;Path&gt;" class="shp46" d="M669.22 282.75C669.44 282.72 669.72 282.68 670.05 282.64C670.55 282.57 671.2 282.46 671.85 282.32C672.72 282.14 673.58 281.91 674.43 281.64C675.15 281.4 675.94 281.8 676.17 282.53C676.41 283.25 676.01 284.04 675.28 284.27L675.28 284.27L675.27 284.28C674.34 284.58 673.39 284.83 672.43 285.03C671.71 285.18 670.99 285.31 670.44 285.38C670.08 285.43 669.78 285.47 669.54 285.5C668.78 285.59 668.09 285.06 668 284.3C667.9 283.54 668.44 282.85 669.19 282.75L669.22 282.75Z" />
					<path id="&lt;Path&gt;" class="shp46" d="M683.84 276.64C684.02 276.5 684.24 276.33 684.51 276.12C684.9 275.8 685.42 275.37 685.92 274.92C686.6 274.33 687.25 273.71 687.88 273.06C688.42 272.51 689.3 272.49 689.85 273.03C690.4 273.56 690.41 274.44 689.88 275L689.88 275L689.87 275.01C689.2 275.7 688.5 276.36 687.77 277C687.23 277.48 686.67 277.95 686.25 278.29C685.96 278.51 685.73 278.7 685.54 278.84C684.93 279.32 684.06 279.21 683.59 278.61C683.12 278 683.22 277.13 683.82 276.66L683.84 276.64Z" />
					<path id="&lt;Path&gt;" class="shp46" d="M694.4 264.43C694.51 264.23 694.65 263.98 694.82 263.68C695.07 263.24 695.39 262.64 695.7 262.03C696.11 261.23 696.5 260.41 696.86 259.57C697.16 258.86 697.98 258.54 698.69 258.84C699.4 259.15 699.73 259.97 699.42 260.68L699.42 260.68L699.42 260.69C699.04 261.57 698.63 262.44 698.19 263.29C697.87 263.94 697.53 264.57 697.26 265.04C697.08 265.35 696.94 265.61 696.82 265.82C696.44 266.49 695.59 266.72 694.92 266.34C694.25 265.96 694.01 265.11 694.39 264.44L694.4 264.43Z" />
					<path id="&lt;Path&gt;" class="shp46" d="M700.01 249.24C700.05 249.01 700.09 248.72 700.14 248.37C700.18 248.12 700.23 247.81 700.28 247.49C700.3 247.33 700.33 247.16 700.35 246.99L700.41 246.53C700.51 245.64 700.57 244.74 700.6 243.83C700.62 243.08 701.25 242.5 702 242.52C702.74 242.54 703.32 243.16 703.3 243.91L703.3 243.92C703.28 244.88 703.22 245.84 703.12 246.81L703.05 247.39C703.03 247.56 703.01 247.72 702.98 247.89C702.94 248.21 702.89 248.51 702.86 248.77C702.81 249.12 702.77 249.41 702.73 249.64C702.62 250.39 701.93 250.91 701.18 250.81C700.42 250.7 699.9 250 700.01 249.25L700.01 249.24Z" />
					<path id="&lt;Path&gt;" class="shp46" d="M700.11 232.87L699.39 227.32C699.3 226.61 699.8 225.97 700.51 225.88C701.21 225.79 701.85 226.28 701.95 226.98L702.71 232.53C702.8 233.25 702.3 233.91 701.58 234.01C700.87 234.11 700.21 233.6 700.11 232.89L700.11 232.87Z" />
					<path id="&lt;Path&gt;" class="shp46" d="M697.41 216.44L696.21 210.97C696.07 210.33 696.47 209.71 697.11 209.57C697.73 209.43 698.35 209.82 698.5 210.44L699.82 215.88C699.98 216.54 699.58 217.21 698.91 217.37C698.25 217.53 697.58 217.13 697.42 216.46C697.42 216.46 697.42 216.44 697.41 216.44Z" />
					<path id="&lt;Path&gt;" class="shp46" d="M693.41 200.22L691.78 194.86C691.62 194.34 691.92 193.78 692.44 193.62C692.96 193.47 693.5 193.75 693.67 194.26L695.41 199.58C695.6 200.14 695.3 200.73 694.74 200.91C694.19 201.09 693.6 200.79 693.41 200.24C693.41 200.24 693.41 200.22 693.41 200.22Z" />
					<path id="&lt;Path&gt;" class="shp46" d="M688.12 184.38L685.97 179.21C685.82 178.84 685.99 178.42 686.36 178.27C686.72 178.12 687.13 178.28 687.29 178.63L689.62 183.72C689.81 184.14 689.63 184.62 689.22 184.81C688.81 185 688.32 184.82 688.13 184.41C688.13 184.4 688.12 184.39 688.12 184.38Z" />
				</g>
			</g>
			<g id="&lt;Group&gt;">
				<path id="&lt;Path&gt;" class="shp51" d="M380.16 50.42C377.51 47.82 374.13 46.4 370.43 46.48L113.58 51.55C106.07 51.7 99.85 57.83 99.85 65.34L99.85 98.77C99.85 106.35 106.27 112.51 113.85 112.57L333.16 114.22C342.27 120.44 362.88 135.79 371.35 142.15C371.88 142.55 372.66 142.57 373.22 142.19C373.77 141.8 374.04 141.11 373.85 140.46L366.35 114.47L370.79 114.51C374.46 114.54 377.61 113.09 380.22 110.5C382.82 107.91 383.9 104.39 383.9 100.71L383.9 60.27C383.9 56.56 382.8 53.01 380.16 50.42Z" />
				<path id="&lt;Path&gt;" class="shp11" d="M296.39 69.77C296.39 70.51 295.79 71.11 295.05 71.11L114.66 71.11C113.91 71.11 113.31 70.51 113.31 69.77C113.31 69.02 113.91 68.42 114.66 68.42L295.05 68.42C295.79 68.42 296.39 69.02 296.39 69.77Z" />
				<path id="&lt;Path&gt;" class="shp11" d="M367.74 94.01C367.74 94.75 367.14 95.35 366.4 95.35L186 95.35C185.26 95.35 184.66 94.75 184.66 94.01C184.66 93.26 185.26 92.66 186 92.66L366.4 92.66C367.14 92.66 367.74 93.26 367.74 94.01Z" />
				<path id="&lt;Path&gt;" class="shp11" d="M369.09 69.77C369.09 70.51 368.49 71.11 367.74 71.11L309.86 71.11C309.11 71.11 308.51 70.51 308.51 69.77C308.51 69.02 309.11 68.42 309.86 68.42L367.74 68.42C368.49 68.42 369.09 69.02 369.09 69.77Z" />
				<path id="&lt;Path&gt;" class="shp11" d="M323.32 83.23C323.32 83.98 322.72 84.58 321.97 84.58L264.09 84.58C263.34 84.58 262.74 83.98 262.74 83.23C262.74 82.49 263.34 81.89 264.09 81.89L321.97 81.89C322.72 81.89 323.32 82.49 323.32 83.23Z" />
				<path id="&lt;Path&gt;" class="shp11" d="M247.93 83.23C247.93 83.98 247.33 84.58 246.58 84.58L114.66 84.58C113.91 84.58 113.31 83.98 113.31 83.23C113.31 82.49 113.91 81.89 114.66 81.89L246.58 81.89C247.33 81.89 247.93 82.49 247.93 83.23Z" />
				<path id="&lt;Path&gt;" class="shp11" d="M370.44 83.23C370.44 83.98 369.83 84.58 369.09 84.58L332.74 84.58C332 84.58 331.4 83.98 331.4 83.23C331.4 82.49 332 81.89 332.74 81.89L369.09 81.89C369.83 81.89 370.44 82.49 370.44 83.23Z" />
				<path id="&lt;Path&gt;" class="shp11" d="M151 95.35C151 96.1 150.4 96.7 149.66 96.7L113.31 96.7C112.57 96.7 111.96 96.1 111.96 95.35C111.96 94.61 112.57 94.01 113.31 94.01L149.66 94.01C150.4 94.01 151 94.61 151 95.35Z" />
			</g>
			<g id="&lt;Group&gt;">
				<g id="&lt;Group&gt;">
					<path id="&lt;Path&gt;" class="shp52" d="M252.63 581.62L260.33 581.62L260.33 498.38L252.63 498.38L252.63 581.62Z" />
				</g>
				<g id="&lt;Group&gt;">
					<path id="&lt;Path&gt;" class="shp53" d="M222.78 583.22L290.17 583.22L290.17 580.88C290.17 579.41 288.98 578.21 287.51 578.21L225.65 578.21C224.07 578.21 222.78 579.5 222.78 581.09L222.78 583.22Z" />
				</g>
				<path id="&lt;Path&gt;" class="shp54" d="M210.04 495.31C210.04 500.15 213.99 504.11 218.83 504.11L291.3 504.11C296.13 504.11 300.09 500.15 300.09 495.31L300.09 487.36C300.09 482.52 296.13 478.56 291.3 478.56L218.83 478.56C213.99 478.56 210.04 482.52 210.04 487.36L210.04 495.31Z" />
			</g>
			<g id="&lt;Group&gt;">
				<path id="&lt;Path&gt;" class="shp55" d="M299.34 566.87C313.98 577.43 320.04 586.26 317.49 593.36C301.47 586.44 292.48 580.26 290.55 574.81C288.61 569.36 288.78 565.43 291.04 563.03L299.34 566.87Z" />
				<path id="&lt;Path&gt;" class="shp56" d="M296.03 553.6L292.44 563.99C291.9 565.55 292.44 567.34 293.84 568.23C294.55 568.67 295.5 569.08 296.82 569.38C298.67 569.8 300.58 568.94 301.47 567.26L305.77 559.17L296.03 553.6Z" />
				<path id="&lt;Path&gt;" class="shp57" d="M261.07 460.08C291.16 465.3 312.65 473.87 325.56 485.79C338.47 497.72 332.54 522.7 307.79 560.75C303.74 560.72 299.25 558.6 294.34 554.39C309.01 525.78 310.03 507.3 297.38 498.96C283.16 489.58 267.85 483.83 251.47 481.72L260.63 461.46L261.07 460.08Z" />
				<path id="&lt;Path&gt;" class="shp58" d="M313.67 587.47C308.84 585.23 295.16 575.66 292.85 575.23C291.32 574.95 289.21 575.71 286.55 577.52C285.9 578.69 285.92 580.29 286.62 582.32C289.83 586.21 296.96 593.62 306.54 596.38C313.59 598.41 318.53 596.52 321.6 594.3C319.91 591.73 316.89 588.96 313.67 587.47Z" />
				<path id="&lt;Path&gt;" class="shp59" d="M306.54 596.38C296.96 593.62 289.83 586.21 286.62 582.32C287.32 584.39 288.94 587.05 292.41 590.16C301 597.89 317.41 600.67 320.91 600.14C323.71 599.71 323.45 597.12 321.6 594.3C318.53 596.52 313.59 598.41 306.54 596.38Z" />
				<path id="&lt;Path&gt;" class="shp60" d="M282.45 570.76C282.5 572.09 285.23 576.66 286.82 579.22C287.57 580.44 288.9 581.18 290.33 581.19C291.24 581.19 292.28 581.11 293.23 580.84C294.66 580.43 295.46 578.91 295.04 577.49L291.93 566.87L282.45 570.76Z" />
				<path id="&lt;Path&gt;" class="shp61" d="M217.63 446.53C210.95 464.4 210.95 476.06 217.63 481.49C227.65 489.64 251.56 498.82 256.9 515.06C262.24 531.3 271.31 562.85 283.44 574.03C289.12 573.48 293.02 572.07 295.15 569.81C290.54 538.4 286.72 518.67 283.68 510.61C279.74 500.14 273.92 485.03 262.78 476.59C259.59 474.17 260.15 470.34 261.63 466.62L264.32 459.85L217.63 446.53Z" />
				<path id="&lt;Path&gt;" class="shp62" d="M322.16 425.52C305.35 426.53 310.59 399.68 310.89 398.61L285.39 416.63C286.29 426.2 293.81 433.5 307.94 438.52C313.31 440.43 318.21 440.51 322.55 439.58C320.7 434.19 321.07 429.35 322.16 425.52Z" />
				<path id="&lt;Path&gt;" class="shp63" d="M354.65 417.44C350.48 414.53 346.03 414.53 341.3 417.44C332.92 422.91 326.73 425.24 322.16 425.52C321.07 429.35 320.7 434.19 322.55 439.58C331.93 437.57 338.64 430.78 341.55 427.29C342.6 426.04 344.46 425.82 345.75 426.83C347.05 427.86 348.32 429.27 348.09 430.76C347.64 433.68 351.03 434.61 351.29 433.55C351.46 432.85 351.07 430.39 350.13 426.2C354.65 430.75 357.8 433.9 359.57 435.65C361.34 437.4 363.33 437.4 365.55 435.65C362.46 426.41 358.83 420.34 354.65 417.44Z" />
				<path id="&lt;Path&gt;" class="shp64" d="M243.8 357.13C260.1 350.61 283.41 359.87 313.75 384.92C316.28 390.16 316.17 395.12 313.4 399.79C309.26 406.79 269.75 440.92 264.32 459.85C248.63 464.95 232.67 461.45 216.45 449.36C217.88 414.24 227 383.5 243.8 357.13Z" />
				<path id="&lt;Path&gt;" class="shp65" d="M292.13 348.4L280.1 362.99C278.9 364.44 278.64 366.45 279.46 368.14C281.13 371.55 285.1 376.51 293.89 375.83C296.5 375.62 298.82 374.04 299.96 371.68L308.38 354.28L292.13 348.4Z" />
				<path id="&lt;Path&gt;" class="shp66" d="M224.87 419.64C222.98 411.93 231.62 399.49 250.78 382.3L243.8 357.13C202.41 384.69 187 409.55 197.54 431.71C199.81 436.48 202.82 439.82 206.31 442.05C211.31 428.59 219.28 422.42 224.87 419.64Z" />
				<path id="&lt;Path&gt;" class="shp67" d="M224.85 417.96C224.55 417.96 224.27 417.75 224.19 417.44C221.29 405.62 249.12 380.5 250.31 379.43C250.59 379.18 251.02 379.21 251.27 379.48C251.52 379.76 251.49 380.19 251.22 380.44C250.93 380.7 222.8 406.08 225.51 417.12C225.6 417.48 225.38 417.85 225.01 417.94C224.96 417.95 224.9 417.96 224.85 417.96Z" />
				<path id="&lt;Path&gt;" class="shp68" d="M268.41 418.65C245.69 427.47 231.56 428.56 226.01 421.93C225.45 421.25 225.08 420.48 224.87 419.64C219.28 422.42 211.31 428.59 206.31 442.05C224.24 453.51 254.88 435.68 263.17 430.42C264.53 429.55 266.17 429.25 267.75 429.58C270.94 430.24 276.46 431.22 279.44 430.76C283.79 430.09 290.05 445.45 297.11 440.71C293.08 422.9 283.51 415.55 268.41 418.65Z" />
				<g id="&lt;Group&gt;">
					<path id="&lt;Path&gt;" class="shp69" d="M322.15 331.6C322.29 342.19 321.51 349.9 319.8 354.71C317.23 361.93 316.83 367.14 308.08 365.14C299.33 363.14 294.17 356.19 293.4 347.6C292.54 338.75 293.17 333.03 295.28 330.44C297.39 327.85 306.35 328.24 322.15 331.6Z" />
					<path id="&lt;Path&gt;" class="shp70" d="M298.3 343.72L299.33 344.15C298.94 337.16 300.2 333.67 303.12 333.69C307.49 333.73 323.53 336.92 328.92 333.01C334.12 329.25 334.12 321.56 330.79 318.01C330.57 317.79 330.22 317.78 329.98 317.98L329.37 318.48C328.95 318.82 328.33 318.48 328.39 317.95C328.45 317.44 327.88 317.08 327.46 317.38C325.83 318.54 322.12 319.98 314.48 318.31C303.64 315.94 295.28 317.22 292.2 324.11C292 324.54 291.43 324.59 291.15 324.2C290.6 323.44 289.5 322.72 287.35 323.39C283.61 324.56 282.21 331.06 286.19 338.56C286.38 338.91 286.19 339.36 285.79 339.43C284.39 339.69 282.04 340.7 285.33 344.75C288.69 348.89 291.37 349.71 292.44 349.87C292.73 349.92 293 349.75 293.1 349.48L295.31 343.15C295.42 342.83 295.79 342.66 296.1 342.8L298.3 343.72Z" />
					<path id="&lt;Path&gt;" class="shp71" d="M298.01 345.12C298.93 338.77 297.77 335.86 294.53 336.39C289.67 337.18 292.49 346.84 295.45 348.46L298.01 345.12Z" />
				</g>
			</g>
			<g id="&lt;Group&gt;">
				<g id="&lt;Group&gt;">
					<path id="&lt;Path&gt;" class="shp72" d="M412.19 598.18C412.58 598.18 412.99 598.1 413.37 597.94C414.9 597.31 415.6 595.6 414.95 594.12L351.92 452.23C351.26 450.75 349.5 450.07 347.97 450.71C346.45 451.34 345.74 453.05 346.4 454.53L409.42 596.42C409.91 597.52 411.02 598.18 412.19 598.18Z" />
					<path id="&lt;Path&gt;" class="shp73" d="M341.18 598.18C342.35 598.18 343.46 597.52 343.95 596.42L406.97 454.53C407.63 453.05 406.93 451.34 405.4 450.71C403.88 450.07 402.11 450.75 401.45 452.23L338.43 594.12C337.77 595.6 338.47 597.31 340 597.94C340.39 598.1 340.79 598.18 341.18 598.18Z" />
					<path id="&lt;Path&gt;" class="shp74" d="M217.09 598.18C217.49 598.18 217.89 598.1 218.28 597.94C219.8 597.31 220.51 595.6 219.85 594.12L156.82 452.23C156.17 450.75 154.4 450.07 152.88 450.71C151.35 451.34 150.65 453.05 151.3 454.53L214.33 596.42C214.82 597.52 215.93 598.18 217.09 598.18Z" />
					<path id="&lt;Path&gt;" class="shp75" d="M146.09 598.18C147.26 598.18 148.36 597.52 148.85 596.42L211.88 454.53C212.54 453.05 211.83 451.34 210.31 450.71C208.78 450.07 207.01 450.75 206.36 452.23L143.33 594.12C142.68 595.6 143.38 597.31 144.9 597.94C145.29 598.1 145.69 598.18 146.09 598.18Z" />
				</g>
				<path id="&lt;Path&gt;" class="shp76" d="M138.7 447.85C138.54 446.92 138.76 445.96 139.29 445.22C139.83 444.49 140.64 444.07 141.48 444.07L428.21 444.07C429.32 444.07 430.36 444.7 430.96 445.75C431.56 446.81 431.64 448.13 431.17 449.26L428.06 456.79C427.35 458.51 425.81 459.62 424.11 459.62L143.45 459.62C141.87 459.62 140.51 458.36 140.22 456.63L138.7 447.85Z" />
			</g>
			<g id="&lt;Group&gt;">
				<path id="&lt;Path&gt;" class="shp77" d="M285.88 444.75C285.93 444.75 285.99 444.75 286.04 444.75L357.55 444.67C359.32 444.67 360.75 443.24 360.75 441.47C360.75 439.7 359.31 438.24 357.55 438.27L286.03 438.35C284.27 438.35 282.83 439.79 282.84 441.55C282.84 443.27 284.18 444.67 285.88 444.75Z" />
				<path id="&lt;Path&gt;" class="shp78" d="M421.84 379.8L362.29 379.8C357.89 379.8 353.89 382.34 352.02 386.31L324.49 444.71L398.5 444.71C401.33 444.71 403.87 442.98 404.91 440.35L426.27 386.31C427.5 383.18 425.2 379.8 421.84 379.8Z" />
				<path id="&lt;Path&gt;" class="shp79" d="M379.88 409.74C378.59 413.75 379.55 417.65 382.01 418.44C384.48 419.24 387.53 416.63 388.82 412.62C390.11 408.61 389.15 404.71 386.69 403.92C384.22 403.12 381.17 405.73 379.88 409.74Z" />
			</g>
		</g>
	</g>
</svg>