<?xml version="1.0" encoding="UTF-8"?>
<svg width="120px" height="30px" viewBox="0 0 120 30" version="1.1" xmlns="http://www.w3.org/2000/svg" xmlns:xlink="http://www.w3.org/1999/xlink">
    <!-- Generator: Sketch 46.2 (44496) - http://www.bohemiancoding.com/sketch -->
    <title>newzamlogo</title>
    <desc>Created with Sketch.</desc>
    <defs>
        <path d="M11.6287748,0.174132673 C15.372277,0.174132673 18.7018223,1.95166794 20.827755,4.7115326 C18.9264159,2.71149447 16.2456048,1.46547846 13.2746937,1.46547846 C7.50819758,1.46547846 2.83329249,6.16015059 2.83329249,11.9510294 C2.83329249,17.7421845 7.50819758,22.4368567 13.2746937,22.4368567 C15.7766005,22.4368567 18.0729051,21.5526496 19.8710302,20.0791555 C17.7657403,22.2049562 14.8501519,23.5214544 11.6287748,23.5214544 C5.2088654,23.5214544 0.00440379638,18.2952631 0.00440379638,11.8484846 C0.00440379638,5.40060046 5.2088654,0.174132673 11.6287748,0.174132673" id="path-1"></path>
        <path d="M18.7746136,23.1306762 C16.4483653,25.7917714 13.0566557,27.4690762 9.27945667,27.4690762 C6.2362904,27.4690762 3.44332553,26.3803333 1.25589696,24.5657619 C3.81659016,27.1837714 7.36260422,28.8047333 11.2813396,28.8047333 C15.7461171,28.8047333 19.7265199,26.7004381 22.317911,23.4146 C22.0582014,23.4021714 21.7987635,23.3905714 21.5398689,23.3902952 C20.9756253,23.4005143 20.4179016,23.4411143 19.8493115,23.4411143 C19.4491522,23.4405619 19.0767026,23.3311905 18.7746136,23.1306762 L18.7746136,23.1306762 Z M11.2816112,0.0549619048 C6.72827166,0.0549619048 2.67859485,2.24377143 0.0923653396,5.64229524 C2.40503044,3.17950476 5.66607026,1.64499048 9.27945667,1.64499048 C16.2935176,1.64499048 21.9796909,7.42593333 21.9796909,14.5568952 C21.9796909,14.6745524 21.9777892,14.7922095 21.9748009,14.9087619 L23.7588103,10.6896762 C23.9516909,10.220981 24.2070539,9.79233333 24.5699953,9.50868571 C22.5936487,3.9934381 17.3902201,0.0549619048 11.2816112,0.0549619048 Z" id="path-3"></path>
        <polygon id="path-5" points="0.236238228 0.762063324 0.236238228 5.50367052 3.78745867 2.64248634 7.21468818 2.64248634 0.112793512 13.57846 12.6500792 0.232214401"></polygon>
        <polygon id="path-7" points="12.5935459 14.9165973 12.5935459 13.0683422 12.5935459 9.00422772 9.04205232 12.5715648 5.6145497 12.5715648 12.2218462 0.0846402385 0.143108476 14.9926629 7.3875654 14.94813 8.5534625 14.9409383"></polygon>
    </defs>
    <g id="Page-1" stroke="none" stroke-width="1" fill="none" fill-rule="evenodd">
        <g id="newzamlogo">
            <g id="logo_zam_invoice413_147" transform="translate(7.000000, 1.000000)">
                <g id="Clipped" transform="translate(0.000000, 2.852459)">
                    <mask id="mask-2" fill="white">
                        <use xlink:href="#path-1"></use>
                    </mask>
                    <g id="SVGID_1_"></g>
                    <polygon id="Shape" fill="#347EB7" fill-rule="nonzero" mask="url(#mask-2)" points="25.7063356 22.4429375 19.8666264 -4.21401067 -4.87417688 1.25182043 0.965532355 27.909045"></polygon>
                </g>
                <g id="Clipped" transform="translate(2.377049, 0.000000)">
                    <mask id="mask-4" fill="white">
                        <use xlink:href="#path-3"></use>
                    </mask>
                    <g id="SVGID_4_"></g>
                    <polygon id="Shape" fill="#347EB7" fill-rule="nonzero" mask="url(#mask-4)" points="4.69514754 -9.66887619 -10.9572459 23.398581 19.9672131 38.5285714 35.6196066 5.46111429"></polygon>
                </g>
                <g id="Clipped" transform="translate(6.180328, 7.131148)">
                    <mask id="mask-6" fill="white">
                        <use xlink:href="#path-5"></use>
                    </mask>
                    <g id="SVGID_7_"></g>
                    <polygon id="Shape" fill="#347EB7" fill-rule="nonzero" mask="url(#mask-6)" points="15.4794758 12.9621051 12.0710907 -2.37188492 -2.71660307 0.848298939 0.691508894 16.182289"></polygon>
                </g>
                <g id="Clipped" transform="translate(7.131148, 7.131148)">
                    <mask id="mask-8" fill="white">
                        <use xlink:href="#path-7"></use>
                    </mask>
                    <g id="SVGID_10_"></g>
                    <polygon id="Shape" fill="#347EB7" fill-rule="nonzero" mask="url(#mask-8)" points="1.82272131 -4.22288405 -4.88535194 12.9814891 10.913933 19.3004638 17.6220063 2.09581401"></polygon>
                </g>
                <path d="M102.027177,15.5411339 C102.027177,15.425074 102.060057,15.3921086 102.143628,15.3921086 C102.426949,15.3921086 104.192633,15.3921086 104.609393,15.4419653 C105.125892,15.5081685 105.37551,15.8062192 105.458807,16.0380666 C105.525664,16.2366762 105.558819,16.4355583 105.558819,16.5518906 C105.558819,16.6679506 105.591973,16.7837381 105.691985,16.7837381 C105.858579,16.7837381 105.858579,16.6183663 105.858579,16.4696134 C105.858579,16.353281 105.891734,15.5912631 105.925162,15.2602471 C105.975031,14.746423 106.058328,14.3325849 106.058328,14.2331439 C106.058328,14.1337029 106.025174,14.0841186 105.958591,14.0841186 C105.858853,14.0841186 105.825151,14.1503218 105.742127,14.2497628 C105.575807,14.4649913 105.342081,14.531467 105.02588,14.5480859 C104.792154,14.5647048 104.559525,14.5647048 104.276204,14.5647048 L102.143902,14.5815961 C102.043891,14.5815961 102.027177,14.5317394 102.027177,14.4322984 L102.027177,10.2914651 C102.027177,10.1092019 102.077319,10.0593452 102.177057,10.0593452 L104.74256,10.1092019 C105.37551,10.1258208 105.725687,10.3742872 105.842139,10.6061346 C105.942151,10.8379821 105.942151,11.1033398 105.942151,11.2357462 C105.958865,11.4177369 105.992019,11.5008314 106.108745,11.5008314 C106.225197,11.5008314 106.258078,11.4013904 106.275066,11.268984 C106.30822,11.0701019 106.341923,10.0928555 106.358089,9.92721124 C106.408232,9.49648175 106.491803,9.2975997 106.491803,9.1818122 C106.491803,9.09899009 106.441386,9.03278689 106.375077,9.03278689 C106.291506,9.03278689 106.208209,9.09899009 106.108471,9.13222791 C105.941877,9.1818122 105.741853,9.1818122 105.425378,9.19843111 C105.042046,9.21505003 101.660285,9.21505003 101.027609,9.21505003 C100.793883,9.21505003 100.410825,9.19843111 99.9776242,9.1818122 C99.5446974,9.1818122 99.0616277,9.16519329 98.6284269,9.16519329 C98.3785349,9.16519329 98.2453688,9.19843111 98.2453688,9.33083752 C98.2453688,9.43027855 98.3620947,9.46324393 98.5284153,9.46324393 C98.761867,9.46324393 99.0451875,9.47986284 99.1783536,9.51310066 C99.7282803,9.6291606 99.8611724,9.89397341 99.8946009,10.4571093 C99.9277554,10.9872798 99.9277554,11.4509747 99.9277554,13.9688759 L99.9277554,16.8842689 C99.9277554,18.4747804 99.9277554,19.7165672 99.8444581,20.412382 C99.7778751,20.8929682 99.6945777,21.257222 99.3613885,21.3236977 C99.2112341,21.3566631 99.0114849,21.3896284 98.761593,21.3896284 C98.5785581,21.3896284 98.511701,21.4397576 98.511701,21.5223073 C98.511701,21.6549861 98.6287009,21.6879515 98.8618786,21.6879515 C99.4948286,21.6879515 100.544539,21.6383672 100.97774,21.6383672 C101.410667,21.6383672 102.460377,21.6879515 103.509814,21.6879515 C103.759706,21.6879515 103.876158,21.6383672 103.876158,21.5223073 C103.876158,21.4394852 103.809849,21.3896284 103.593111,21.3896284 C103.35966,21.3896284 102.99359,21.3566631 102.759864,21.3236977 C102.26008,21.257222 102.160343,20.8929682 102.1102,20.412382 C102.026903,19.7165672 102.026903,18.4747804 102.026903,16.8842689 L102.027177,15.5411339 L102.027177,15.5411339 L102.027177,15.5411339 Z M91.3410076,21.1068345 C88.5754818,21.1068345 86.9092615,18.8210531 86.9092615,15.9222791 C86.9092615,12.4437503 88.8253738,11.5825638 90.4578916,11.5825638 C92.823645,11.5825638 94.7060548,13.5040913 94.7060548,16.6180939 C94.7063288,20.6265207 92.3740039,21.1068345 91.3410076,21.1068345 Z M90.7412121,21.8688525 C94.5230199,21.8688525 96.8882253,19.3346047 96.8882253,16.1042698 C96.8882253,12.8744798 94.589329,10.8371647 90.8908185,10.8371647 C86.4431801,10.8371647 84.7438052,13.9514397 84.7438052,16.3535535 C84.7438052,18.8540185 86.4766086,21.8688525 90.7412121,21.8688525 Z M74.6577056,15.623956 C74.6078368,15.623956 74.557694,15.6076096 74.557694,15.5247874 L74.557694,15.2264644 C74.557694,13.0897083 74.557694,12.5761567 74.5908486,12.1290807 C74.6242771,11.6321481 74.7407289,11.4335384 75.1407753,11.3670628 C75.3070959,11.333825 75.44081,11.3174785 75.5575359,11.3174785 C75.7405708,11.3174785 75.8241421,11.2676218 75.8241421,11.1681808 C75.8241421,11.0687397 75.7241305,11.0357743 75.5238333,11.0357743 C74.9410261,11.0357743 73.924744,11.0690122 73.5748405,11.0690122 C73.1750682,11.0690122 72.2089289,11.0357743 71.4255505,11.0357743 C71.2258013,11.0357743 71.1093495,11.0690122 71.1093495,11.1681808 C71.1093495,11.2678942 71.2090871,11.3174785 71.3589674,11.3174785 C71.5757049,11.3174785 71.8253228,11.333825 71.9420487,11.3670628 C72.408404,11.4997417 72.5418442,11.6484945 72.5749987,12.1290807 C72.5919869,12.5764291 72.5919869,12.9739208 72.5919869,15.1106769 L72.5919869,17.5950679 C72.5919869,18.8872563 72.5919869,19.9969092 72.5254039,20.5932829 C72.4752611,21.0076659 72.3919638,21.2724787 72.092203,21.3384095 C71.9590369,21.3719198 71.7924423,21.3885387 71.5757049,21.3885387 C71.392122,21.3885387 71.3422532,21.4710884 71.3422532,21.537564 C71.3422532,21.637005 71.4419908,21.6865893 71.6252997,21.6865893 C72.2083809,21.6865893 73.1747942,21.637005 73.5079834,21.637005 C73.92447,21.637005 74.9407521,21.6865893 75.8899031,21.6865893 C76.073486,21.6865893 76.1899379,21.637005 76.1899379,21.537564 C76.1899379,21.4710884 76.1233548,21.3885387 75.9564862,21.3885387 C75.7400228,21.3885387 75.4068335,21.3719198 75.2070843,21.3384095 C74.7736095,21.2724787 74.6905862,21.0073935 74.6404434,20.6099018 C74.5741343,19.9966368 74.55742,18.9204942 74.55742,17.6280333 L74.55742,16.5516182 C74.55742,16.485415 74.6072888,16.4687961 74.6574316,16.4687961 L80.1884831,16.4687961 C80.2216377,16.4687961 80.2715064,16.5020339 80.2715064,16.5516182 L80.2715064,17.6280333 C80.2715064,18.9204942 80.2715064,19.9966368 80.2051974,20.5930105 C80.1550546,21.0073935 80.0717573,21.2722063 79.7717225,21.3384095 C79.6385564,21.3713749 79.4719618,21.3882662 79.2390581,21.3882662 C79.0724635,21.3882662 79.0056064,21.4710884 79.0056064,21.5372916 C79.0056064,21.6364601 79.1223323,21.6863169 79.3220814,21.6863169 C79.8884484,21.6863169 80.9214447,21.6364601 81.254634,21.6364601 C81.6546803,21.6364601 82.6205456,21.6863169 83.5705186,21.6863169 C83.7538275,21.6863169 83.8705534,21.6364601 83.8705534,21.5372916 C83.8705534,21.4710884 83.7869821,21.3882662 83.6371017,21.3882662 C83.40365,21.3882662 83.087175,21.3713749 82.8874258,21.3384095 C82.4377847,21.2722063 82.3544874,21.007121 82.3043446,20.6096294 C82.2377616,19.9963643 82.2377616,18.8869839 82.2377616,17.5950679 L82.2377616,15.110132 C82.2377616,12.9736484 82.2377616,12.5758843 82.2711901,12.1288083 C82.3040706,11.6318756 82.4210705,11.433266 82.8038545,11.3667904 C82.9874374,11.3335525 83.1200555,11.3172061 83.2373294,11.3172061 C83.40365,11.3172061 83.5033876,11.2673493 83.5033876,11.1679083 C83.5033876,11.0684673 83.403924,11.0355019 83.1874606,11.0355019 C82.6208196,11.0355019 81.6546803,11.0684673 81.3050508,11.0684673 C80.9219927,11.0684673 79.8889964,11.0355019 79.106166,11.0355019 C78.8894286,11.0355019 78.789417,11.0684673 78.789417,11.1679083 C78.789417,11.2676218 78.8729883,11.3172061 79.039309,11.3172061 C79.2390581,11.3172061 79.4894981,11.3335525 79.6056759,11.3667904 C80.0720313,11.4994692 80.2051974,11.6484945 80.2386259,12.1288083 C80.2556142,12.5761567 80.2717805,13.0894359 80.2717805,15.2261919 L80.2717805,15.524515 C80.2717805,15.6073371 80.2219117,15.6236836 80.1887571,15.6236836 L74.6577056,15.623956 L74.6577056,15.623956 Z M59.8570875,14.0173705 L59.9069563,14.0173705 C60.1900027,14.2658368 61.7367572,15.971591 63.3358465,17.4956268 C64.8689008,18.9700784 66.6984277,20.7090704 67.6146982,21.5539105 C67.7645786,21.7029358 67.9673418,21.8519611 68.2172337,21.8519611 C68.3336856,21.8519611 68.4504114,21.7195547 68.4504114,21.4048852 L68.6170061,12.5263 C68.6337203,11.7313166 68.7504462,11.4828503 69.1499445,11.3667904 C69.3332534,11.3169336 69.4499792,11.3169336 69.5998596,11.3169336 C69.7664542,11.3169336 69.8497516,11.2507304 69.8497516,11.1679083 C69.8497516,11.0518484 69.7163115,11.0352295 69.5162883,11.0352295 C68.800041,11.0352295 68.2501143,11.0681948 68.0835196,11.0681948 C67.7640306,11.0681948 66.9814742,11.0352295 66.2148101,11.0352295 C65.9986206,11.0352295 65.8487403,11.0518484 65.8487403,11.1679083 C65.8487403,11.2507304 65.8986091,11.3169336 66.082192,11.3169336 C66.2819411,11.3169336 66.6318447,11.3169336 66.8483081,11.3997557 C67.1982116,11.5321621 67.3316517,11.7806285 67.348092,12.6420875 L67.4979724,18.9033304 L67.4313893,18.9033304 C67.2149259,18.7047207 65.265659,16.71699 64.2688313,15.7397435 C62.1365295,13.6689182 59.9401108,11.4329936 59.7565279,11.2507304 C59.5071839,11.0022641 59.3068868,10.7870356 59.1238519,10.7870356 C58.9739715,10.7870356 58.8739599,10.9856452 58.8739599,11.2673493 L58.7405198,19.615764 C58.7235315,20.8414768 58.6739368,21.2223496 58.2906047,21.322063 C58.0908555,21.3721922 57.8245233,21.3885387 57.6242261,21.3885387 C57.49106,21.3885387 57.3907745,21.4544694 57.3907745,21.537564 C57.3907745,21.6699704 57.5239406,21.6865893 57.7239637,21.6865893 C58.4733656,21.6865893 59.1728986,21.637005 59.3066128,21.637005 C59.573219,21.637005 60.2563118,21.6865893 61.2029968,21.6865893 C61.4027459,21.6865893 61.536186,21.6536239 61.536186,21.537564 C61.536186,21.4544694 61.4531627,21.3885387 61.2865681,21.3885387 C61.0528424,21.3885387 60.7697959,21.3719198 60.519904,21.2890977 C60.2401455,21.1899291 60.0565626,20.8586406 60.0234081,19.7650618 L59.8570875,14.0173705 Z M50.3707834,17.5950679 C50.3707834,18.8872563 50.3707834,19.9969092 50.3042003,20.5932829 C50.2540575,21.0076659 50.1707602,21.2724787 49.8709995,21.3384095 C49.7375594,21.3719198 49.5709647,21.3885387 49.3545013,21.3885387 C49.1714664,21.3885387 49.1213236,21.4713608 49.1213236,21.537564 C49.1213236,21.637005 49.2213352,21.6865893 49.4046441,21.6865893 C49.7044048,21.6865893 50.0710226,21.669698 50.4209262,21.6536239 C50.7705557,21.6536239 51.0873047,21.637005 51.2538994,21.637005 C51.6873742,21.637005 52.2367529,21.6536239 52.9532742,21.669698 C53.6695216,21.7029358 54.5526375,21.7195547 55.6524909,21.7195547 C56.2021436,21.7195547 56.3353098,21.7195547 56.4350473,21.3550284 C56.5183446,21.0735967 56.6347965,20.1124243 56.6347965,19.7982996 C56.6347965,19.6490018 56.6180822,19.4670111 56.5016304,19.4670111 C56.4016188,19.4670111 56.3684643,19.5329419 56.3353098,19.6822397 C56.2352982,20.2619945 56.0687035,20.5600451 55.7020857,20.7256893 C55.3190277,20.8913336 54.7025179,20.9079525 54.3191859,20.9079525 C52.8195601,20.9079525 52.370193,20.6924515 52.3367645,19.7320964 C52.3200502,19.3179858 52.3367645,18.1257833 52.3367645,17.6449246 L52.3367645,16.5186528 C52.3367645,16.4358307 52.3537528,16.3696275 52.4200618,16.3696275 C52.7864056,16.3696275 54.452626,16.4025929 54.7192322,16.4355583 C55.2691589,16.4856874 55.4524678,16.7006435 55.5354911,16.9826201 C55.5686456,17.1646108 55.5686456,17.3471464 55.5856339,17.4961717 C55.5856339,17.5621025 55.6190624,17.6122317 55.719074,17.6122317 C55.8522401,17.6122317 55.8692284,17.4136221 55.8692284,17.2972897 C55.8692284,17.1981211 55.9021089,16.6347128 55.9358114,16.353281 C56.0188347,15.6408474 56.0522633,15.409 56.0522633,15.3261778 C56.0522633,15.2430833 56.0021205,15.1771525 55.9358114,15.1771525 C55.8692284,15.1771525 55.8190856,15.2597022 55.7020857,15.3591432 C55.5686456,15.5081685 55.3524562,15.5414064 55.0025527,15.5746442 C54.6693634,15.6076096 52.7702393,15.6076096 52.4373241,15.6076096 C52.3537528,15.6076096 52.3370385,15.5411339 52.3370385,15.4585842 L52.3370385,11.9800554 C52.3370385,11.8969609 52.370193,11.8473766 52.4373241,11.8473766 C52.7370848,11.8473766 54.4860545,11.8806144 54.7362205,11.9135798 C55.469182,11.979783 55.5856339,12.178665 55.7023597,12.4271314 C55.7853831,12.5927756 55.8018233,12.841242 55.8018233,12.9404105 C55.8018233,13.0564705 55.8188116,13.1226737 55.9185492,13.1226737 C56.035275,13.1226737 56.0687035,12.9570295 56.0854178,12.8908262 C56.1182983,12.725182 56.1517268,12.1121894 56.1684411,11.9631641 C56.2021436,11.3172061 56.285167,11.1515618 56.285167,11.0521208 C56.285167,10.9859176 56.2684527,10.9197144 56.1854294,10.9197144 C56.1188463,10.9197144 56.035549,10.9692987 55.9519777,10.9859176 C55.8352518,11.0025365 55.6023482,11.0521208 55.3357419,11.0687397 C55.0521475,11.0853586 51.8035521,11.0687397 51.3371967,11.0687397 C50.9207101,11.0687397 49.9879993,11.0355019 49.2216092,11.0355019 C49.0048718,11.0355019 48.8884199,11.0687397 48.8884199,11.1679083 C48.8884199,11.2676218 48.9881575,11.3169336 49.1383119,11.3169336 C49.3550493,11.3169336 49.6049413,11.3335525 49.7213931,11.3667904 C50.1877485,11.4991968 50.3211886,11.6482221 50.3543431,12.1285359 C50.3713314,12.5758843 50.3713314,12.9733759 50.3713314,15.1104044 L50.3707834,17.5950679 L50.3707834,17.5950679 Z M34.6201922,20.2786134 C34.5533351,20.7423082 34.420169,21.3054441 34.0203967,21.3550284 C33.787219,21.3882662 33.6872074,21.3882662 33.5704816,21.3882662 C33.4206012,21.3882662 33.3370299,21.4544694 33.3370299,21.5206726 C33.3370299,21.6533515 33.4537557,21.6863169 33.6036361,21.6863169 C34.0699915,21.6863169 34.7697986,21.6367326 35.053119,21.6367326 C35.3197253,21.6367326 35.9861038,21.6863169 36.6023396,21.6863169 C36.819077,21.6863169 36.9522431,21.6533515 36.9522431,21.5206726 C36.9522431,21.4544694 36.8522315,21.3882662 36.7190654,21.3882662 C36.5858993,21.3882662 36.4524592,21.3713749 36.2025672,21.322063 C35.9526753,21.2722063 35.7526521,21.1730377 35.7526521,20.9079525 C35.7526521,20.6758326 35.7693664,20.4935694 35.8027949,20.2451031 L36.502328,14.7453333 L36.5524708,14.7453333 C37.0355404,15.7228522 37.9019421,17.4953544 38.018668,17.7601672 C38.1852626,18.1576589 39.3514251,20.3110339 39.7013286,20.9569919 C39.9345063,21.3874489 40.1011009,21.6688806 40.2844098,21.6688806 C40.4510044,21.6688806 40.5343018,21.5364742 40.867491,20.8741698 L44.0160749,14.579689 L44.0662176,14.579689 L44.8824766,20.6752877 C44.9323453,21.0727794 44.8991908,21.2384236 44.8158935,21.271389 C44.7158819,21.3043544 44.6492989,21.3542111 44.6492989,21.4206867 C44.6492989,21.5032364 44.7325962,21.5694396 45.0822257,21.5860585 C45.6653069,21.6190239 47.7477399,21.6852271 48.1140837,21.6852271 C48.3308211,21.6852271 48.4971417,21.6356428 48.4971417,21.5195829 C48.4971417,21.4370332 48.3971302,21.3871765 48.2639641,21.3871765 C48.0803812,21.3871765 47.8472035,21.3705576 47.4307169,21.2547701 C46.9808018,21.1220912 46.8479097,20.7412185 46.7144695,19.8636855 L45.3817125,11.1673634 C45.3318437,10.8693128 45.164975,10.720015 45.0485232,10.720015 C44.9150831,10.720015 44.781917,10.8358025 44.6654651,11.0679224 L40.7337769,19.0188454 L36.8020887,11.1673634 C36.6023396,10.7864907 36.502328,10.720015 36.3521736,10.720015 C36.2354478,10.720015 36.1022816,10.8524214 36.0688531,11.0842689 L34.6201922,20.2786134 Z M26.1167417,17.3634929 C26.0665989,17.3634929 26.0334443,17.3302551 26.0665989,17.2643243 L27.4826533,13.7027009 C27.4993675,13.6528442 27.5158078,13.5702945 27.5659506,13.5702945 C27.5993791,13.5702945 27.6158194,13.6531166 27.6325336,13.7027009 L29.0154335,17.2806708 C29.0321478,17.3302551 29.0154335,17.3634929 28.9488505,17.3634929 L26.1167417,17.3634929 L26.1167417,17.3634929 Z M29.2653255,18.1418573 C29.3319085,18.1418573 29.3820513,18.1584762 29.4152058,18.2410259 L30.5479398,21.0733243 C30.6145228,21.2392409 30.5145112,21.3719198 30.4147737,21.3882662 C30.2648933,21.4048852 30.2314648,21.454197 30.2314648,21.5372916 C30.2314648,21.6367326 30.3980594,21.6367326 30.6646656,21.6533515 C31.8974111,21.6863169 32.963562,21.6863169 33.4800602,21.6863169 C34.0297129,21.6863169 34.1130102,21.6533515 34.1130102,21.5372916 C34.1130102,21.4378505 34.0464271,21.3882662 33.913261,21.3882662 C33.7466664,21.3882662 33.5800717,21.3716473 33.3636083,21.3381371 C33.0970021,21.2722063 32.6805155,21.09294 32.1141485,19.8228193 C31.1814378,17.6945089 28.732387,11.9299263 28.3824835,11.1512894 C28.2326031,10.8366199 28.1657461,10.703941 27.9492827,10.703941 C27.7994023,10.703941 27.6826764,10.8695852 27.5160818,11.2670769 L23.6846792,20.1287707 C23.3846444,20.8409319 23.1347525,21.2716614 22.4686479,21.3711024 C22.3354818,21.3711024 22.1688872,21.3879938 22.0354471,21.3879938 C21.9187212,21.3879938 21.8688525,21.454197 21.8688525,21.5370191 C21.8688525,21.6530791 21.9521498,21.685772 22.1354587,21.685772 C22.9018488,21.685772 23.6849532,21.6361877 23.8348336,21.6361877 C24.3014629,21.6361877 24.9842817,21.685772 25.4673514,21.685772 C25.6175058,21.685772 25.7008031,21.6530791 25.7008031,21.5370191 C25.7008031,21.454197 25.6673746,21.3879938 25.4840657,21.3879938 L25.2673282,21.3879938 C24.8176871,21.3879938 24.684247,21.238696 24.684247,20.9902297 C24.684247,20.8245855 24.7508301,20.4766781 24.9009844,20.1290432 L25.6838148,18.2407534 C25.7169693,18.1579313 25.7336836,18.1413124 25.8169809,18.1413124 L29.2653255,18.1418573 L29.2653255,18.1418573 Z" id="Shape" fill="#347EB7" fill-rule="nonzero"></path>
            </g>
        </g>
    </g>
</svg>