<?xml version="1.0" encoding="UTF-8"?>
<svg width="25px" height="25px" viewBox="0 0 25 25" version="1.1" xmlns="http://www.w3.org/2000/svg" xmlns:xlink="http://www.w3.org/1999/xlink">
    <!-- Generator: Sketch 46.2 (44496) - http://www.bohemiancoding.com/sketch -->
    <title>Shape</title>
    <desc>Created with Sketch.</desc>
    <defs></defs>
    <g id="Page-1" stroke="none" stroke-width="1" fill="none" fill-rule="evenodd">
        <g id="check-square-regular" fill-rule="nonzero" fill="#5DB85C">
            <path d="M22.3214286,0 L2.67857143,0 C1.19921875,0 0,1.19921875 0,2.67857143 L0,22.3214286 C0,23.8007812 1.19921875,25 2.67857143,25 L22.3214286,25 C23.8007812,25 25,23.8007812 25,22.3214286 L25,2.67857143 C25,1.19921875 23.8007812,0 22.3214286,0 Z M22.3214286,22.3214286 L2.67857143,22.3214286 L2.67857143,2.67857143 L22.3214286,2.67857143 L22.3214286,22.3214286 Z M20.3200893,8.83236607 L10.6890067,18.3861607 C10.4264509,18.646596 10.0024554,18.6449219 9.74202009,18.3823661 L4.67611607,13.2754464 C4.4156808,13.0128906 4.41735491,12.5888951 4.67996652,12.328404 L5.94776786,11.0708147 C6.21032366,10.8103795 6.6343192,10.8120536 6.89475446,11.0746652 L10.2313616,14.4383371 L18.119308,6.61378348 C18.3818638,6.35334821 18.8058594,6.35502232 19.0662946,6.61757813 L20.3238839,7.88532366 C20.5843192,8.14793527 20.5826451,8.5719308 20.3200893,8.83236607 Z" id="Shape"></path>
        </g>
    </g>
</svg>