<svg xmlns="http://www.w3.org/2000/svg" id="Layer_1" enable-background="new 0 0 135 135" viewBox="0 0 135 135"><path fill="#27aae1" d="M132.1,67.8c0,17.9-7.3,34.1-19.2,45.7c-0.1,0.1-0.3,0.3-0.4,0.4c-11.5,11.1-27.1,17.9-44.3,17.9
			c-32,0-58.5-23.5-63.2-54.1c-0.1-0.5-0.1-0.9-0.2-1.4c-0.3-1.9-0.4-3.9-0.5-5.9c0-0.9-0.1-1.7-0.1-2.6C4.1,42.3,19,20.3,40.6,10
			c1.9-0.9,3.8-1.7,5.8-2.4c0.1,0,0.2-0.1,0.2-0.1c6.7-2.4,13.9-3.7,21.5-3.7c5,0,9.8,0.6,14.5,1.7c0.6,0.1,1.3,0.3,1.9,0.5
			c5.6,1.5,10.9,3.7,15.7,6.5c1.1,0.6,2.2,1.3,3.3,2c9.2,6.1,16.7,14.5,21.7,24.4c0.4,0.8,0.8,1.5,1.1,2.3
			C130,49.3,132.1,58.3,132.1,67.8z"/><path fill="#39b54a" d="M123.7,42.4c-1.5,0.5-3.2,0.2-4.7-0.1c-3-0.6-5.9-1.1-8.9-1.6c-2.2-0.4-4.1-1.4-6.4-1.5
			C98.1,39,92.4,40,87.6,42.7c-3.4,1.9-6.3,5-8.1,8.6c-2.3,4.6-2.8,10-0.3,14.4c3.6,6.2,11.8,9,14.7,15.6c1.4,3.2,1.4,6.9,2.5,10.2
			c2.9,8.8,13,13.7,16.5,22.1c-0.1,0.1-0.3,0.3-0.4,0.4c-11.5,11.1-27.1,17.9-44.3,17.9c-10.1,0-20.1-2.4-29-7
			c-3.7-1.9-7.3-4.1-10.6-6.8C18.4,110.1,10.9,99.2,7,87c-0.4-1.2-0.7-2.4-1-3.7c-0.7-2.7-2.8-8.8,2.3-8c1.6,0.2,2.9,1.3,4.1,2.4
			c1.7,1.5,3.4,2.9,5.1,4.4c1.4,1.2,2.5,2.6,3.8,3.8c2.8,2.5,5.8,5,9.5,5.8c1.5,0.4,3.1,0.4,4.7,0.3c1.5-0.1,2.9-0.2,4.3-0.6
			c3.7-1.1,6.5-4.3,8.1-7.9c2.7-6.2,2.9-14.2,0.5-20.5c-1.7-4.4-5.1-8.3-9.5-9.9c-2.9-1-8.2-0.9-9.7-3.9c-1.4-2.9-0.8-6.6,1.3-8.9
			c1.2-1.3,2.8-2.1,4.4-3c2.3-1.2,4.6-2.4,6.9-3.6c3.5-1.8,7.2-3.9,8.4-7.6c1.8-5.6-2.3-10.9-3.4-16.2c-0.3-1.3-0.5-2.1,0.5-2.8
			c1-0.6,2.6-0.8,3.8-1.1c2.2-0.6,4.4-1.1,6.7-1.4c3.3-0.5,6.7-0.8,10.1-0.8c2.7,0,5.4,0.2,8.1,0.5c0.7,0.1,1.4,0.3,2.2,0.4
			c0.6,0.1,2.5,0.1,3,0.5c1.6,1.3-0.7,5.2-1.3,6.6c-0.8,1.9-1.3,4-1.4,6.1c-0.1,1.9,0.2,3.9,1.3,5.4c1.1,1.5,3.2,2.4,5,1.7
			c0.9-0.4,1.6-1.2,2.2-1.9c2.9-3.3,6.3-6.1,9.9-8.6c1.2-0.8,2.5-1.5,3.9-1.4c1.6,0.2,2.9,1.6,4.2,2.5c1.5,1.1,2.9,2.1,4.3,3.3
			c3,2.6,5.8,5.4,8.4,8.5c2.1,2.6,4,5.3,5.7,8.2c0.6,0.9,1.4,2.1,1.9,3.2C125.9,40.2,125.8,41.6,123.7,42.4z"/><path fill="#4ed15a" d="M40.6,43.4c0,0.1,0,0.1,0.1,0.2c0.8,2.3,4.9,4.2,6.6,5.8c4.7,4.1,8.3,9.7,9.9,15.7c3.5,13-3,27.6-16.2,31.8
			c-6.2,2-13.1,1.3-18.6-2.1c-2.5-1.5-10.3-10.3-13.5-8.5C8.3,86.6,7.7,86.9,7,87c-0.4-1.2-0.7-2.4-1-3.7c-0.7-2.7-2.8-8.8,2.3-8
			c1.6,0.2,2.9,1.3,4.1,2.4c1.7,1.5,3.4,2.9,5.1,4.4c1.4,1.2,2.5,2.6,3.8,3.8c2.8,2.5,5.8,5,9.5,5.8c1.5,0.4,3.1,0.4,4.7,0.3
			c1.5-0.1,2.9-0.2,4.3-0.6c3.7-1.1,6.5-4.3,8.1-7.9c2.7-6.2,2.9-14.2,0.5-20.5c-1.7-4.4-5.1-8.3-9.5-9.9c-2.9-1-8.2-0.9-9.7-3.9
			c-1.4-2.9-0.8-6.6,1.3-8.9c1.2-1.3,2.8-2.1,4.4-3c2.3-1.2,4.6-2.4,6.9-3.6c3.5-1.8,7.2-3.9,8.4-7.6c1.8-5.6-2.3-10.9-3.4-16.2
			c-0.3-1.3-0.5-2.1,0.5-2.8c1-0.6,2.6-0.8,3.8-1.1c2.2-0.6,4.4-1.1,6.7-1.4C58.3,5,58.5,5.5,58.7,6c2.5,6.5,4.3,15.2,0.7,21.6
			c-3.1,5.5-9.2,8.8-14.1,12.3c-1.1,0.8-3.7,1.9-4.3,3C40.8,43.3,40.7,43.4,40.6,43.4z"/><path fill="#2f9b39" d="M112.8,113.5c-0.1,0.1-0.3,0.3-0.4,0.4c-11.5,11.1-27.1,17.9-44.3,17.9c-10.1,0-20.1-2.4-29-7
			c1.5-1.1,3.5-1.7,5.8-1.2c6,1.1,13-1.5,19-2.1c6.3-0.6,12.6-0.5,18.8-1.4c5-0.7,10.1-2.1,14.3-4.9c1-0.7,3.8-2.6,4.3-4.1
			c-0.1,0.3-0.3-0.7-0.8-1.1c-0.8-0.9-1.7-1.6-2.6-2.4c-4.3-3.8-7.5-7.6-8.5-13.4c-0.4-2.3-0.2-4.8-2-6.6c-1.2-1.2-3.2-2-4.7-2.9
			C72,78,70.7,67.9,74.3,56.3c0.9-2.8,2.9-4.4,5.1-5c-2.3,4.6-2.8,10-0.3,14.4c3.6,6.2,11.8,9,14.7,15.6c1.4,3.2,1.4,6.9,2.5,10.2
			C99.2,100.2,109.3,105.1,112.8,113.5z"/><path fill="#47c0ea" d="M39,18.1C24.9,30.6,15,46.7,10.5,65c-0.9,3.6-3.5,5.2-6.3,5.3c0-0.9-0.1-1.7-0.1-2.6
			C4.1,42.3,19,20.3,40.6,10C41.9,12.5,41.8,15.6,39,18.1z"/><path fill="#202020" d="M132.6,59c-0.3-2.8-0.8-6.5-2.2-11.1C119.6,12,79.8-7.5,44.7,6.1c-25.1,9.7-43,33.4-42.5,63.4
		c0.5,20.6,11.3,41.3,30.2,53.4c12.1,7.8,26.7,11.3,40.2,10.2c19.6-1.3,34.7-10.6,46.8-25.3c3.2-4.1,5.6-8.3,7.4-12.4
		c1.8-4,3.1-7.8,3.9-11.2c0.8-3.4,1.2-6.4,1.5-8.8c0.2-2.4,0.3-4.3,0.2-5.6c0-1.3-0.1-2-0.2-2c-0.1,0-0.2,0.7-0.3,1.9
		c-0.1,1.3-0.3,3.2-0.6,5.5c-0.3,2.4-0.9,5.3-1.8,8.6c-0.9,3.3-2.3,7-4.2,10.8c-1.9,3.9-4.3,7.9-7.5,11.8c-1.8,2.1-3.6,4-5.5,5.8
		c-0.1-0.3-0.1-0.6-0.2-0.9c-0.4-1.5-1.3-3.7-3-6c-3.2-4.4-8.2-7-10.3-11.1c-0.4-0.8-0.7-1.6-0.9-2.5c-0.7-3.3-0.5-6.2-1.4-9.6
		c-0.3-1.2-0.8-2.4-1.6-3.5c-0.4-0.5-0.8-1.1-1.3-1.5c-0.3-0.3-22.4-12.1-10.2-28.9c9.4-12.8,24.3-6.1,36.5-5.4
		c2.7,0.1,4.3-0.2,5.2-0.6c1,2.1,1.8,4.2,2.6,6.4c1.5,4.4,2.2,7.9,2.7,10.6c0.5,2.7,0.7,4.5,0.9,5.8c0.3,2.5,0.6,2.7,0.9,2.7
		c0.3,0,0.6-0.2,0.7-2.8C132.9,63.7,132.9,61.8,132.6,59z M82.4,7.4c5.3,1.3,10.4,3.2,15.2,5.8c-0.7,0.1-1.5,0.3-2.4,0.5
		c-4.8,1.5-6.8,4.3-8.7,6.8c-0.7,0.9-1.5,1.9-2.4,2.7c-2.6,2.2-4.4-0.7-3.7-6.6c0.4-3,1.2-5.7,1.7-7.7C82.2,8.3,82.3,7.8,82.4,7.4z
		 M46.1,9.9c0.1,0,0.2-0.1,0.3-0.1c0,0.3,0.1,0.5,0.1,0.8c0.4,1.9,1.3,4.5,2.2,7.7c3,11.4-4.9,12.7-13.9,16.7c-2.4,1.1-5,2.5-7,5
		c-0.9,1.3-1.6,2.7-1.9,4.3c-0.3,1.6-0.3,3.3,0.3,4.9c0.6,1.6,2,3.1,3.6,3.9c1.6,0.8,3.1,1,4.4,1.2c7.4,1.4,11.6,7.2,12.9,14.9
		c0.4,2.2,0.4,4.4,0.3,6.4c-0.2,2-0.5,4.1-0.9,5.9c-0.4,1.9-1,3.7-1.7,5.2c-0.3,0.7-0.8,1.4-1.2,1.9c-0.4,0.4-0.9,0.8-1.6,1.2
		C30.9,95.6,18,79.3,14,76.4c-1.2-0.9-2.3-1.5-3.4-2c-0.5-0.2-1-0.4-1.5-0.6c-0.5-0.2-1.3-0.3-1.9-0.2c-0.3,0.1-0.6,0.2-0.8,0.3
		c-0.1-1.5-0.3-3.1-0.3-4.6C5.8,41.4,22.4,19.1,46.1,9.9z M120.2,40c-1.5-0.3-3.3-0.6-5.5-1.1C101,36,88.8,33.8,80,45.9
		c-7.4,10.2-6.2,23.2,10.2,33c0.9,0.5,1.5,1.1,2,1.8c0.5,0.7,0.9,1.5,1.2,2.5c0.9,2.8,0.8,5.9,1.7,9.4c2.7,9.1,10.8,8.4,16.1,19.3
		c0.2,0.4,0.4,0.8,0.5,1.1c-10.7,10.2-23.5,16.5-39.5,17.4c-13,0.9-26.7-2.7-38.1-10.2C18.5,109.7,9.1,93.5,6.7,76.9
		c0.2-0.5,0.5-0.7,0.9-0.7c0.2,0,0.2,0,0.6,0.2c0.3,0.2,0.8,0.3,1.2,0.6c0.8,0.5,1.7,1.1,2.7,1.9c3.9,3.3,6.2,7.4,13,11.8
		c6.4,4.1,12.3,6.1,19,2.7c5.4-2.8,7-11.3,7.5-17.4c0.2-2.4,0-4.8-0.4-7.4c-1.5-8.3-5.9-14.9-14-17.2c-0.7-0.2-1.5-0.4-2.1-0.5
		c-1.4-0.2-2.6-0.4-3.5-0.9c-0.9-0.4-1.5-1.1-1.9-2c-0.8-1.8-0.3-4.4,1-6.2c0.1-0.2,0.3-0.4,0.5-0.6c0.2-0.2,0.4-0.4,0.6-0.6
		c0.4-0.4,0.9-0.8,1.4-1.1c6.6-4.8,22.5-6.2,17.4-21.6c-0.6-1.6-1.2-3.1-1.7-4.3c-0.5-1.2-0.9-2.3-1.3-3.2c-0.1-0.3-0.2-0.6-0.3-0.8
		c11.3-4.2,23.1-4.8,34.2-2.4c-0.2,0.3-0.4,0.7-0.6,1.1c-1,1.9-2.2,4.5-3,7.8c-2,9,2,12.2,6.2,11.6c1.2-0.2,2.1-0.8,2.9-1.4
		c5.4-4.3,3.1-7.5,14.5-10.4c0.3-0.1,0.5-0.1,0.8-0.2c9.2,5.9,17,14.3,22.2,24.8C123.3,40.4,122,40.3,120.2,40z"/></svg>