<svg xmlns="http://www.w3.org/2000/svg" enable-background="new 0 0 260 260" viewBox="0 0 260 260"><path fill="#EDF5F9" d="M99.6332474,29.9089355c-0.5522461,0-1-0.4477539-1-1v-5.4379883c0-0.5522461,0.4477539-1,1-1
				s1,0.4477539,1,1v5.4379883C100.6332474,29.4611816,100.1854935,29.9089355,99.6332474,29.9089355z"/><path fill="#EDF5F9" d="M102.3524857 27.1901855h-5.4379883c-.5522461 0-1-.4477539-1-1s.4477539-1 1-1h5.4379883c.5522461 0 1 .4477539 1 1S102.9047318 27.1901855 102.3524857 27.1901855zM147.4950562 26.4709473c-1.6542969 0-3-1.3457031-3-3s1.3457031-3 3-3 3 1.3457031 3 3S149.149353 26.4709473 147.4950562 26.4709473zM147.4950562 22.4709473c-.5512695 0-1 .4487305-1 1s.4487305 1 1 1 1-.4487305 1-1S148.0463257 22.4709473 147.4950562 22.4709473z"/><path fill="#EDF5F9" d="M188.6049194 247.869873h-90.810051c-3.8237305 0-6.9345703-3.1108398-6.9345703-6.9350586v-3.8696289c0-2.7211914-2.2138672-4.9350586-4.9350586-4.9350586H50.3549232c-8.2514648 0-14.9648438-6.7133789-14.9648438-14.965332v-22.6748047c0-3.5732422-2.9067383-6.4799805-6.4799786-6.4799805-4.6757813 0-8.4799805-3.8041992-8.4799805-8.4799805v-5.6801758c0-4.6757813 3.8041992-8.4799805 8.4799805-8.4799805h10.9848614c7.1489258 0 12.965332-5.815918 12.965332-12.9648438v-8.4399414c0-7.1489258-5.8164063-12.965332-12.965332-12.965332H16.3051205c-8.2514648 0-14.9648438-6.7133789-14.9648438-14.9648438V96.8146973c0-8.2514648 6.7133789-14.9648438 14.9648438-14.9648438h74.75c7.1489258 0 12.965332-5.815918 12.965332-12.9648438S98.2040482 55.920166 91.0551224 55.920166H67.8251419c-8.2514687 0-14.9648476-6.7133789-14.9648476-14.965332V27.0949707c0-8.2514648 6.7133789-14.9648438 14.9648476-14.9648438h125.5551682c2.7568359 0 5 2.2431641 5 5s-2.2431641 5-5 5h-23.8603516c-1.5825195 0-2.8696289 1.2871094-2.8696289 2.8696289s1.2871094 2.8701172 2.8696289 2.8701172h50.6953125c6.3105469 0 11.4448242 5.1342773 11.4448242 11.4448242 0 6.3110352-5.1342773 11.4453125-11.4448242 11.4453125h-41.4946289c-3.4516602 0-6.5263672 1.7944336-8.2236328 4.7998047-1.6977539 3.0048828-1.6474609 6.5639648.1342773 9.5205078l17.3432617 28.7773438c2.331543 3.8691406 6.5869141 6.2724609 11.1044922 6.2724609h46.9311523c2.7568359 0 5 2.2431641 5 5v6.4199219c0 2.7568359-2.2431641 5-5 5h-3.6098633c-1.6542969 0-3 1.3457031-3 3v10.1201172c0 2.7568359-2.2431641 5-5 5h-21.7651367c-7.1489258 0-12.9648438 5.815918-12.9648438 12.9648438v23.6098633c0 7.1489258 5.815918 12.9648438 12.9648438 12.9648438h24.699707c8.2519531 0 14.965332 6.7133789 14.965332 14.965332v14.3798828c0 8.2514648-6.7133789 14.9648438-14.965332 14.9648438h-94.324707c-1.5107422 0-2.7397461 1.2294922-2.7397461 2.7402344s1.2290039 2.7397461 2.7397461 2.7397461h45.5947266c3.8242188 0 6.9350586 3.1108398 6.9350586 6.9350586S192.4291382 247.869873 188.6049194 247.869873zM28.9101009 167.369873c-3.5732422 0-6.4799805 2.9067383-6.4799805 6.4799805v5.6801758c0 3.5732422 2.9067383 6.4799805 6.4799805 6.4799805 4.6757793 0 8.4799786 3.8041992 8.4799786 8.4799805v22.6748047c0 7.1489258 5.815918 12.965332 12.9648438 12.965332h35.5703163c3.8242188 0 6.9350586 3.1108398 6.9350586 6.9350586v3.8696289c0 2.7211914 2.2138672 4.9350586 4.9345703 4.9350586h90.810051c2.7211914 0 4.9350586-2.2138672 4.9350586-4.9350586s-2.2138672-4.9350586-4.9350586-4.9350586h-45.5947266c-2.6132813 0-4.7397461-2.1264648-4.7397461-4.7397461 0-2.6137695 2.1264648-4.7402344 4.7397461-4.7402344h94.324707c7.1489258 0 12.965332-5.815918 12.965332-12.9648438v-14.3798828c0-7.1489258-5.8164063-12.965332-12.965332-12.965332h-24.699707c-8.2514648 0-14.9648438-6.7133789-14.9648438-14.9648438v-23.6098633c0-8.2514648 6.7133789-14.9648438 14.9648438-14.9648438h21.7651367c1.6542969 0 3-1.3457031 3-3v-10.1201172c0-2.7568359 2.2431641-5 5-5h3.6098633c1.6542969 0 3-1.3457031 3-3v-6.4199219c0-1.6542969-1.3457031-3-3-3h-46.9311523c-5.2148438 0-10.1259766-2.7744141-12.8173828-7.2402344L168.918396 66.1125488c-2.1591797-3.5820313-2.2202148-7.8950195-.1630859-11.5366211s5.7827148-5.815918 9.965332-5.815918h41.4946289c5.2080078 0 9.4448242-4.2373047 9.4448242-9.4453125s-4.2368164-9.4448242-9.4448242-9.4448242h-50.6953125c-2.6850586 0-4.8696289-2.1845703-4.8696289-4.8701172 0-2.6850586 2.1845703-4.8696289 4.8696289-4.8696289h23.8603516c1.6542969 0 3-1.3457031 3-3s-1.3457031-3-3-3H67.8251419c-7.1489296 0-12.9648476 5.815918-12.9648476 12.9648438V40.954834c0 7.1489258 5.815918 12.965332 12.9648476 12.965332h23.2299805c8.2519531 0 14.965332 6.7133789 14.965332 14.9648438s-6.7133789 14.9648438-14.965332 14.9648438h-74.75c-7.1489258 0-12.9648438 5.815918-12.9648438 12.9648438v19.2202148c0 7.1489258 5.815918 12.9648438 12.9648438 12.9648438h23.5898418c8.2519531 0 14.965332 6.7133789 14.965332 14.965332v8.4399414c0 8.2514648-6.7133789 14.9648438-14.965332 14.9648438H28.9101009zM17.9682064 238.223877c-.5522461 0-1-.4477539-1-1v-5.4384766c0-.5522461.4477539-1 1-1s1 .4477539 1 1v5.4384766C18.9682064 237.776123 18.5204525 238.223877 17.9682064 238.223877z"/><path fill="#EDF5F9" d="M20.6874447 235.5046387h-5.4384766c-.5522461 0-1-.4477539-1-1s.4477539-1 1-1h5.4384766c.5522461 0 1 .4477539 1 1S21.2396908 235.5046387 20.6874447 235.5046387zM235.203064 76.0500488c-1.6542969 0-3-1.3457031-3-3s1.3457031-3 3-3 3 1.3457031 3 3S236.8573608 76.0500488 235.203064 76.0500488zM235.203064 72.0500488c-.5512695 0-1 .4487305-1 1s.4487305 1 1 1 1-.4487305 1-1S235.7543335 72.0500488 235.203064 72.0500488zM222.6317749 222.8112793c-2.2055664 0-4-1.7944336-4-4s1.7944336-4 4-4 4 1.7944336 4 4S224.8373413 222.8112793 222.6317749 222.8112793zM222.6317749 216.8112793c-1.1030273 0-2 .8969727-2 2s.8969727 2 2 2 2-.8969727 2-2S223.7348022 216.8112793 222.6317749 216.8112793zM35.0995522 45.4929199c-1.6542969 0-3-1.3457031-3-3s1.3457031-3 3-3 3 1.3457031 3 3S36.753849 45.4929199 35.0995522 45.4929199zM35.0995522 41.4929199c-.5512695 0-1 .4487305-1 1s.4487305 1 1 1 1-.4487305 1-1S35.6508217 41.4929199 35.0995522 41.4929199zM24.8461361 204.6960449c-2.2055664 0-4-1.7944336-4-4s1.7944336-4 4-4 4 1.7944336 4 4S27.0517025 204.6960449 24.8461361 204.6960449zM24.8461361 198.6960449c-1.1030273 0-2 .8969727-2 2s.8969727 2 2 2 2-.8969727 2-2S25.9491634 198.6960449 24.8461361 198.6960449zM254.9403687 144.8693848c-.5522461 0-1-.4477539-1-1v-5.4379883c0-.5522461.4477539-1 1-1s1 .4477539 1 1v5.4379883C255.9403687 144.4216309 255.4926147 144.8693848 254.9403687 144.8693848z"/><path fill="#EDF5F9" d="M257.6596069 142.1506348h-5.4379883c-.5522461 0-1-.4477539-1-1s.4477539-1 1-1h5.4379883c.5522461 0 1 .4477539 1 1S258.211853 142.1506348 257.6596069 142.1506348zM248.0819702 178.2678223c-1.6542969 0-3-1.3457031-3-3s1.3457031-3 3-3 3 1.3457031 3 3S249.7362671 178.2678223 248.0819702 178.2678223zM248.0819702 174.2678223c-.5512695 0-1 .4487305-1 1s.4487305 1 1 1 1-.4487305 1-1S248.6332397 174.2678223 248.0819702 174.2678223z"/><path fill="#434A54" d="M217.9680023,121.6292725c0,20.1227112-16.3164368,36.4499207-36.4499207,36.4499207
		c-19.1627808,0-111.4678268,0-130.0014496,0c-18.52285,0-33.5486221-15.0257721-33.5486221-33.5486221
		c0-18.5336151,15.025774-33.5486221,33.5486221-33.5486221c0.5844612,0,1.1581497,0.0113144,1.7431488,0.0441742
		c-0.0775681-0.9706879-0.1217384-1.9521561-0.1217384-2.9454727c0-20.1442566,16.3277473-36.4606934,36.4499168-36.4606934
		c8.285347,0,15.9302139,2.7687836,22.0640945,7.4358559c7.5349731-11.0546684,20.232605-18.3133011,34.6297455-18.3133011
		c23.1452026,0,41.8996887,18.7544746,41.8996887,41.8883781c0,1.0590286-0.0441742,2.1072922-0.1212006,3.1442337
		C205.0716095,88.8423386,217.9680023,103.7242889,217.9680023,121.6292725z"/><path fill="#25BAF4" d="M227.1952209,121.6292725c0,20.1227112-16.3164368,36.4499207-36.4499207,36.4499207
			c-19.1627808,0-111.4678268,0-130.0014496,0c-18.52285,0-33.5486221-15.0257721-33.5486221-33.5486221
			c0-18.5336151,15.025774-33.5486221,33.5486221-33.5486221c0.5844612,0,1.1581497,0.0113144,1.7431488,0.0441742
			c-0.0775681-0.9706879-0.1217384-1.9521561-0.1217384-2.9454727c0-20.1442566,16.3277473-36.4606934,36.4499168-36.4606934
			c8.285347,0,15.9302139,2.7687836,22.0640945,7.4358559c7.5349731-11.0546684,20.232605-18.3133011,34.6297455-18.3133011
			c23.1452026,0,41.8996887,18.7544746,41.8996887,41.8883781c0,1.0590286-0.0441742,2.1072922-0.1212006,3.1442337
			C214.2988281,88.8423386,227.1952209,103.7242889,227.1952209,121.6292725z"/><path fill="#0091DE" d="M227.1912842,121.6267395c0,20.1298828-16.3100586,36.4501953-36.4501953,36.4501953h-130
			c-18.5200195,0-33.5498047-15.0200195-33.5498047-33.550293c0-1.8496094,0.1499023-3.6699219,0.4399414-5.4399414
			c2.6000977,15.9301758,16.4399433,28.1098633,33.1098633,28.1098633h130
			c18.2802734,0,33.4101563-13.4599609,36.0400391-30.9897461
			C227.0511475,117.9768372,227.1912842,119.7868958,227.1912842,121.6267395z"/><path fill="#3FD0FC" d="M116.0799332,80.8561554c0,13.577034-11.0084686,24.5851822-24.5919571,24.5851822
			c-13.577034,0-24.5851822-11.0081482-24.5851822-24.5851822c0-13.5838089,11.0081482-24.5919533,24.5851822-24.5919533
			C105.0714645,56.2642021,116.0799332,67.2723465,116.0799332,80.8561554z" opacity=".4"/><path fill="#5FE1FF" d="M97.9554672,74.5466385c0,7.7194214-6.2590256,13.9782639-13.9821091,13.9782639
			c-7.7194138,0-13.9782562-6.2588425-13.9782562-13.9782639c0-7.7232666,6.2588425-13.9821053,13.9782562-13.9821053
			C91.6964417,60.5645332,97.9554672,66.8233719,97.9554672,74.5466385z" opacity=".3"/><g opacity=".4"><path fill="#3FD0FC" d="M190.9989777,75.6917419c0,17.6152191-14.2826843,31.8974838-31.9062653,31.8974838
			c-17.6152191,0-31.8974838-14.2822647-31.8974838-31.8974838c0-17.6240005,14.2822647-31.9062691,31.8974838-31.9062691
			C176.7162933,43.7854729,190.9989777,58.0677414,190.9989777,75.6917419z"/></g><g opacity=".3"><path fill="#5FE1FF" d="M184.3379822,64.0186462c0,10.0153809-8.120636,18.1357727-18.1407776,18.1357727
			c-10.0153809,0-18.1357574-8.1203918-18.1357574-18.1357727c0-10.0203781,8.1203766-18.1407661,18.1357574-18.1407661
			C176.2173462,45.8778801,184.3379822,53.9982681,184.3379822,64.0186462z"/></g><path fill="#434A54" d="M150.8162842,106.5638885c-6.812027-6.8209-16.2245026-11.0315628-26.6197205-11.0315628
		c-20.7993011,0-37.6601563,16.8612976-37.6601563,37.6512833v24.2097473
		c4.9744568-5.183609,11.0133514-9.3583069,17.7703094-12.131958v-9.0945435
		c0-10.9862595,8.9035797-19.8898468,19.8898468-19.8898468c5.4931335,0,10.4587097,2.2278976,14.0601196,5.8204117
		c3.592514,3.6014023,5.8204041,8.5763016,5.8204041,14.0694351v9.0945435
		c6.7574005,2.7829742,12.7962952,6.948349,17.770752,12.131958V133.183609
		C161.8478394,122.7888336,157.6282959,113.3759079,150.8162842,106.5638885z"/><circle cx="124.192" cy="189.41" r="52.145" fill="#434A54"/><g><path fill="#FFF" d="M156.8233337,106.5680466c-6.8120117-6.8209-16.2245026-11.0315628-26.6197052-11.0315628
			c-20.7993088,0-37.6601639,16.8608551-37.6601639,37.6512756v24.2097626
			c4.9744568-5.1840668,11.0133514-9.3583221,17.7703094-12.1324158v-9.0945282
			c0-0.2819824,0.0093231-0.5546417,0.0182037-0.8366241c0.4365234-10.595047,9.1673584-19.0527878,19.8716507-19.0527878
			c5.4931335,0,10.4587097,2.2278976,14.0601044,5.8204117c3.4104462,3.4193344,5.5930481,8.0758362,5.8026581,13.2323761
			c0.0088806,0.2819824,0.0177612,0.5546417,0.0177612,0.8366241v9.0945282
			c6.7573853,2.7829895,12.7962799,6.948349,17.770752,12.1324158v-24.2097626
			C167.8549042,122.7925491,163.6353607,113.3796234,156.8233337,106.5680466z"/></g><g><path fill="#EDF5F9" d="M92.5434647,145.8561707c5.2018204-4.5015411,11.2131882-8.0940552,17.7885132-10.5222168
			c-0.0088806,0.2819824-0.0182037,0.5546417-0.0182037,0.8366241v9.0945282
			c-6.756958,2.7740936-12.7958527,6.948349-17.7703094,12.1324158V145.8561707z"/></g><g><path fill="#EDF5F9" d="M167.8549042,145.8561707v11.5413513c-4.974472-5.1840668-11.0133667-9.3494263-17.770752-12.1324158
			v-9.0945282c0-0.2819824-0.0088806-0.5546417-0.0177612-0.8366241
			C156.6412659,137.7621155,162.6530762,141.3546295,167.8549042,145.8561707z"/></g><g><path fill="#EDF5F9" d="M156.8233337,106.5638885c-6.8120117-6.8209-16.2245026-11.0315628-26.6197052-11.0315628
			c-20.7993088,0-37.6601639,16.8612976-37.6601639,37.6512833v5.8568268c0-20.7899857,16.8608551-37.6512833,37.6601639-37.6512833
			c10.3952026,0,19.8076935,4.2111053,26.6197052,11.0320053c6.812027,6.8115768,11.0315704,16.2245026,11.0315704,26.619278
			v-5.8568268C167.8549042,122.7888336,163.6353607,113.3759079,156.8233337,106.5638885z"/></g><g><circle cx="130.199" cy="189.41" r="52.145" fill="#FFD372"/></g><g opacity=".2"><path fill="#FFF" d="M153.6855469,142.8462677c-2.4281769,26.5375519-24.7461853,47.3279877-51.9205475,47.3279877
			c-8.4488525,0-16.4247818-2.0098572-23.481926-5.5752869c2.4188461-26.5468903,24.7368622-47.3368683,51.9116745-47.3368683
			C138.643158,137.2621002,146.6284027,139.2719574,153.6855469,142.8462677z"/></g><g><path fill="#FFB85A" d="M182.3426514,189.4100037c0,28.8023224-23.3455963,52.1483612-52.1479034,52.1483612
			c-23.0365295,0-42.5808945-14.9424896-49.4741745-35.6596375c9.3578644,13.9597626,25.2732925,23.1453247,43.3442383,23.1453247
			c28.8023148,0,52.1483536-23.3455963,52.1483536-52.1479034c0-5.7569122-0.9281006-11.2864685-2.6559753-16.4611969
			C179.10495,168.7199402,182.3426514,178.6875153,182.3426514,189.4100037z"/></g><g><path fill="#31394C" d="M135.5527802,190.8496246l1.5914154,15.3250732
			c0.1091766,1.0514679-0.7155914,1.9663239-1.7727203,1.9663239h-10.3450546c-1.0571213,0-1.881897-0.914856-1.7727127-1.9663239
			l1.5914154-15.3250732c-3.5800476-2.0478516-5.8752441-6.0761108-5.3750076-10.6063843
			c0.543541-4.9225159,4.5171967-8.9167328,9.4365005-9.4885406c6.5377197-0.7599182,12.089035,4.3356018,12.089035,10.7216339
			C140.9956512,185.4959869,138.8039703,188.9896545,135.5527802,190.8496246z"/><path fill="#31394C" d="M198.3433838,84.9631348c0.039978-0.800293,0.0700073-1.5800781,0.0700073-2.3300781
				c0-23.6503906-19.25-42.8901367-42.9000244-42.8901367c-1.5499878,0-3.0800171,0.0800781-4.5999756,0.25
				c-13.2900391-1.4902344-27.1100388,3.4599609-36.5500412,13.9897461
				c-6.1799927-2.8300781-13.0799561-3.9199219-20.1499634-3.0800781
				C71.903389,48.1228027,52.1333656,65.6027832,52.1333656,88.0827637c0,0.6201172,0.0200195,1.2602539,0.0599976,1.8999023
				h-0.6799927c-19.0499878,0-34.5499878,15.5-34.5499878,34.550293c0,19.0498047,15.4999981,34.5498047,34.5499878,34.5498047
				h29.0600014c-6.0100098,8.6098633-9.5299683,19.0698242-9.5299683,30.3300781
				c0,29.300293,23.8399658,53.1401367,53.1499634,53.1401367c1.0100098,0,2.0100098-0.0302734,3.0100098-0.0898438
				c0.9899826,0.0595703,1.9899826,0.0898438,2.9999924,0.0898438c29.2999878,0,53.1400146-23.8398438,53.1400146-53.1401367
				c0-11.2602539-3.5200195-21.7202148-9.5300293-30.3300781h16.9299927c20.6500244,0,37.4500122-16.7998047,37.4500122-37.449707
				C228.1933594,103.7927246,215.6933594,88.5129395,198.3433838,84.9631348z M141.8033447,41.9929199
				c-8.4199829,2.8300781-15.849968,8.25-21.1499557,15.6499023c-1.4199829-1.0200195-2.9000244-1.9399414-4.4199829-2.7402344
				C122.903389,47.6628418,131.9833984,43.0627441,141.8033447,41.9929199z M86.3133621,52.7727051
				c-14.5199585,5.1503906-24.950016,19.0302734-24.950016,35.3100586c0,0.6201172,0.0200195,1.2602539,0.0500488,1.8999023
				H60.743351c-2.2199707,0-4.3999634,0.2099609-6.5099487,0.6201172c-0.0700073-0.8598633-0.1000366-1.7099609-0.1000366-2.5200195
				C54.1333656,69.6228027,68.3033524,54.4328613,86.3133621,52.7727051z M18.9633846,124.532959
				c0-17.050293,13.1799908-31.0698242,29.8699932-32.4301758c-13.2000122,4.8603516-22.6400127,17.5600586-22.6400127,32.4301758
				c0,14.8696289,9.4400005,27.5698242,22.6400127,32.4301758C32.1433754,155.6027832,18.9633846,141.572998,18.9633846,124.532959z
				 M73.0434036,189.4128418c0-15.8500977,7.289978-30.0600586,18.5-39.3398438c0,0.5498047,0,2.8999023,0,2.8999023
				c-8.9100342,9.4199219-14.4900513,22.2998047-14.4900513,36.4399414c0,22.1098633,13.5800171,41.1098633,32.8400269,49.1098633
				C88.6333694,232.322998,73.0434036,212.6525879,73.0434036,189.4128418z M130.2033691,115.2727051
				c-1.0200195,0-2.0299683,0.0703125-3.0100021,0.2202148c-2.3399658,0.3398438-4.5499878,1.0698242-6.5700073,2.1201172
				c-6.7099609,3.4697266-11.3099976,10.4897461-11.3099976,18.5498047v4.3798828
				c-5.8599854,2.4799805-11.3599854,6.2001953-15.7699585,10.4101563v-17.7700195
				c0-24.1000977,22.9599609-41.6401367,46.2399826-35.3901367c15.1400146,3.9799805,27.0700073,18.1000977,27.0700073,35.3901367
				v17.7700195c-4.4200439-4.2099609-9.7800293-7.8500977-15.7700195-10.4101563v-4.3798828
				C151.083374,124.6130371,141.7333984,115.2727051,130.2033691,115.2727051z M133.8133545,117.6130371
				c8.6300049,1.6699219,15.2700195,9.2797852,15.2700195,18.5498047v3.5698242
				c-1.3099976-0.5-2.6500244-0.949707-4.0100098-1.3496094
				C144.9833984,138.0529785,146.5033569,124.2229004,133.8133545,117.6130371z M143.0733643,136.1628418v1.6801758
				c-7.1799927-1.800293-11.8900146-1.5800781-18.8799973-1.5800781c-4.4400024,0-8.7600098,0.5498047-12.8800049,1.5800781
				v-1.6801758c0-9.3999023,6.9000244-17.2202148,15.9100342-18.6499023
				C136.1933594,118.9631348,143.0733643,126.7028809,143.0733643,136.1628418z M91.5434036,133.1828613v14.3198242
				c-1.3900146,1.0800781-2.7300415,2.2299805-4.0100098,3.4501953v-17.7700195
				c0-16.9101563,11.5199585-31.1899414,27.1300049-35.3901367
				C101.0633621,103.782959,91.5434036,117.3928223,91.5434036,133.1828613z M181.3433838,189.4128418
				c0,23.2397461-15.5800171,42.9101563-36.8400269,49.1098633c-4.539978,1.3203125-9.3399658,2.0302734-14.2999878,2.0302734
				c-1.0100098,0-2.0100098-0.0302734-2.9999924-0.0898438c-26.8200073-1.550293-48.1500244-23.8603516-48.1500244-51.050293
				c0-11.3398438,3.7200317-21.8398438,10-30.3300781c3.5700073-4.949707,9.4800415-10.0097656,9.75-10.0097656
				C131.7233887,123.2229004,181.3433838,146.5129395,181.3433838,189.4128418z M194.0133667,156.9328613
				c-1.0800171,0.1000977-2.1699829,0.1499023-3.2700195,0.1499023h-18.3899536
				c-1.0900269-1.4301758-2.2600098-2.7998047-3.5-4.1098633v-19.7900391c0-22.7597656-19.4400024-40.2998047-41.6899948-38.5302734
				c-22.2399902-1.7895508-41.6300049,15.9501953-41.6300049,38.5302734v19.7900391
				c-1.2399902,1.3100586-2.4100342,2.6796875-3.5,4.1098633H60.743351c-17.9499512,0-32.5499878-14.6098633-32.5499878-32.5498047
				c0-17.9501953,14.6000347-32.550293,32.5499878-32.550293c0.5700073,0,1.1199951,0.0102539,1.6900024,0.0400391
				c0.2900391,0.0102539,0.5700073-0.0898438,0.7700195-0.2998047c0.2000122-0.2001953,0.2999878-0.4902344,0.2800293-0.7802734
				c-0.0800171-1-0.1200562-1.9399414-0.1200562-2.8598633c0-25.9799805,26.7800331-42.5400391,49.6500282-32.5097656
				c0.6300049,0.2797852,1.2399902,0.5698242,1.8499756,0.8901367c1.8900146,0.949707,3.6900024,2.0795898,5.4100342,3.3896484
				c0.2199707,0.1601563,0.5,0.2299805,0.7700195,0.1899414c0.2699585-0.0400391,0.5099487-0.199707,0.6599731-0.4199219
				c7.7399826-11.3598633,20.4600143-17.8798828,33.8099899-17.8798828c1.5100098,0,2.9899902,0.0800781,4.460022,0.2397461
				c20.4599609,2.2304688,36.4400024,19.6103516,36.4400024,40.6503906c0,0.9799805-0.0400391,2.0097656-0.1199951,3.0698242
				c-0.0400391,0.5102539,0.3099976,0.9702148,0.8199463,1.0600586
				c16.8500366,3.0400391,29.0800171,17.7001953,29.0800171,34.8701172
				C226.1933594,140.072998,212.0333862,155.2727051,194.0133667,156.9328613z"/><path fill="#31394C" d="M98.1833572 159.0529785c-.3899536-.3603516-.9899902-.3398438-1.3599854.0297852-.0200195.0102539-.0299683.0200195-.0499878.0400391-6.75 7.4301758-10.8599854 17.0200195-11.5800171 26.9902344-.039978.5498047.3699951 1.0297852.9199829 1.0698242h.0700073c.5200195 0 .960022-.3999023 1-.9199219.6900024-9.5302734 4.6199951-18.6899414 11.0700073-25.7998047.3599854-.4003906.3400269-1.0102539-.039978-1.3803711L98.1833572 159.0529785zM105.193367 151.8527832c-1.2000122.7998047-2.3800049 1.6699219-3.5 2.5898438-.4199829.3500977-.4899902.9804688-.1400146 1.4101563.2000122.2402344.4900513.3603516.7800293.3603516.2199707 0 .4400024-.0703125.6300049-.2202148 2.9446793-2.421463 4.3862381-2.6850128 3.6199951-3.8598633C106.2733841 151.6730957 105.653389 151.5529785 105.193367 151.8527832zM141.9933472 181.4729004c0-3.3598633-1.4400024-6.5703125-3.9499512-8.8100586-7.1600342-6.3901367-18.5200119-1.9199219-19.5699997 7.4702148-.4899902 4.4799805 1.5799561 8.8198242 5.3099976 11.2397461l-1.5200195 14.7001953c-.0899658.7797852.1699829 1.5600586.7000122 2.1499023.5200195.5800781 1.2799683.9199219 2.0599976.9199219h10.349968c.7800293 0 1.5400391-.3398438 2.0599976-.9199219.5300293-.5898438.7900391-1.3701172.710022-2.1499023l-1.5300293-14.7001953C139.9533691 189.2131348 141.9933472 185.4729004 141.9933472 181.4729004zM135.0533447 189.982666c-.3399658.2001953-.539978.5800781-.5.9702148l1.6000366 15.3300781c.0200195.2197266-.0499878.4301758-.2000122.6000977s-.3599854.2597656-.5800171.2597656h-10.349968c-.2200317 0-.4299927-.0898438-.5800171-.2597656-.1499634-.1699219-.2199707-.3803711-.1900024-.6000977 1.3599854-15.3300781 2.1500244-15.6699219 1.0900269-16.300293-3.4000244-1.9399414-5.3099976-5.7197266-4.8800049-9.6298828.8599854-7.8198242 10.3099899-11.4799805 16.2499924-6.1899414 2.0800171 1.8500977 3.2799683 4.5200195 3.2799683 7.3100586C139.9933472 184.982666 138.1033936 188.2429199 135.0533447 189.982666z"/></g></svg>