<svg xmlns="http://www.w3.org/2000/svg" width="128" height="128" viewBox="0 0 128 128"><path fill="#b8d4ea" d="M107.59,78.46l-14,.33c-.75,0-9.28,2.21-10,2.43C81,82.11,78,85,78,92.5V107h46V91.61c0-3.43-1.56-9-5.49-10.39C114.74,80.12,112,79.45,107.59,78.46Z"/><path fill="#9ac1e1" d="M123,104V90.34c0-2.86-1.31-7.81-4.82-9-1.33-.37-2.7-.69-3.91-1,3.31,2.19,5.73,4.72,5.73,10V104Z"/><path fill="#ebf2ff" d="M107,80s-5.2,4.87-6.46,6.09C99.57,85.16,94,80,94,80V68h13Z"/><path fill="#b8d4ea" d="M105,79.8V70h-1.48l-.2,10.87C104.06,80.72,104.26,79.92,105,79.8Z"/><path fill="#ebf2ff" d="M89,63.51A11.63,11.63,0,0,0,100.77,75h1.46A11.63,11.63,0,0,0,114,63.51v-10A11.63,11.63,0,0,0,102.23,42h-1.46A11.63,11.63,0,0,0,89,53.49Z"/><path fill="#b8d4ea" d="M111,62.74c-.06,4.45-3,7.68-7,9.26a12.37,12.37,0,0,0,5-9.26v-10a13.59,13.59,0,0,0-5-9.85,10.9,10.9,0,0,1,7,9.85Z"/><path fill="#fabf4d" d="M86.06,50c.92-6.72,7.23-11.91,16.24-11.5,4.39.77,7.69.3,11-3a6.42,6.42,0,0,1,1.21,3.42,8.63,8.63,0,0,1-1.36,3.78c.22.58,2.79-2,2.88-1.29a12.78,12.78,0,0,1,0,3.17c-.23,1.87-1.46,2.93-1.28,4.88A35.55,35.55,0,0,1,114,59.73c-.85-1.91-2.33-7.84-3.61-8.82-5,3.14-11.11,3.79-19,3.63-1.51,0-2.35,5.27-3.51,6.34C88,60.88,85.43,54.63,86.06,50Z"/><path fill="#f2b01f" d="M99.87,39.24l-1,0a14.81,14.81,0,0,0-7.07,2.42,18,18,0,0,1,3.68-.92c10.64-1.35,16.07,4.34,17,9.81.06.29.76,1.44,1.07,2.43a52.59,52.59,0,0,0,.7-9.45c-2,.61-2.69-.35-3-1.17s2.27-4.4,1.21-5c-1.67,1.37-6.66,2.85-7.92,2.5A17.18,17.18,0,0,0,99.87,39.24Z"/><path fill="#b8d4ea" d="M29.16,79h-8.9C9.81,80.08,3,87.31,3,98.13V107H46V96.45C46,87.31,39.55,79.36,29.16,79Z"/><path fill="#ebf2ff" d="M25,87.67a9,9,0,0,0,9.34-7.24A20.11,20.11,0,0,0,24.2,77.91a22.22,22.22,0,0,0-8.75,2S17.09,87.5,25,87.67Z"/><polyline fill="#ebf2ff" points="19 81 19 66 30 66 30 81"/><path fill="#b8d4ea" d="M29,80V69H27v9a2,2,0,0,0,2,2Z"/><path fill="#ebf2ff" d="M37,64.19C37,71.26,32,77,25.72,77H24.28C18.05,77,13,71.26,13,64.19V52.81C13,45.74,18.05,40,24.28,40h1.44C32,40,37,45.74,37,52.81Z"/><path fill="#b8d4ea" d="M36,51c0-6.11-4.1-11.15-9.33-11.73A14.38,14.38,0,0,1,32.43,51l1.43,11.41c0,6.43-3,9.64-7.19,11.73C31.9,73.55,36,68.52,36,62.41Z"/><path fill="#f2b01f" d="M14.35,70.06S8.05,71.49,3.93,67.2c5.82-1.9,5.63-13,5.58-14.94C9.27,43.22,15,39,23.31,39h0a15.22,15.22,0,0,1,12.93,6.83c-5.6,6.84-8.43,3.09-18.7,4.61C16.09,50.66,11.44,62.44,14.35,70.06Z"/><path fill="#fabf4d" d="M35.44,71.49a12.8,12.8,0,0,0,11.07-5.6c-4.17-.12-6.9-7.43-6.72-15.29C40,43.31,33,37.25,23.31,37.69a15.16,15.16,0,0,0-13.1,9.74c5.84,8,10.84,11.38,23,11.56C34.8,59,39.49,62.92,35.44,71.49Z"/><path fill="#f2b01f" d="M43.61,66.65c.55-.42.44-.68.94-1.2-3.87-1.82-5.72-8.83-5.49-15.39a9.89,9.89,0,0,0-2.87-7.24,15.38,15.38,0,0,0-10.9-4.28h-.91a12.09,12.09,0,0,0-2.6.38c4.65.24,9.54,1.27,12.36,4.2,2.34,2.45,3.64,4.32,3.53,7.53a28.41,28.41,0,0,0,.86,8,32.58,32.58,0,0,1,1.09,3.47,14.21,14.21,0,0,0,3.09,3.9C43,66.31,43.44,66.3,43.61,66.65Z"/><path fill="#4088da" d="M72.38,73.19l-16.71.4c-.9,0-11.1,2.66-11.91,2.93C40.58,77.58,37,81,37,90.05v17H92V89c0-4.12-1.86-10.81-6.57-12.47C80.93,75.19,77.6,74.39,72.38,73.19Z"/><path fill="#2e75da" d="M91,105V89c-.61-3.55-2.16-9.72-6.32-11.16-1.59-.46-3.21-.85-4.64-1.22C84,79.31,86.83,82.45,87,89v16Z"/><polygon fill="#fff" points="63.83 101.56 74.98 73.67 63.27 71.34 52.24 74.13 63.83 101.56"/><path fill="#ebf2ff" d="M71,73.4s-2,1.53-7.5,1.53c-5.06,0-7.5-1.53-7.5-1.53V59H71Z"/><path fill="#b8d4ea" d="M70,72.34V61H68V72.86A12.86,12.86,0,0,1,70,72.34Z"/><path fill="#ebf2ff" d="M78,54.07A14,14,0,0,1,63.87,68H62.13A14,14,0,0,1,48,54.07V41.93A14,14,0,0,1,62.13,28h1.74A14,14,0,0,1,78,41.93Z"/><path fill="#b8d4ea" d="M77,40.47a12.94,12.94,0,0,0-8.32-11.81A13.74,13.74,0,0,1,74,40.47v12a13.77,13.77,0,0,1-5.32,11.82C73.46,62.38,77,60,77,52.46Z"/><path fill="#fabf4d" d="M81.34,39.48c-1.11-8.07-8.68-14.3-19.5-13.8a17.65,17.65,0,0,0-10.2,3.86,15.6,15.6,0,0,0-3.09,3.3,15,15,0,0,0-2.4,7.07,24.67,24.67,0,0,0,1.6,11.25c1-2.29,2.79-9.41,4.33-10.59,6,3.77,13.34,4.55,22.75,4.36,1.81,0,2.82,6.32,4.21,7.61C79,52.54,82.1,45,81.34,39.48Z"/><path fill="#f2b01f" d="M63.36,26.3l-1.11,0a16.11,16.11,0,0,0-8,2.57c.8-.14,3.73-.79,4.13-.84C70.51,26.5,77.42,34.58,77,43.2c0,.34.08.71.1,1.13a20.29,20.29,0,0,1,1.47,3.39l.25.71c.78-2.53,1.71-6.45,1.28-9.6C79.12,31.46,72.22,26.3,63.36,26.3Z"/><polygon fill="#25ce9e" points="59.41 74.58 61.27 79.1 66.19 78.7 67.39 74.84 59.41 74.58"/><polygon fill="#25ce9e" points="61.41 80 59.02 89.81 63.8 101 68.59 89.29 66.33 80 61.41 80"/><path fill="#fabf4d" d="M50.24,40.1A8.57,8.57,0,0,0,53.17,43"/><g><path fill="none" stroke="#263357" stroke-linejoin="round" stroke-width="4" d="M93 106h31V90.63c0-3.43-1.55-9-5.48-10.38-3.76-1.1-6.54-1.76-10.9-2.76M93.49 77.82c-.32 0-2 .4-4 .88"/><line x1="115" x2="115" y1="91" y2="105" fill="none" stroke="#263357" stroke-linecap="round" stroke-linejoin="round" stroke-width="4"/><path fill="none" stroke="#263357" stroke-linejoin="round" stroke-width="4" d="M107,72v7.06s-5.2,7-6.46,8.29c-1-1-6.54-8.29-6.54-8.29V73"/><path fill="none" stroke="#263357" stroke-miterlimit="10" stroke-width="4" d="M87.83,61.09C87.83,68.58,93.14,74,99.68,74h1.47A11.73,11.73,0,0,0,113,62.4V59"/><path fill="none" stroke="#263357" stroke-linejoin="round" stroke-width="4" d="M84.92 50.32c.92-6.71 7.22-12.89 16.22-12.48 4.38.76 7.69.3 11-3a6.44 6.44 0 0 1 1.2 3.42A8.76 8.76 0 0 1 112 42c.21.57 2.78-2 2.88-1.3a13.84 13.84 0 0 1 0 3.17c-.23 1.87.54 3.92.71 5.87.48 5.35-2.71 10.27-2.71 10.27-.85-1.9-2.33-7.83-3.61-8.81-5 3.14-11.1 3.78-18.93 3.63-1.5 0-1.17 5.07-2.33 6.14C88 61 84.29 55 84.92 50.32zM37.49 80.53A16.76 16.76 0 0 0 35 79.38a18.34 18.34 0 0 0-4.51-1M19.8 78.37a22.43 22.43 0 0 0-4.16 1.08C8.44 82.13 4 88.5 4 97.19V106H37"/><path fill="none" stroke="#263357" stroke-miterlimit="10" stroke-width="4" d="M14.05,79.14S15.93,88.8,24.94,89c9.25.2,10.7-9.29,10.7-9.29"/><path fill="none" stroke="#263357" stroke-linecap="round" stroke-linejoin="round" stroke-width="4" d="M13.88,90.33a17.26,17.26,0,0,0-1.61,7,13,13,0,0,0,3.39,8"/><line x1="31" x2="31" y1="76" y2="79" fill="none" stroke="#263357" stroke-linecap="round" stroke-linejoin="round" stroke-width="4"/><line x1="20" x2="20" y1="79" y2="75" fill="none" stroke="#263357" stroke-linecap="round" stroke-linejoin="round" stroke-width="4"/><path fill="none" stroke="#263357" stroke-miterlimit="10" stroke-width="4" d="M35.39,70.65C33.3,73.57,29.6,76,26,76H24.57c-4.47,0-8-2.54-10.21-6.54"/><path fill="none" stroke="#263357" stroke-linejoin="round" stroke-width="4" d="M15.43,53.11c-1.61,4.1-3,11.07-1.11,16.17,0,0-6.29,1.42-10.4-2.85C9,62,8.57,55.94,8.5,54c-.11-2.78.17-6.24.69-7.33"/><path fill="none" stroke="#263357" stroke-linecap="round" stroke-linejoin="round" stroke-width="4" d="M35.39,70.7a12.75,12.75,0,0,0,11-5.58C43,62,40.55,57.69,40.73,49.85c.17-7.29-7.79-13.34-17.46-12.9-5.42.25-11.71,3.84-14.08,9.72C15,54.66,21,58.05,33.13,58.22,34.75,58.25,39.43,62.15,35.39,70.7Z"/><path fill="none" stroke="#263357" stroke-linecap="round" stroke-miterlimit="10" stroke-width="4" d="M35.62,59.9a11,11,0,0,1-1-4.22"/><path fill="none" stroke="#263357" stroke-miterlimit="10" stroke-width="4" d="M55.67,72.63s-11.1,2.65-11.91,2.92C40.58,76.61,37,80.06,37,89.07V106H92V88c0-4.11-1.86-10.8-6.57-12.46-4.5-1.33-7.83-2.12-13.05-3.32"/><polyline fill="none" stroke="#263357" stroke-linejoin="round" stroke-width="4" points="50.13 73.43 63.72 104.83 76.85 72.97"/><line x1="84" x2="84" y1="97" y2="105" fill="none" stroke="#263357" stroke-linecap="round" stroke-linejoin="round" stroke-width="4"/><line x1="45" x2="45" y1="97" y2="105" fill="none" stroke="#263357" stroke-linecap="round" stroke-linejoin="round" stroke-width="4"/><path fill="none" stroke="#263357" stroke-linejoin="round" stroke-width="4" d="M72,66v6.74s-2,1.51-7.5,1.51c-5.06,0-7.5-1.51-7.5-1.51V66"/><path fill="none" stroke="#263357" stroke-miterlimit="10" stroke-width="4" d="M79,50v3.07A14,14,0,0,1,64.87,67H63.13A14,14,0,0,1,49,53.07V50"/><polyline fill="none" stroke="#263357" stroke-linecap="round" stroke-linejoin="round" stroke-width="4" points="46.4 75.58 43.22 81.19 49.31 84.5 47.1 89.92 56.63 105.02"/><polyline fill="none" stroke="#263357" stroke-linecap="round" stroke-linejoin="round" stroke-width="4" points="80.86 74.77 84.05 81.34 78.2 84.83 79.97 90.56 71.56 105.02"/><path fill="none" stroke="#263357" stroke-linejoin="bevel" stroke-width="4" d="M81.2,38.82C80.1,30.76,72.53,24.54,61.73,25a17.6,17.6,0,0,0-10.19,3.86,15.79,15.79,0,0,0-3.09,3.29,14.94,14.94,0,0,0-2.39,7.06A17.41,17.41,0,0,0,48.5,50c1-2.28,4.94-8.92,6.48-10.1,6,3.77,10.32,4.55,19.72,4.36,1.81,0,2.41,6.46,3.8,7.74C78.5,52,82,44.37,81.2,38.82Z"/><polyline fill="none" stroke="#263357" stroke-miterlimit="10" stroke-width="4" points="59.5 74 60.5 80 66.5 80 67.5 74"/><line x1="60.5" x2="57.5" y1="80" y2="90" fill="none" stroke="#263357" stroke-linejoin="round" stroke-width="4"/><line x1="69.5" x2="66.5" y1="90" y2="80" fill="none" stroke="#263357" stroke-linejoin="round" stroke-width="4"/><path fill="none" stroke="#263357" stroke-linecap="round" stroke-linejoin="bevel" stroke-width="4" d="M53.15,37.44a6.13,6.13,0,0,0,2.6,2.92"/></g></svg>